{
.appVersion = "3151";
.formatVersion = 3;
axes = (
{
name = Weight;
tag = wght;
},
{
name = Width;
tag = wdth;
},
{
name = Slant;
tag = slnt;
}
);
classes = (
{
code = "zero one two three four five six seven eight nine ";
name = Num;
},
{
code = "zero.canadian one.canadian two.canadian three.canadian four.canadian five.canadian six.canadian seven.canadian eight.canadian nine.canadian 
";
name = Num_can;
},
{

glyphs = (
{
glyphname = idotless;
lastChange = "2023-01-13 15:57:31 +0000";
layers = (
{
layerId = "D19189FD-F605-4705-8DF9-B27AB1AA0ED8";
shapes = (
{
closed = 1;
nodes = (
(166,0,l),
(279,530,l),
(121,530,l),
(8,0,l)
);
}
);
width = 279;
}
);
note = dotlessi;
unicode = 305;
},
{
glyphname = "acuteFinal-canadian";
lastChange = "2023-01-13 15:57:34 +0000";
layers = (
{
layerId = "D19189FD-F605-4705-8DF9-B27AB1AA0ED8";
shapes = (
{
closed = 1;
nodes = (
(178,345,l),
(412,690,l),
(280,690,l),
(46,345,l)
);
}
);
width = 343;
}
);
metricRight = "=|";
note = uni141F;
unicode = 5151;
},
{
glyphname = "graveFinal-canadian";
kernLeft = mwestleft;
kernRight = mwestright;
lastChange = "2023-01-13 15:57:34 +0000";
layers = (
{
layerId = "D19189FD-F605-4705-8DF9-B27AB1AA0ED8";
shapes = (
{
closed = 1;
nodes = (
(337,345,l),
(237,690,l),
(119,690,l),
(219,345,l)
);
}
);
width = 341;
}
);
metricLeft = "=|acuteFinal-canadian";
metricRight = "=|acuteFinal-canadian";
note = uni1420;
unicode = 5152;
},
{
glyphname = "ringBottomhalfFinal-canadian";
kernLeft = mwestleft;
kernRight = mwestright;
lastChange = "2023-01-13 15:57:34 +0000";
layers = (
{
layerId = "D19189FD-F605-4705-8DF9-B27AB1AA0ED8";
shapes = (
{
closed = 1;
nodes = (
(351,339,o),
(407,395,o),
(426,487,cs),
(469,690,l),
(360,690,l),
(320,500,ls),
(311,461,o),
(293,439,o),
(258,439,cs),
(222,439,o),
(207,461,o),
(216,502,cs),
(256,690,l),
(147,690,l),
(109,511,ls),
(87,407,o),
(137,339,o),
(247,339,cs)
);
}
);
width = 428;
}
);
metricLeft = "ai-canadian";
metricRight = "==|ai-canadian";
note = uni1421;
unicode = 5153;
},
{
glyphname = "ringTophalfFinal-canadian";
lastChange = "2023-01-13 15:57:31 +0000";
layers = (
{
layerId = "D19189FD-F605-4705-8DF9-B27AB1AA0ED8";
shapes = (
{
closed = 1;
nodes = (
(184,345,l),
(224,534,ls),
(233,574,o),
(251,596,o),
(286,596,cs),
(322,596,o),
(337,574,o),
(327,532,cs),
(288,345,l),
(397,345,l),
(435,524,ls),
(457,628,o),
(407,696,o),
(297,696,cs),
(193,696,o),
(137,639,o),
(118,548,cs),
(74,345,l)
);
}
);
width = 429;
}
);
metricLeft = "ai-canadian";
metricRight = "==|ai-canadian";
note = uni1422;
unicode = 5154;
},
{
glyphname = "ringRighthalfFinal-canadian";
kernLeft = mwestleft;
kernRight = mwestright;
lastChange = "2023-01-13 15:57:34 +0000";
layers = (
{
layerId = "D19189FD-F605-4705-8DF9-B27AB1AA0ED8";
shapes = (
{
closed = 1;
nodes = (
(158,345,ls),
(298,345,o),
(378,427,o),
(378,548,cs),
(378,635,o),
(319,690,o),
(221,690,cs),
(147,690,l),
(126,588,l),
(204,588,ls),
(246,588,o),
(267,568,o),
(267,535,cs),
(267,484,o),
(239,446,o),
(174,446,cs),
(96,446,l),
(73,345,l)
);
}
);
width = 365;
}
);
metricLeft = "=|t-canadian";
metricWidth = "t-canadian";
note = uni1423;
unicode = 5155;
},
{
glyphname = "ringFinal-canadian";
kernLeft = mwestleft;
kernRight = mwestright;
lastChange = "2023-01-13 15:57:31 +0000";
layers = (
{
layerId = "D19189FD-F605-4705-8DF9-B27AB1AA0ED8";
shapes = (
{
closed = 1;
nodes = (
(383,356,o),
(454,429,o),
(454,526,cs),
(454,623,o),
(381,696,o),
(281,696,cs),
(181,696,o),
(106,624,o),
(106,526,cs),
(106,429,o),
(179,356,o),
(281,356,cs)
);
},
{
closed = 1;
nodes = (
(236,449,o),
(209,483,o),
(209,526,cs),
(209,569,o),
(236,603,o),
(281,603,cs),
(324,603,o),
(353,569,o),
(353,526,cs),
(353,483,o),
(325,449,o),
(281,449,cs)
);
}
);
width = 440;
}
);
note = uni1424;
unicode = 5156;
},
{
glyphname = "doubleacuteFinal-canadian";
lastChange = "2023-01-13 15:57:31 +0000";
layers = (
{
layerId = "D19189FD-F605-4705-8DF9-B27AB1AA0ED8";
shapes = (
{
closed = 1;
nodes = (
(175,345,l),
(412,690,l),
(283,690,l),
(46,345,l)
);
},
{
closed = 1;
nodes = (
(356,345,l),
(593,690,l),
(465,690,l),
(228,345,l)
);
}
);
width = 524;
}
);
metricLeft = "acuteFinal-canadian";
metricRight = "=|";
note = uni1425;
unicode = 5157;
},
{
glyphname = "doubleshortverticalstrokesFinal-canadian";
kernLeft = mwestleft;
kernRight = mwestright;
lastChange = "2023-01-13 15:57:34 +0000";
layers = (
{
layerId = "D19189FD-F605-4705-8DF9-B27AB1AA0ED8";
shapes = (
{
closed = 1;
nodes = (
(184,345,l),
(257,690,l),
(148,690,l),
(74,345,l)
);
},
{
closed = 1;
nodes = (
(343,345,l),
(416,690,l),
(307,690,l),
(234,345,l)
);
}
);
width = 375;
}
);
metricLeft = "pWestCree-canadian";
metricRight = "pWestCree-canadian";
note = uni1426;
unicode = 5158;
},
{
glyphname = "middledotFinal-canadian";
lastChange = "2023-01-13 15:57:31 +0000";
layers = (
{
layerId = "D19189FD-F605-4705-8DF9-B27AB1AA0ED8";
shapes = (
{
closed = 1;
nodes = (
(184,278,o),
(217,312,o),
(217,355,cs),
(217,397,o),
(184,431,o),
(141,431,cs),
(99,431,o),
(65,397,o),
(65,355,cs),
(65,312,o),
(99,278,o),
(141,278,cs)
);
}
);
width = 237;
}
);
note = uni1427;
unicode = 5159;
},
{
glyphname = "shorthorizontalstrokeFinal-canadian";
kernLeft = mwestleft;
kernRight = mwestright;
lastChange = "2023-01-13 15:57:31 +0000";
layers = (
{
layerId = "D19189FD-F605-4705-8DF9-B27AB1AA0ED8";
shapes = (
{
closed = 1;
nodes = (
(425,471,l),
(449,582,l),
(125,582,l),
(101,471,l)
);
}
);
width = 431;
}
);
metricRight = "=|";
note = uni1428;
unicode = 5160;
},
{
glyphname = "plusFinal-canadian";
kernLeft = mwestleft;
kernRight = mwestright;
lastChange = "2023-01-13 15:57:34 +0000";
layers = (
{
layerId = "D19189FD-F605-4705-8DF9-B27AB1AA0ED8";
shapes = (
{
closed = 1;
nodes = (
(295,364,l),
(319,476,l),
(427,476,l),
(449,581,l),
(340,581,l),
(363,690,l),
(257,690,l),
(234,581,l),
(124,581,l),
(102,476,l),
(212,476,l),
(187,364,l)
);
}
);
width = 431;
}
);
metricLeft = "shorthorizontalstrokeFinal-canadian";
metricRight = "shorthorizontalstrokeFinal-canadian";
note = uni1429;
unicode = 5161;
},
{
glyphname = "downtackFinal-canadian";
kernLeft = mwestleft;
kernRight = mwestright;
lastChange = "2023-01-13 15:57:34 +0000";
layers = (
{
layerId = "D19189FD-F605-4705-8DF9-B27AB1AA0ED8";
shapes = (
{
closed = 1;
nodes = (
(291,345,l),
(342,586,l),
(450,586,l),
(472,690,l),
(147,690,l),
(125,586,l),
(233,586,l),
(182,345,l)
);
}
);
width = 431;
}
);
metricLeft = "shorthorizontalstrokeFinal-canadian";
metricRight = "shorthorizontalstrokeFinal-canadian";
note = uni142A;
unicode = 5162;
},
{
glyphname = "thFinalWoodScree-canadian";
lastChange = "2023-01-13 15:57:31 +0000";
layers = (
{
layerId = "D19189FD-F605-4705-8DF9-B27AB1AA0ED8";
shapes = (
{
closed = 1;
nodes = (
(293,345,l),
(305,400,l),
(411,400,l),
(429,489,l),
(324,489,l),
(335,546,l),
(441,546,l),
(460,635,l),
(355,635,l),
(366,690,l),
(257,690,l),
(245,635,l),
(136,635,l),
(118,546,l),
(226,546,l),
(214,489,l),
(105,489,l),
(87,400,l),
(196,400,l),
(184,345,l)
);
}
);
width = 431;
}
);
metricLeft = "hyphen-canadian";
metricRight = "hyphen-canadian";
note = uni167E;
unicode = 5758;
},
{
glyphname = "ringSmallFinal-canadian";
kernLeft = mwestleft;
kernRight = mwestright;
lastChange = "2023-01-13 15:57:31 +0000";
layers = (
{
layerId = "D19189FD-F605-4705-8DF9-B27AB1AA0ED8";
shapes = (
{
closed = 1;
nodes = (
(304,482,o),
(359,527,o),
(359,593,cs),
(359,658,o),
(304,704,o),
(242,704,cs),
(181,704,o),
(128,658,o),
(128,593,cs),
(128,527,o),
(180,482,o),
(242,482,cs)
);
},
{
closed = 1;
nodes = (
(215,548,o),
(200,568,o),
(200,593,cs),
(200,617,o),
(218,638,o),
(243,638,cs),
(270,638,o),
(288,617,o),
(288,593,cs),
(288,568,o),
(270,548,o),
(243,548,cs)
);
}
);
width = 339;
}
);
note = g725;
unicode = 6366;
},
{
glyphname = "raiseddotFinal-canadian";
kernLeft = mwestleft;
kernRight = mwestright;
lastChange = "2023-01-13 15:57:31 +0000";
layers = (
{
layerId = "D19189FD-F605-4705-8DF9-B27AB1AA0ED8";
shapes = (
{
closed = 1;
nodes = (
(242,552,o),
(276,585,o),
(276,628,cs),
(276,669,o),
(242,704,o),
(200,704,cs),
(157,704,o),
(124,669,o),
(124,628,cs),
(124,585,o),
(157,552,o),
(200,552,cs)
);
}
);
width = 237;
}
);
note = g725;
unicode = 6367;
},
{
glyphname = "plusFinal-canadian.base";
lastChange = "2023-01-13 15:57:31 +0000";
layers = (
{
layerId = "D19189FD-F605-4705-8DF9-B27AB1AA0ED8";
shapes = (
{
closed = 1;
nodes = (
(218,0,l),
(242,112,l),
(351,112,l),
(373,216,l),
(264,216,l),
(287,326,l),
(181,326,l),
(157,216,l),
(47,216,l),
(25,112,l),
(135,112,l),
(111,0,l)
);
}
);
width = 432;
}
);
metricLeft = "shorthorizontalstrokeFinal-canadian";
metricRight = "shorthorizontalstrokeFinal-canadian";
note = uni1429;
},
{
glyphname = "e-canadian";
kernLeft = ecanleft;
kernRight = ecanright;
lastChange = "2023-01-13 15:57:34 +0000";
layers = (
{
anchors = (
{
name = middle_center_can;
pos = (407,454);
},
{
name = top_center_can;
pos = (460,690);
},
{
name = top_left_can;
pos = (235,690);
},
{
name = top_right_can;
pos = (685,690);
}
);
layerId = "D19189FD-F605-4705-8DF9-B27AB1AA0ED8";
shapes = (
{
closed = 1;
nodes = (
(336,0,l),
(791,651,l),
(800,690,l),
(119,690,l),
(111,651,l),
(290,0,l)
);
},
{
closed = 1;
nodes = (
(373,196,l),
(274,593,l),
(251,561,l),
(611,561,l),
(584,593,l),
(318,196,l)
);
}
);
width = 731;
}
);
metricRight = "=|";
note = uni1401;
unicode = 5121;
},
{
glyphname = "i-canadian";
kernLeft = icanleft;
kernRight = icanright;
lastChange = "2023-01-13 15:57:34 +0000";
layers = (
{
anchors = (
{
name = middle_center_can;
pos = (380,266);
},
{
name = top_center_can;
pos = (460,690);
},
{
name = top_left_can;
pos = (236,690);
},
{
name = top_right_can;
pos = (686,690);
}
);
layerId = "D19189FD-F605-4705-8DF9-B27AB1AA0ED8";
shapes = (
{
closed = 1;
nodes = (
(437,690,l),
(-18,39,l),
(-27,0,l),
(654,0,l),
(663,39,l),
(484,690,l)
);
},
{
closed = 1;
nodes = (
(400,494,l),
(498,97,l),
(522,128,l),
(162,128,l),
(188,97,l),
(455,494,l)
);
}
);
width = 731;
}
);
metricLeft = "e-canadian";
metricWidth = "e-canadian";
note = uni1403;
unicode = 5123;
},
{
glyphname = "o-canadian";
kernLeft = ocanleft;
kernRight = ocanright;
lastChange = "2023-01-13 15:57:31 +0000";
layers = (
{
anchors = (
{
name = middle_center_can;
pos = (296,360);
},
{
name = top_center_can;
pos = (443,690);
},
{
name = top_double;
pos = (554,690);
},
{
name = top_left_can;
pos = (223,690);
},
{
name = top_right_can;
pos = (672,690);
}
);
layerId = "D19189FD-F605-4705-8DF9-B27AB1AA0ED8";
shapes = (
{
closed = 1;
nodes = (
(47,0,l),
(655,321,l),
(666,369,l),
(194,690,l),
(156,690,l),
(10,0,l)
);
},
{
closed = 1;
nodes = (
(255,516,l),
(208,528,l),
(480,342,l),
(482,371,l),
(138,188,l),
(183,178,l)
);
}
);
width = 667;
}
);
metricLeft = "nunavuth-canadian";
note = uni1405;
unicode = 5125;
},
{
glyphname = "eeCarrier-canadian";
lastChange = "2023-01-13 15:57:31 +0000";
layers = (
{
layerId = "D19189FD-F605-4705-8DF9-B27AB1AA0ED8";
shapes = (
{
closed = 1;
nodes = (
(47,0,l),
(655,321,l),
(666,369,l),
(194,690,l),
(156,690,l),
(10,0,l)
);
},
{
closed = 1;
nodes = (
(250,516,l),
(217,523,l),
(483,342,l),
(490,374,l),
(147,192,l),
(179,178,l)
);
},
{
closed = 1;
nodes = (
(301,295,l),
(327,417,l),
(275,417,l),
(249,295,l)
);
}
);
width = 667;
}
);
metricLeft = "nunavuth-canadian";
metricRight = "o-canadian";
note = uni1408;
unicode = 5128;
},
{
glyphname = "a-canadian";
kernLeft = acanleft;
kernRight = acanright;
lastChange = "2023-01-13 15:57:34 +0000";
layers = (
{
anchors = (
{
name = middle_center_can;
pos = (403,338);
},
{
name = top_center_can;
pos = (400,690);
},
{
name = top_left_can;
pos = (193,690);
},
{
name = top_right_can;
pos = (630,690);
}
);
layerId = "D19189FD-F605-4705-8DF9-B27AB1AA0ED8";
shapes = (
{
closed = 1;
nodes = (
(661,690,l),
(54,369,l),
(43,321,l),
(514,0,l),
(553,0,l),
(699,690,l)
);
},
{
closed = 1;
nodes = (
(454,174,l),
(501,161,l),
(229,348,l),
(227,319,l),
(571,501,l),
(526,512,l)
);
}
);
width = 667;
}
);
metricRight = "nunavuth-canadian";
note = uni140A;
unicode = 5130;
},
{
glyphname = "ai-canadian";
lastChange = "2023-01-13 15:57:31 +0000";
layers = (
{
layerId = "D19189FD-F605-4705-8DF9-B27AB1AA0ED8";
shapes = (
{
closed = 1;
nodes = (
(287,339,o),
(326,360,o),
(357,408,c),
(329,409,l),
(342,362,o),
(381,339,o),
(440,339,cs),
(535,339,o),
(586,386,o),
(610,495,cs),
(651,690,l),
(549,690,l),
(505,490,ls),
(497,451,o),
(478,433,o),
(446,433,cs),
(412,433,o),
(400,452,o),
(408,493,cs),
(450,690,l),
(349,690,l),
(306,490,ls),
(298,450,o),
(279,433,o),
(247,433,cs),
(214,433,o),
(200,453,o),
(209,493,cs),
(250,690,l),
(148,690,l),
(106,497,ls),
(86,403,o),
(139,339,o),
(230,339,cs)
);
}
);
width = 610;
}
);
metricRight = "=|";
note = uni141C;
unicode = 5148;
},
{
glyphname = "ycreew-canadian";
lastChange = "2023-01-13 15:57:34 +0000";
layers = (
{
layerId = "D19189FD-F605-4705-8DF9-B27AB1AA0ED8";
shapes = (
{
closed = 1;
nodes = (
(413,510,o),
(449,548,o),
(449,604,cs),
(449,659,o),
(412,696,o),
(363,696,cs),
(313,696,o),
(276,659,o),
(276,604,cs),
(276,548,o),
(312,510,o),
(363,510,cs)
);
},
{
closed = 1;
nodes = (
(227,339,o),
(263,377,o),
(263,433,cs),
(263,488,o),
(226,525,o),
(177,525,cs),
(127,525,o),
(90,488,o),
(90,433,cs),
(90,377,o),
(126,339,o),
(177,339,cs)
);
},
{
closed = 1;
nodes = (
(156,389,o),
(144,406,o),
(144,433,cs),
(144,459,o),
(156,474,o),
(177,474,cs),
(196,474,o),
(209,459,o),
(209,433,cs),
(209,406,o),
(196,389,o),
(177,389,cs)
);
},
{
closed = 1;
nodes = (
(343,560,o),
(330,577,o),
(330,604,cs),
(330,630,o),
(343,645,o),
(363,645,cs),
(382,645,o),
(395,630,o),
(395,604,cs),
(395,577,o),
(382,560,o),
(363,560,cs)
);
}
);
width = 424;
}
);
metricRight = "=|";
note = uni141D;
unicode = 5149;
},
{
glyphname = "glottalstop-canadian";
lastChange = "2023-01-13 15:57:34 +0000";
layers = (
{
layerId = "D19189FD-F605-4705-8DF9-B27AB1AA0ED8";
shapes = (
{
closed = 1;
nodes = (
(402,345,l),
(406,365,l),
(317,690,l),
(293,690,l),
(65,365,l),
(61,345,l)
);
},
{
closed = 1;
nodes = (
(311,584,l),
(264,585,l),
(312,393,l),
(334,424,l),
(163,424,l),
(181,393,l)
);
}
);
width = 421;
}
);
metricRight = "=|";
note = uni141E;
unicode = 5150;
},
{
glyphname = "pe-canadian";
kernLeft = ecanleft;
kernRight = ecanright;
lastChange = "2023-01-13 15:57:34 +0000";
layers = (
{
anchors = (
{
name = middle_center_can;
pos = (398,454);
},
{
name = top_center_can;
pos = (459,690);
},
{
name = top_left_can;
pos = (235,690);
},
{
name = top_right_can;
pos = (685,690);
}
);
layerId = "D19189FD-F605-4705-8DF9-B27AB1AA0ED8";
shapes = (
{
closed = 1;
nodes = (
(336,0,l),
(791,651,l),
(800,690,l),
(635,690,l),
(297,195,l),
(389,195,l),
(264,690,l),
(119,690,l),
(111,651,l),
(289,0,l)
);
}
);
width = 731;
}
);
metricLeft = "e-canadian";
metricRight = "e-canadian";
note = uni142F;
unicode = 5167;
},
{
glyphname = "pi-canadian";
kernLeft = icanleft;
kernRight = icanright;
lastChange = "2023-01-13 15:57:34 +0000";
layers = (
{
anchors = (
{
name = middle_center_can;
pos = (381,266);
},
{
name = top_center_can;
pos = (461,690);
},
{
name = top_left_can;
pos = (236,690);
},
{
name = top_right_can;
pos = (686,690);
}
);
layerId = "D19189FD-F605-4705-8DF9-B27AB1AA0ED8";
shapes = (
{
closed = 1;
nodes = (
(437,690,l),
(-18,39,l),
(-27,0,l),
(138,0,l),
(476,495,l),
(384,495,l),
(509,0,l),
(654,0,l),
(663,39,l),
(484,690,l)
);
}
);
width = 732;
}
);
metricLeft = "e-canadian";
metricRight = "e-canadian";
note = uni1431;
unicode = 5169;
},
{
glyphname = "po-canadian";
kernLeft = ocanleft;
kernRight = ocanright;
lastChange = "2023-01-13 15:57:31 +0000";
layers = (
{
anchors = (
{
name = middle_center_can;
pos = (193,362);
},
{
name = top_center_can;
pos = (421,690);
},
{
name = top_double;
pos = (538,690);
},
{
name = top_left_can;
pos = (205,690);
},
{
name = top_right_can;
pos = (651,690);
}
);
layerId = "D19189FD-F605-4705-8DF9-B27AB1AA0ED8";
name = "Thin Slanted";
shapes = (
{
closed = 1;
nodes = (
(28,0,l),
(633,321,l),
(643,369,l),
(174,690,l),
(136,690,l),
(107,553,l),
(445,325,l),
(459,395,l),
(25,168,l),
(-11,0,l)
);
}
);
width = 644;
}
);
metricRight = "o-canadian";
note = uni1433;
unicode = 5171;
},
{
glyphname = "pa-canadian";
kernLeft = acanleft;
kernRight = acanright;
lastChange = "2023-01-13 15:57:31 +0000";
layers = (
{
anchors = (
{
name = middle_center_can;
pos = (420,345);
},
{
name = top_center_can;
pos = (413,690);
},
{
name = top_left_can;
pos = (194,690);
},
{
name = top_right_can;
pos = (629,690);
}
);
layerId = "D19189FD-F605-4705-8DF9-B27AB1AA0ED8";
shapes = (
{
closed = 1;
nodes = (
(659,690,l),
(54,369,l),
(43,321,l),
(513,0,l),
(551,0,l),
(580,137,l),
(242,365,l),
(229,295,l),
(661,522,l),
(696,690,l)
);
}
);
width = 644;
}
);
metricRight = "=|po-canadian";
note = uni1438;
unicode = 5176;
},
{
glyphname = "p-canadian";
kernLeft = mwestleft;
kernRight = mwestright;
lastChange = "2023-01-13 15:57:31 +0000";
layers = (
{
layerId = "D19189FD-F605-4705-8DF9-B27AB1AA0ED8";
shapes = (
{
closed = 1;
nodes = (
(360,345,l),
(380,437,l),
(213,550,l),
(194,467,l),
(410,580,l),
(434,690,l),
(414,690,l),
(114,530,l),
(108,505,l),
(341,345,l)
);
}
);
width = 392;
}
);
note = uni1449;
unicode = 5193;
},
{
glyphname = "pWestCree-canadian";
kernLeft = mwestleft;
kernRight = mwestright;
lastChange = "2023-01-13 15:57:34 +0000";
layers = (
{
layerId = "D19189FD-F605-4705-8DF9-B27AB1AA0ED8";
shapes = (
{
closed = 1;
nodes = (
(184,345,l),
(257,690,l),
(148,690,l),
(74,345,l)
);
}
);
width = 216;
}
);
metricRight = "=|";
note = uni144A;
unicode = 5194;
},
{
color = 6;
glyphname = "hCarrier-canadian";
lastChange = "2023-01-13 15:57:31 +0000";
layers = (
{
layerId = "D19189FD-F605-4705-8DF9-B27AB1AA0ED8";
shapes = (
{
closed = 1;
nodes = (
(149,183,l),
(171,289,ls),
(178,322,o),
(194,338,o),
(213,338,cs),
(246,338,o),
(257,320,o),
(249,286,cs),
(227,183,l),
(336,183,l),
(362,306,ls),
(379,382,o),
(337,437,o),
(260,437,cs),
(216,437,o),
(175,415,o),
(162,384,c),
(187,365,l),
(222,527,l),
(113,527,l),
(40,183,l)
);
}
);
width = 384;
}
);
metricLeft = "pWestCree-canadian";
note = uni144B;
unicode = 5195;
},
{
glyphname = "te-canadian";
lastChange = "2023-01-13 15:57:31 +0000";
layers = (
{
anchors = (
{
name = middle_center_can;
pos = (383,345);
},
{
name = top_center_can;
pos = (456,690);
},
{
name = top_left_can;
pos = (230,690);
},
{
name = top_right_can;
pos = (683,690);
}
);
layerId = "D19189FD-F605-4705-8DF9-B27AB1AA0ED8";
shapes = (
{
closed = 1;
nodes = (
(528,-14,o),
(635,82,o),
(678,285,cs),
(764,690,l),
(604,690,l),
(518,289,ls),
(495,180,o),
(441,130,o),
(353,130,cs),
(245,130,o),
(205,191,o),
(229,307,cs),
(310,690,l),
(150,690,l),
(71,319,ls),
(27,111,o),
(134,-14,o),
(339,-14,cs)
);
}
);
width = 725;
}
);
metricRight = "=|";
note = uni144C;
unicode = 5196;
},
{
glyphname = "ti-canadian";
lastChange = "2023-01-13 15:57:34 +0000";
layers = (
{
anchors = (
{
name = middle_center_can;
pos = (384,345);
},
{
name = middle_right_can;
pos = (837,345);
},
{
name = top_center_can;
pos = (457,690);
},
{
name = top_left_can;
pos = (231,690);
},
{
name = top_right_can;
pos = (684,690);
}
);
layerId = "D19189FD-F605-4705-8DF9-B27AB1AA0ED8";
shapes = (
{
closed = 1;
nodes = (
(163,0,l),
(249,401,ls),
(272,510,o),
(326,559,o),
(414,559,cs),
(522,559,o),
(562,498,o),
(538,383,cs),
(457,0,l),
(617,0,l),
(696,371,ls),
(740,579,o),
(633,704,o),
(428,704,cs),
(239,704,o),
(132,608,o),
(89,405,cs),
(3,0,l)
);
}
);
width = 724;
}
);
metricLeft = "te-canadian";
metricRight = "te-canadian";
note = uni144E;
unicode = 5198;
},
{
glyphname = "to-canadian";
kernLeft = toleft;
lastChange = "2023-01-13 15:57:31 +0000";
layers = (
{
anchors = (
{
name = middle_center_can;
pos = (249,345);
},
{
name = middle_right_can;
pos = (735,345);
},
{
name = top_center_can;
pos = (377,690);
},
{
name = top_double;
pos = (469,690);
},
{
name = top_left_can;
pos = (212,690);
},
{
name = top_right_can;
pos = (593,690);
}
);
layerId = "D19189FD-F605-4705-8DF9-B27AB1AA0ED8";
shapes = (
{
closed = 1;
nodes = (
(175,0,ls),
(506,0,o),
(592,242,o),
(592,412,cs),
(592,584,o),
(481,690,o),
(288,690,cs),
(142,690,l),
(112,546,l),
(264,546,ls),
(375,546,o),
(431,493,o),
(431,396,cs),
(431,283,o),
(375,144,o),
(189,144,cs),
(26,144,l),
(-4,0,l)
);
}
);
width = 617;
}
);
note = uni1450;
unicode = 5200;
},
{
glyphname = "ta-canadian";
kernRight = taright;
lastChange = "2023-01-13 15:57:34 +0000";
layers = (
{
anchors = (
{
name = middle_center_can;
pos = (409,345);
},
{
name = top_center_can;
pos = (429,690);
},
{
name = top_left_can;
pos = (212,690);
},
{
name = top_right_can;
pos = (592,690);
}
);
layerId = "D19189FD-F605-4705-8DF9-B27AB1AA0ED8";
shapes = (
{
closed = 1;
nodes = (
(516,0,l),
(546,144,l),
(394,144,ls),
(283,144,o),
(227,197,o),
(227,294,cs),
(227,412,o),
(289,546,o),
(468,546,cs),
(632,546,l),
(662,690,l),
(483,690,ls),
(156,690,o),
(67,452,o),
(67,278,cs),
(67,105,o),
(177,0,o),
(370,0,cs)
);
}
);
width = 616;
}
);
metricLeft = "=|to-canadian";
metricRight = "=|to-canadian";
note = uni1455;
unicode = 5205;
},
{
glyphname = "t-canadian";
kernLeft = mwestleft;
kernRight = mwestright;
lastChange = "2023-01-13 15:57:31 +0000";
layers = (
{
layerId = "D19189FD-F605-4705-8DF9-B27AB1AA0ED8";
shapes = (
{
closed = 1;
nodes = (
(333,345,l),
(355,446,l),
(276,446,ls),
(233,446,o),
(213,467,o),
(213,499,cs),
(213,549,o),
(240,588,o),
(307,588,cs),
(384,588,l),
(407,690,l),
(322,690,ls),
(182,690,o),
(102,605,o),
(102,487,cs),
(102,400,o),
(160,345,o),
(258,345,cs)
);
}
);
width = 365;
}
);
note = uni1466;
unicode = 5222;
},
{
glyphname = "ke-canadian";
lastChange = "2023-01-13 15:57:31 +0000";
layers = (
{
anchors = (
{
name = middle_center_can;
pos = (333,441);
},
{
name = top_center_can;
pos = (382,690);
},
{
name = top_left_can;
pos = (213,690);
},
{
name = top_right_can;
pos = (533,698);
}
);
layerId = "D19189FD-F605-4705-8DF9-B27AB1AA0ED8";
shapes = (
{
closed = 1;
nodes = (
(485,0,l),
(570,400,ls),
(602,552,o),
(550,704,o),
(361,704,cs),
(180,704,o),
(80,550,o),
(80,392,cs),
(80,268,o),
(156,184,o),
(273,184,cs),
(328,184,o),
(377,206,o),
(398,243,c),
(379,255,l),
(325,0,l)
);
},
{
closed = 1;
nodes = (
(266,319,o),
(237,351,o),
(237,405,cs),
(237,457,o),
(263,569,o),
(346,569,cs),
(395,569,o),
(424,536,o),
(424,482,cs),
(424,430,o),
(398,319,o),
(314,319,cs)
);
}
);
width = 592;
}
);
metricRight = "te-canadian";
note = uni146B;
unicode = 5227;
},
{
glyphname = "ki-canadian";
lastChange = "2023-01-13 15:57:34 +0000";
layers = (
{
anchors = (
{
name = middle_center_can;
pos = (350,441);
},
{
name = top_center_can;
pos = (398,690);
},
{
name = top_left_can;
pos = (231,690);
},
{
name = top_right_can;
pos = (569,690);
}
);
layerId = "D19189FD-F605-4705-8DF9-B27AB1AA0ED8";
shapes = (
{
closed = 1;
nodes = (
(164,0,l),
(222,271,l),
(205,257,l),
(208,217,o),
(268,184,o),
(339,184,cs),
(514,184,o),
(597,352,o),
(597,486,cs),
(597,620,o),
(511,704,o),
(376,704,cs),
(234,704,o),
(135,617,o),
(102,465,cs),
(4,0,l)
);
},
{
closed = 1;
nodes = (
(283,319,o),
(254,351,o),
(254,405,cs),
(254,457,o),
(282,569,o),
(364,569,cs),
(413,569,o),
(442,536,o),
(442,482,cs),
(442,431,o),
(415,319,o),
(331,319,cs)
);
}
);
width = 595;
}
);
metricLeft = "te-canadian";
metricRight = "=|ke-canadian";
note = uni146D;
unicode = 5229;
},
{
glyphname = "ko-canadian";
lastChange = "2023-01-13 15:57:31 +0000";
layers = (
{
anchors = (
{
name = middle_center_can;
pos = (299,277);
},
{
name = top_center_can;
pos = (384,690);
},
{
name = top_double;
pos = (552,690);
},
{
name = top_left_can;
pos = (213,690);
},
{
name = top_right_can;
pos = (552,690);
}
);
layerId = "D19189FD-F605-4705-8DF9-B27AB1AA0ED8";
shapes = (
{
closed = 1;
nodes = (
(402,-14,o),
(500,72,o),
(533,225,cs),
(632,690,l),
(471,690,l),
(413,418,l),
(431,433,l),
(428,472,o),
(369,506,o),
(297,506,cs),
(123,506,o),
(40,337,o),
(40,203,cs),
(40,70,o),
(125,-14,o),
(266,-14,cs)
);
},
{
closed = 1;
nodes = (
(223,121,o),
(194,153,o),
(194,207,cs),
(194,259,o),
(223,371,o),
(304,371,cs),
(353,371,o),
(382,339,o),
(382,285,cs),
(382,233,o),
(355,121,o),
(272,121,cs)
);
}
);
width = 593;
}
);
metricLeft = "ke-canadian";
metricRight = "te-canadian";
note = uni146F;
unicode = 5231;
},
{
glyphname = "ka-canadian";
lastChange = "2023-01-13 15:57:34 +0000";
layers = (
{
anchors = (
{
name = middle_center_can;
pos = (314,281);
},
{
name = top_center_can;
pos = (397,690);
},
{
name = top_left_can;
pos = (229,690);
},
{
name = top_right_can;
pos = (567,690);
}
);
layerId = "D19189FD-F605-4705-8DF9-B27AB1AA0ED8";
shapes = (
{
closed = 1;
nodes = (
(454,-14,o),
(554,140,o),
(554,297,cs),
(554,422,o),
(478,506,o),
(360,506,cs),
(305,506,o),
(258,484,o),
(236,446,c),
(255,435,l),
(309,690,l),
(149,690,l),
(65,292,ls),
(25,106,o),
(111,-14,o),
(278,-14,cs)
);
},
{
closed = 1;
nodes = (
(239,121,o),
(211,154,o),
(211,208,cs),
(211,260,o),
(237,371,o),
(320,371,cs),
(369,371,o),
(398,339,o),
(398,285,cs),
(398,234,o),
(372,121,o),
(288,121,cs)
);
}
);
width = 592;
}
);
metricLeft = "te-canadian";
metricRight = "==|ke-canadian";
note = uni1472;
unicode = 5234;
},
{
glyphname = "k-canadian";
kernLeft = mwestleft;
kernRight = mwestright;
lastChange = "2023-01-13 15:57:31 +0000";
layers = (
{
layerId = "D19189FD-F605-4705-8DF9-B27AB1AA0ED8";
shapes = (
{
closed = 1;
nodes = (
(327,339,o),
(382,419,o),
(382,497,cs),
(382,558,o),
(344,601,o),
(280,601,cs),
(245,601,o),
(217,585,o),
(203,560,c),
(228,557,l),
(257,690,l),
(148,690,l),
(106,495,ls),
(89,412,o),
(125,339,o),
(228,339,cs)
);
},
{
closed = 1;
nodes = (
(214,418,o),
(200,433,o),
(200,456,cs),
(200,485,o),
(219,525,o),
(249,525,cs),
(270,525,o),
(284,510,o),
(284,486,cs),
(284,457,o),
(265,418,o),
(235,418,cs)
);
}
);
width = 376;
}
);
note = uni1483;
unicode = 5251;
},
{
glyphname = "kw-canadian";
kernLeft = mwestleft;
kernRight = mwestright;
lastChange = "2023-01-13 15:57:31 +0000";
layers = (
{
layerId = "D19189FD-F605-4705-8DF9-B27AB1AA0ED8";
shapes = (
{
closed = 1;
nodes = (
(297,339,o),
(352,383,o),
(370,469,cs),
(416,690,l),
(307,690,l),
(278,554,l),
(299,554,l),
(297,580,o),
(265,601,o),
(226,601,cs),
(142,601,o),
(92,526,o),
(92,454,cs),
(92,385,o),
(140,339,o),
(218,339,cs)
);
},
{
closed = 1;
nodes = (
(200,416,o),
(186,431,o),
(186,455,cs),
(186,484,o),
(206,523,o),
(236,523,cs),
(257,523,o),
(271,508,o),
(271,485,cs),
(271,456,o),
(252,416,o),
(222,416,cs)
);
}
);
width = 376;
}
);
metricLeft = "=|k-canadian";
metricRight = "=|k-canadian";
note = uni1484;
unicode = 5252;
},
{
glyphname = "ce-canadian";
kernLeft = celeft;
lastChange = "2023-01-13 15:57:31 +0000";
layers = (
{
anchors = (
{
name = middle_center_can;
pos = (313,360);
},
{
name = top_center_can;
pos = (383,690);
},
{
name = top_left_can;
pos = (214,690);
},
{
name = top_right_can;
pos = (545,690);
}
);
layerId = "D19189FD-F605-4705-8DF9-B27AB1AA0ED8";
shapes = (
{
closed = 1;
nodes = (
(477,0,l),
(569,430,ls),
(603,593,o),
(517,704,o),
(356,704,cs),
(211,704,o),
(121,620,o),
(86,461,cs),
(69,380,l),
(227,380,l),
(244,459,ls),
(259,532,o),
(291,565,o),
(343,565,cs),
(403,565,o),
(428,523,o),
(412,450,cs),
(317,0,l)
);
}
);
width = 585;
}
);
metricRight = "te-canadian";
note = uni1489;
unicode = 5257;
},
{
glyphname = "ci-canadian";
kernRight = ciright;
lastChange = "2023-01-13 15:57:31 +0000";
layers = (
{
anchors = (
{
name = middle_center_can;
pos = (318,360);
},
{
name = top_center_can;
pos = (399,690);
},
{
name = top_left_can;
pos = (230,690);
},
{
name = top_right_can;
pos = (561,690);
}
);
layerId = "D19189FD-F605-4705-8DF9-B27AB1AA0ED8";
shapes = (
{
closed = 1;
nodes = (
(163,0,l),
(261,459,ls),
(276,532,o),
(307,565,o),
(359,565,cs),
(419,565,o),
(444,523,o),
(430,450,cs),
(414,380,l),
(574,380,l),
(584,430,ls),
(619,593,o),
(532,704,o),
(372,704,cs),
(226,704,o),
(135,620,o),
(101,461,cs),
(3,0,l)
);
}
);
width = 586;
}
);
metricLeft = "te-canadian";
metricRight = "=|ce-canadian";
note = uni148B;
unicode = 5259;
},
{
glyphname = "co-canadian";
kernLeft = coleft;
lastChange = "2023-01-13 15:57:34 +0000";
layers = (
{
anchors = (
{
name = middle_center_can;
pos = (313,360);
},
{
name = top_center_can;
pos = (383,690);
},
{
name = top_double;
pos = (545,690);
},
{
name = top_left_can;
pos = (214,690);
},
{
name = top_right_can;
pos = (545,690);
}
);
layerId = "D19189FD-F605-4705-8DF9-B27AB1AA0ED8";
shapes = (
{
closed = 1;
nodes = (
(401,-14,o),
(492,70,o),
(526,229,cs),
(624,690,l),
(464,690,l),
(366,231,ls),
(351,157,o),
(320,125,o),
(268,125,cs),
(208,125,o),
(184,167,o),
(198,240,cs),
(213,310,l),
(54,310,l),
(43,260,ls),
(9,97,o),
(96,-14,o),
(255,-14,cs)
);
}
);
width = 585;
}
);
metricLeft = "ce-canadian";
metricRight = "te-canadian";
note = uni148D;
unicode = 5261;
},
{
glyphname = "ca-canadian";
kernRight = caright;
lastChange = "2023-01-13 15:57:34 +0000";
layers = (
{
anchors = (
{
name = middle_center_can;
pos = (317,360);
},
{
name = top_center_can;
pos = (399,690);
},
{
name = top_left_can;
pos = (230,690);
},
{
name = top_right_can;
pos = (559,690);
}
);
layerId = "D19189FD-F605-4705-8DF9-B27AB1AA0ED8";
shapes = (
{
closed = 1;
nodes = (
(415,-14,o),
(506,70,o),
(540,229,cs),
(557,310,l),
(399,310,l),
(383,231,ls),
(367,157,o),
(335,125,o),
(284,125,cs),
(224,125,o),
(199,167,o),
(214,240,cs),
(309,690,l),
(149,690,l),
(58,260,ls),
(23,97,o),
(110,-14,o),
(269,-14,cs)
);
}
);
width = 584;
}
);
metricLeft = "te-canadian";
metricRight = "=|ce-canadian";
note = uni1490;
unicode = 5264;
},
{
glyphname = "c-canadian";
kernLeft = mwestleft;
kernRight = mwestright;
lastChange = "2023-01-13 15:57:31 +0000";
layers = (
{
layerId = "D19189FD-F605-4705-8DF9-B27AB1AA0ED8";
shapes = (
{
closed = 1;
nodes = (
(309,339,o),
(365,384,o),
(382,464,cs),
(387,491,l),
(285,491,l),
(278,461,ls),
(273,436,o),
(260,423,o),
(239,423,cs),
(214,423,o),
(204,439,o),
(210,467,cs),
(257,690,l),
(148,690,l),
(105,489,ls),
(86,398,o),
(133,339,o),
(232,339,cs)
);
}
);
width = 366;
}
);
note = uni14A1;
unicode = 5281;
},
{
glyphname = "thSayisi-canadian";
lastChange = "2023-01-13 15:57:34 +0000";
layers = (
{
layerId = "D19189FD-F605-4705-8DF9-B27AB1AA0ED8";
shapes = (
{
closed = 1;
nodes = (
(286,339,o),
(341,384,o),
(357,464,cs),
(406,690,l),
(297,690,l),
(248,462,ls),
(243,436,o),
(227,423,o),
(208,423,cs),
(184,423,o),
(173,439,o),
(179,466,cs),
(185,491,l),
(83,491,l),
(79,475,ls),
(63,398,o),
(109,339,o),
(202,339,cs)
);
}
);
width = 365;
}
);
metricLeft = "=|c-canadian";
metricRight = "=|c-canadian";
note = uni14A2;
unicode = 5282;
},
{
glyphname = "me-canadian";
kernLeft = meleft;
lastChange = "2023-01-13 15:57:34 +0000";
layers = (
{
anchors = (
{
name = middle_center_can;
pos = (204,345);
},
{
name = top_center_can;
pos = (360,690);
},
{
name = top_left_can;
pos = (209,690);
},
{
name = top_right_can;
pos = (503,690);
}
);
layerId = "D19189FD-F605-4705-8DF9-B27AB1AA0ED8";
shapes = (
{
closed = 1;
nodes = (
(437,0,l),
(583,690,l),
(129,690,l),
(99,546,l),
(392,546,l),
(276,0,l)
);
}
);
width = 551;
}
);
metricRight = "nunavuth-canadian";
note = uni14A3;
unicode = 5283;
},
{
glyphname = "mi-canadian";
kernRight = miright;
lastChange = "2023-01-13 15:57:31 +0000";
layers = (
{
anchors = (
{
name = middle_center_can;
pos = (391,345);
},
{
name = top_center_can;
pos = (384,690);
},
{
name = top_left_can;
pos = (238,690);
},
{
name = top_right_can;
pos = (531,690);
}
);
layerId = "D19189FD-F605-4705-8DF9-B27AB1AA0ED8";
shapes = (
{
closed = 1;
nodes = (
(170,0,l),
(287,546,l),
(581,546,l),
(611,690,l),
(156,690,l),
(10,0,l)
);
}
);
width = 552;
}
);
metricLeft = "nunavuth-canadian";
metricRight = "=|me-canadian";
note = uni14A5;
unicode = 5285;
},
{
glyphname = "mo-canadian";
kernLeft = moleft;
lastChange = "2023-01-13 15:57:34 +0000";
layers = (
{
anchors = (
{
name = middle_center_can;
pos = (203,345);
},
{
name = top_center_can;
pos = (360,690);
},
{
name = top_double;
pos = (503,690);
},
{
name = top_left_can;
pos = (209,690);
},
{
name = top_right_can;
pos = (503,690);
}
);
layerId = "D19189FD-F605-4705-8DF9-B27AB1AA0ED8";
shapes = (
{
closed = 1;
nodes = (
(436,0,l),
(582,690,l),
(422,690,l),
(306,144,l),
(13,144,l),
(-17,0,l)
);
}
);
width = 550;
}
);
metricLeft = "me-canadian";
metricRight = "nunavuth-canadian";
note = uni14A7;
unicode = 5287;
},
{
glyphname = "ma-canadian";
kernRight = maright;
lastChange = "2023-01-13 15:57:34 +0000";
layers = (
{
anchors = (
{
name = middle_center_can;
pos = (391,345);
},
{
name = top_center_can;
pos = (384,690);
},
{
name = top_left_can;
pos = (238,690);
},
{
name = top_right_can;
pos = (530,690);
}
);
layerId = "D19189FD-F605-4705-8DF9-B27AB1AA0ED8";
shapes = (
{
closed = 1;
nodes = (
(464,0,l),
(495,144,l),
(201,144,l),
(317,690,l),
(156,690,l),
(10,0,l)
);
}
);
width = 552;
}
);
metricLeft = "nunavuth-canadian";
metricRight = "=|me-canadian";
note = uni14AA;
unicode = 5290;
},
{
glyphname = "m-canadian";
kernLeft = mwestleft;
kernRight = mwestright;
lastChange = "2023-01-13 15:57:31 +0000";
layers = (
{
layerId = "D19189FD-F605-4705-8DF9-B27AB1AA0ED8";
shapes = (
{
closed = 1;
nodes = (
(321,345,l),
(342,446,l),
(205,446,l),
(257,690,l),
(148,690,l),
(74,345,l)
);
}
);
width = 340;
}
);
metricLeft = "pWestCree-canadian";
note = uni14BB;
unicode = 5307;
},
{
glyphname = "mh-canadian";
kernLeft = mwestleft;
kernRight = mwestright;
lastChange = "2023-01-13 15:57:34 +0000";
layers = (
{
layerId = "D19189FD-F605-4705-8DF9-B27AB1AA0ED8";
shapes = (
{
closed = 1;
nodes = (
(308,345,l),
(382,690,l),
(272,690,l),
(220,446,l),
(83,446,l),
(62,345,l)
);
}
);
width = 341;
}
);
metricLeft = "=|m-canadian";
metricRight = "=|m-canadian";
note = uni14BD;
unicode = 5309;
},
{
glyphname = "mAthapascan-canadian";
lastChange = "2023-01-13 15:57:31 +0000";
layers = (
{
layerId = "D19189FD-F605-4705-8DF9-B27AB1AA0ED8";
shapes = (
{
closed = 1;
nodes = (
(330,345,l),
(348,431,l),
(198,431,l),
(195,388,l),
(310,481,ls),
(350,514,o),
(373,552,o),
(373,596,cs),
(373,654,o),
(327,696,o),
(257,696,cs),
(180,696,o),
(128,657,o),
(109,568,c),
(206,568,l),
(212,603,o),
(228,618,o),
(248,618,cs),
(268,618,o),
(278,607,o),
(278,590,cs),
(278,566,o),
(258,542,o),
(225,515,cs),
(87,402,l),
(74,345,l)
);
}
);
width = 351;
}
);
note = uni14BE;
unicode = 5310;
},
{
glyphname = "ne-canadian";
kernLeft = neleft;
lastChange = "2023-01-13 15:57:31 +0000";
layers = (
{
anchors = (
{
name = middle_center_can;
pos = (504,245);
},
{
name = top_center_can;
pos = (544,511);
},
{
name = top_left_can;
pos = (177,511);
},
{
name = top_right_can;
pos = (735,511);
}
);
layerId = "D19189FD-F605-4705-8DF9-B27AB1AA0ED8";
shapes = (
{
closed = 1;
nodes = (
(656,-14,o),
(757,130,o),
(757,275,cs),
(757,405,o),
(667,492,o),
(526,492,cs),
(93,492,l),
(63,350,l),
(352,350,l),
(346,409,l),
(276,358,o),
(250,271,o),
(250,200,cs),
(250,71,o),
(343,-14,o),
(484,-14,cs)
);
},
{
closed = 1;
nodes = (
(439,121,o),
(406,156,o),
(406,210,cs),
(406,270,o),
(444,356,o),
(516,356,cs),
(568,356,o),
(601,322,o),
(601,269,cs),
(601,207,o),
(562,121,o),
(491,121,cs)
);
}
);
width = 799;
}
);
metricRight = "=|ke-canadian";
note = uni14C0;
unicode = 5312;
},
{
glyphname = "ni-canadian";
kernRight = niright;
lastChange = "2023-01-13 15:57:34 +0000";
layers = (
{
anchors = (
{
name = middle_center_can;
pos = (294,245);
},
{
name = top_center_can;
pos = (371,511);
},
{
name = top_left_can;
pos = (176,511);
},
{
name = top_right_can;
pos = (735,511);
}
);
layerId = "D19189FD-F605-4705-8DF9-B27AB1AA0ED8";
shapes = (
{
closed = 1;
nodes = (
(444,-14,o),
(546,130,o),
(546,276,cs),
(546,312,o),
(535,346,o),
(519,369,c),
(489,350,l),
(781,350,l),
(810,492,l),
(319,492,ls),
(140,492,o),
(39,348,o),
(39,203,cs),
(39,71,o),
(131,-14,o),
(272,-14,cs)
);
},
{
closed = 1;
nodes = (
(227,121,o),
(194,156,o),
(194,210,cs),
(194,270,o),
(233,356,o),
(305,356,cs),
(357,356,o),
(389,322,o),
(389,269,cs),
(389,207,o),
(351,121,o),
(279,121,cs)
);
}
);
width = 800;
}
);
metricLeft = "ke-canadian";
metricRight = "=|ne-canadian";
note = uni14C2;
unicode = 5314;
},
{
glyphname = "no-canadian";
kernLeft = noleft;
lastChange = "2023-01-13 15:57:34 +0000";
layers = (
{
anchors = (
{
name = middle_center_can;
pos = (505,245);
},
{
name = top_center_can;
pos = (562,511);
},
{
name = top_double;
pos = (563,511);
},
{
name = top_left_can;
pos = (179,511);
},
{
name = top_right_can;
pos = (738,511);
}
);
layerId = "D19189FD-F605-4705-8DF9-B27AB1AA0ED8";
shapes = (
{
closed = 1;
nodes = (
(481,0,ls),
(661,0,o),
(762,144,o),
(762,289,cs),
(762,421,o),
(669,506,o),
(528,506,cs),
(356,506,o),
(255,361,o),
(255,216,cs),
(255,180,o),
(265,146,o),
(281,123,c),
(311,142,l),
(19,142,l),
(-11,0,l)
);
},
{
closed = 1;
nodes = (
(443,135,o),
(411,170,o),
(411,224,cs),
(411,285,o),
(449,371,o),
(521,371,cs),
(573,371,o),
(606,336,o),
(606,282,cs),
(606,221,o),
(567,135,o),
(496,135,cs)
);
}
);
width = 801;
}
);
metricLeft = "ne-canadian";
metricRight = "=|ke-canadian";
note = uni14C4;
unicode = 5316;
},
{
glyphname = "na-canadian";
kernRight = naright;
lastChange = "2023-01-13 15:57:31 +0000";
layers = (
{
anchors = (
{
name = middle_center_can;
pos = (294,245);
},
{
name = top_center_can;
pos = (350,511);
},
{
name = top_double;
pos = (528,511);
},
{
name = top_left_can;
pos = (175,511);
},
{
name = top_right_can;
pos = (734,511);
}
);
layerId = "D19189FD-F605-4705-8DF9-B27AB1AA0ED8";
shapes = (
{
closed = 1;
nodes = (
(705,0,l),
(736,142,l),
(446,142,l),
(452,83,l),
(522,133,o),
(548,221,o),
(548,292,cs),
(548,420,o),
(455,506,o),
(315,506,cs),
(143,506,o),
(42,361,o),
(42,217,cs),
(42,87,o),
(132,0,o),
(272,0,cs)
);
},
{
closed = 1;
nodes = (
(230,135,o),
(197,170,o),
(197,224,cs),
(197,285,o),
(236,371,o),
(308,371,cs),
(360,371,o),
(392,336,o),
(392,282,cs),
(392,221,o),
(354,135,o),
(282,135,cs)
);
}
);
width = 799;
}
);
metricLeft = "ke-canadian";
metricRight = "=|ne-canadian";
note = uni14C7;
unicode = 5319;
},
{
glyphname = "n-canadian";
kernLeft = mwestleft;
kernRight = mwestright;
lastChange = "2023-01-13 15:57:34 +0000";
layers = (
{
layerId = "D19189FD-F605-4705-8DF9-B27AB1AA0ED8";
shapes = (
{
closed = 1;
nodes = (
(472,435,l),
(495,536,l),
(337,536,l),
(329,471,l),
(369,493,o),
(388,544,o),
(388,583,cs),
(388,651,o),
(338,697,o),
(261,697,cs),
(173,697,o),
(113,632,o),
(113,552,cs),
(113,483,o),
(163,435,o),
(239,435,cs)
);
},
{
closed = 1;
nodes = (
(222,513,o),
(208,528,o),
(208,552,cs),
(208,581,o),
(225,619,o),
(258,619,cs),
(280,619,o),
(294,604,o),
(294,581,cs),
(294,552,o),
(276,513,o),
(244,513,cs)
);
}
);
width = 473;
}
);
metricLeft = "=|k-canadian";
note = uni14D0;
unicode = 5328;
},
{
glyphname = "nh-canadian";
kernLeft = mwestleft;
kernRight = mwestright;
lastChange = "2023-01-13 15:57:34 +0000";
layers = (
{
layerId = "D19189FD-F605-4705-8DF9-B27AB1AA0ED8";
shapes = (
{
closed = 1;
nodes = (
(343,435,ls),
(438,435,o),
(496,498,o),
(496,582,cs),
(496,649,o),
(446,697,o),
(368,697,cs),
(280,697,o),
(221,632,o),
(221,552,cs),
(221,529,o),
(229,507,o),
(243,492,c),
(260,536,l),
(102,536,l),
(81,435,l)
);
},
{
closed = 1;
nodes = (
(329,513,o),
(316,528,o),
(316,552,cs),
(316,581,o),
(332,619,o),
(365,619,cs),
(387,619,o),
(401,604,o),
(401,581,cs),
(401,552,o),
(384,513,o),
(352,513,cs)
);
}
);
width = 472;
}
);
metricLeft = "=|n-canadian";
metricRight = "=|n-canadian";
note = uni14D2;
unicode = 5330;
},
{
glyphname = "le-canadian";
kernLeft = neleft;
lastChange = "2023-01-13 15:57:31 +0000";
layers = (
{
anchors = (
{
name = middle_center_can;
pos = (504,245);
},
{
name = top_center_can;
pos = (545,511);
},
{
name = top_left_can;
pos = (177,511);
},
{
name = top_right_can;
pos = (735,511);
}
);
layerId = "D19189FD-F605-4705-8DF9-B27AB1AA0ED8";
shapes = (
{
closed = 1;
nodes = (
(435,0,ls),
(641,0,o),
(758,112,o),
(758,282,cs),
(758,410,o),
(668,492,o),
(526,492,cs),
(93,492,l),
(63,349,l),
(498,349,ls),
(562,349,o),
(597,318,o),
(597,266,cs),
(597,192,o),
(550,140,o),
(454,140,cs),
(405,140,l),
(375,0,l)
);
}
);
width = 799;
}
);
metricLeft = "ne-canadian";
metricRight = "=|ke-canadian";
note = uni14D3;
unicode = 5331;
},
{
glyphname = "li-canadian";
kernRight = niright;
lastChange = "2023-01-13 15:57:31 +0000";
layers = (
{
anchors = (
{
name = middle_center_can;
pos = (296,245);
},
{
name = top_center_can;
pos = (372,511);
},
{
name = top_left_can;
pos = (177,511);
},
{
name = top_right_can;
pos = (735,511);
}
);
layerId = "D19189FD-F605-4705-8DF9-B27AB1AA0ED8";
shapes = (
{
closed = 1;
nodes = (
(320,0,l),
(350,140,l),
(298,140,ls),
(236,140,o),
(200,172,o),
(200,224,cs),
(200,293,o),
(245,349,o),
(340,349,cs),
(780,349,l),
(810,492,l),
(355,492,ls),
(161,492,o),
(42,385,o),
(42,216,cs),
(42,90,o),
(131,0,o),
(270,0,cs)
);
}
);
width = 799;
}
);
metricLeft = "ke-canadian";
metricRight = "=|ne-canadian";
note = uni14D5;
unicode = 5333;
},
{
glyphname = "lo-canadian";
kernLeft = noleft;
lastChange = "2023-01-13 15:57:34 +0000";
layers = (
{
anchors = (
{
name = middle_center_can;
pos = (503,245);
},
{
name = top_center_can;
pos = (560,511);
},
{
name = top_double;
pos = (548,511);
},
{
name = top_left_can;
pos = (178,511);
},
{
name = top_right_can;
pos = (735,511);
}
);
layerId = "D19189FD-F605-4705-8DF9-B27AB1AA0ED8";
shapes = (
{
closed = 1;
nodes = (
(445,0,ls),
(638,0,o),
(757,106,o),
(757,275,cs),
(757,402,o),
(669,492,o),
(529,492,cs),
(479,492,l),
(450,353,l),
(501,353,ls),
(563,353,o),
(600,321,o),
(600,268,cs),
(600,199,o),
(554,143,o),
(459,143,cs),
(19,143,l),
(-11,0,l)
);
}
);
width = 799;
}
);
metricLeft = "ne-canadian";
metricRight = "=|ke-canadian";
note = uni14D7;
unicode = 5335;
},
{
glyphname = "la-canadian";
kernRight = naright;
lastChange = "2023-01-13 15:57:31 +0000";
layers = (
{
anchors = (
{
name = middle_center_can;
pos = (295,245);
},
{
name = top_center_can;
pos = (351,511);
},
{
name = top_left_can;
pos = (176,511);
},
{
name = top_right_can;
pos = (734,511);
}
);
layerId = "D19189FD-F605-4705-8DF9-B27AB1AA0ED8";
shapes = (
{
closed = 1;
nodes = (
(705,0,l),
(736,143,l),
(299,143,ls),
(236,143,o),
(201,174,o),
(201,226,cs),
(201,299,o),
(248,353,o),
(344,353,cs),
(393,353,l),
(423,492,l),
(364,492,ls),
(156,492,o),
(41,380,o),
(41,210,cs),
(41,82,o),
(129,0,o),
(272,0,cs)
);
}
);
width = 799;
}
);
metricLeft = "ke-canadian";
metricRight = "=|ne-canadian";
note = uni14DA;
unicode = 5338;
},
{
glyphname = "l-canadian";
kernLeft = mwestleft;
kernRight = mwestright;
lastChange = "2023-01-13 15:57:34 +0000";
layers = (
{
layerId = "D19189FD-F605-4705-8DF9-B27AB1AA0ED8";
shapes = (
{
closed = 1;
nodes = (
(437,345,l),
(459,446,l),
(276,446,ls),
(235,446,o),
(212,467,o),
(212,501,cs),
(212,545,o),
(237,592,o),
(301,592,cs),
(323,592,l),
(343,690,l),
(313,690,ls),
(177,690,o),
(102,603,o),
(102,489,cs),
(102,400,o),
(164,345,o),
(267,345,cs)
);
}
);
width = 456;
}
);
metricLeft = "t-canadian";
metricRight = "m-canadian";
note = uni14EA;
unicode = 5354;
},
{
glyphname = "lWestCree-canadian";
kernLeft = mwestleft;
kernRight = mwestright;
lastChange = "2023-01-13 15:57:34 +0000";
layers = (
{
layerId = "D19189FD-F605-4705-8DF9-B27AB1AA0ED8";
shapes = (
{
closed = 1;
nodes = (
(315,345,l),
(328,410,l),
(190,474,l),
(180,422,l),
(346,490,l),
(355,533,l),
(217,599,l),
(205,546,l),
(372,612,l),
(388,690,l),
(370,690,l),
(128,597,l),
(122,564,l),
(267,497,l),
(275,536,l),
(101,470,l),
(95,438,l),
(297,345,l)
);
}
);
width = 347;
}
);
metricRight = "=|";
note = uni14EB;
unicode = 5355;
},
{
glyphname = "mediall-canadian";
lastChange = "2023-01-13 15:57:31 +0000";
layers = (
{
layerId = "D19189FD-F605-4705-8DF9-B27AB1AA0ED8";
shapes = (
{
closed = 1;
nodes = (
(501,-14,l),
(524,94,l),
(219,234,l),
(203,156,l),
(569,304,l),
(582,366,l),
(276,504,l),
(261,434,l),
(626,574,l),
(653,704,l),
(615,704,l),
(112,511,l),
(100,456,l),
(408,315,l),
(419,373,l),
(53,234,l),
(42,179,l),
(463,-14,l)
);
}
);
width = 612;
}
);
metricRight = "=|";
note = uni14EC;
unicode = 5356;
},
{
glyphname = "se-canadian";
kernRight = seright;
lastChange = "2023-01-13 15:57:31 +0000";
layers = (
{
anchors = (
{
name = top_left_can;
pos = (237,690);
},
{
name = top_right_can;
pos = (509,690);
}
);
layerId = "D19189FD-F605-4705-8DF9-B27AB1AA0ED8";
shapes = (
{
closed = 1;
nodes = (
(441,0,l),
(520,366,l),
(476,366,ls),
(319,366,o),
(260,429,o),
(297,598,cs),
(317,690,l),
(156,690,l),
(134,588,ls),
(87,368,o),
(199,224,o),
(441,224,cs),
(462,224,l),
(340,273,l),
(281,0,l)
);
}
);
width = 557;
}
);
note = uni14ED;
unicode = 5357;
},
{
glyphname = "si-canadian";
kernLeft = sileft;
lastChange = "2023-01-13 15:57:31 +0000";
layers = (
{
anchors = (
{
name = top_left_can;
pos = (238,690);
},
{
name = top_right_can;
pos = (510,690);
}
);
layerId = "D19189FD-F605-4705-8DF9-B27AB1AA0ED8";
shapes = (
{
closed = 1;
nodes = (
(171,0,l),
(230,277,l),
(97,224,l),
(136,224,ls),
(370,224,o),
(512,331,o),
(566,582,cs),
(589,690,l),
(429,690,l),
(409,597,ls),
(376,446,o),
(289,366,o),
(141,366,cs),
(89,366,l),
(11,0,l)
);
}
);
width = 556;
}
);
metricLeft = "=|se-canadian";
metricRight = "=|se-canadian";
note = uni14EF;
unicode = 5359;
},
{
glyphname = "so-canadian";
kernRight = soright;
lastChange = "2023-01-13 15:57:34 +0000";
layers = (
{
anchors = (
{
name = top_double;
pos = (508,690);
},
{
name = top_left_can;
pos = (236,690);
},
{
name = top_right_can;
pos = (508,690);
}
);
layerId = "D19189FD-F605-4705-8DF9-B27AB1AA0ED8";
shapes = (
{
closed = 1;
nodes = (
(169,0,l),
(189,93,ls),
(222,243,o),
(309,324,o),
(458,324,cs),
(510,324,l),
(587,690,l),
(427,690,l),
(368,412,l),
(502,466,l),
(463,466,ls),
(229,466,o),
(86,358,o),
(32,107,cs),
(9,0,l)
);
}
);
width = 556;
}
);
metricLeft = "se-canadian";
metricRight = "se-canadian";
note = uni14F1;
unicode = 5361;
},
{
glyphname = "sa-canadian";
kernLeft = saleft;
kernRight = saright;
lastChange = "2023-01-13 15:57:31 +0000";
layers = (
{
anchors = (
{
name = top_left_can;
pos = (239,690);
},
{
name = top_right_can;
pos = (510,690);
}
);
layerId = "D19189FD-F605-4705-8DF9-B27AB1AA0ED8";
shapes = (
{
closed = 1;
nodes = (
(443,0,l),
(465,101,ls),
(513,322,o),
(401,466,o),
(158,466,cs),
(138,466,l),
(260,416,l),
(319,690,l),
(157,690,l),
(80,324,l),
(124,324,ls),
(280,324,o),
(339,261,o),
(302,92,cs),
(283,0,l)
);
}
);
width = 557;
}
);
metricLeft = "=|se-canadian";
metricRight = "=|se-canadian";
note = uni14F4;
unicode = 5364;
},
{
glyphname = "s-canadian";
kernLeft = mwestleft;
kernRight = mwestright;
lastChange = "2023-01-13 15:57:34 +0000";
layers = (
{
layerId = "D19189FD-F605-4705-8DF9-B27AB1AA0ED8";
shapes = (
{
closed = 1;
nodes = (
(329,345,l),
(340,395,ls),
(365,512,o),
(308,593,o),
(193,593,cs),
(164,593,l),
(227,551,l),
(257,690,l),
(148,690,l),
(109,507,l),
(150,507,ls),
(221,507,o),
(247,472,o),
(232,398,cs),
(220,345,l)
);
}
);
width = 362;
}
);
metricRight = "=|";
note = uni1505;
unicode = 5381;
},
{
color = 6;
glyphname = "sAthapascan-canadian";
lastChange = "2023-01-13 15:57:34 +0000";
layers = (
{
layerId = "D19189FD-F605-4705-8DF9-B27AB1AA0ED8";
shapes = (
{
closed = 1;
nodes = (
(289,177,o),
(337,229,o),
(337,293,cs),
(337,336,o),
(312,365,o),
(270,380,cs),
(212,399,ls),
(195,404,o),
(188,414,o),
(188,424,cs),
(188,444,o),
(203,457,o),
(232,457,cs),
(260,457,o),
(274,444,o),
(269,415,c),
(363,415,l),
(377,494,o),
(318,533,o),
(239,533,cs),
(143,533,o),
(94,482,o),
(94,414,cs),
(94,373,o),
(121,342,o),
(159,329,cs),
(218,310,ls),
(236,303,o),
(242,295,o),
(242,283,cs),
(242,265,o),
(227,253,o),
(199,253,cs),
(166,253,o),
(153,266,o),
(157,295,c),
(63,295,l),
(50,219,o),
(102,177,o),
(195,177,cs)
);
}
);
width = 383;
}
);
metricRight = "=|";
note = uni1506;
unicode = 5382;
},
{
glyphname = "sw-canadian";
kernLeft = mwestleft;
kernRight = mwestright;
lastChange = "2023-01-13 15:57:34 +0000";
layers = (
{
layerId = "D19189FD-F605-4705-8DF9-B27AB1AA0ED8";
shapes = (
{
closed = 1;
nodes = (
(185,345,l),
(195,396,ls),
(212,474,o),
(252,507,o),
(331,507,cs),
(365,507,l),
(404,690,l),
(295,690,l),
(265,550,l),
(347,593,l),
(304,593,ls),
(189,593,o),
(114,526,o),
(87,401,cs),
(75,345,l)
);
}
);
width = 364;
}
);
metricLeft = "=|s-canadian";
metricRight = "=|s-canadian";
note = uni1507;
unicode = 5383;
},
{
glyphname = "sBlackfoot-canadian";
lastChange = "2023-01-13 15:57:34 +0000";
layers = (
{
layerId = "D19189FD-F605-4705-8DF9-B27AB1AA0ED8";
shapes = (
{
closed = 1;
nodes = (
(333,345,l),
(354,446,l),
(265,446,ls),
(226,446,o),
(208,467,o),
(217,508,cs),
(256,690,l),
(147,690,l),
(109,511,ls),
(88,411,o),
(139,345,o),
(244,345,cs)
);
}
);
width = 352;
}
);
metricLeft = "ai-canadian";
metricRight = "m-canadian";
note = uni1508;
unicode = 5384;
},
{
glyphname = "moosecreesk-canadian";
kernLeft = mwestleft;
kernRight = mwestright;
lastChange = "2023-01-13 15:57:31 +0000";
layers = (
{
layerId = "D19189FD-F605-4705-8DF9-B27AB1AA0ED8";
shapes = (
{
closed = 1;
nodes = (
(324,217,o),
(363,332,o),
(363,427,cs),
(363,529,o),
(308,592,o),
(198,592,cs),
(183,592,l),
(229,551,l),
(259,690,l),
(150,690,l),
(111,508,l),
(158,508,ls),
(229,508,o),
(267,497,o),
(263,429,c),
(291,432,l),
(281,457,o),
(251,476,o),
(209,476,cs),
(117,476,o),
(75,399,o),
(75,334,cs),
(75,265,o),
(125,217,o),
(203,217,cs)
);
},
{
closed = 1;
nodes = (
(184,295,o),
(170,310,o),
(170,333,cs),
(170,362,o),
(189,402,o),
(219,402,cs),
(242,402,o),
(255,387,o),
(255,363,cs),
(255,333,o),
(236,295,o),
(206,295,cs)
);
}
);
width = 385;
}
);
metricRight = "=|";
note = uni1509;
unicode = 5385;
},
{
glyphname = "skwNaskapi-canadian";
kernLeft = mwestleft;
kernRight = mwestright;
lastChange = "2023-01-13 15:57:34 +0000";
layers = (
{
layerId = "D19189FD-F605-4705-8DF9-B27AB1AA0ED8";
shapes = (
{
closed = 1;
nodes = (
(307,217,o),
(355,295,o),
(355,371,cs),
(355,434,o),
(317,476,o),
(258,476,cs),
(222,476,o),
(196,461,o),
(182,435,c),
(199,437,l),
(219,489,o),
(257,508,o),
(335,508,cs),
(384,508,l),
(422,690,l),
(313,690,l),
(283,548,l),
(349,592,l),
(322,592,ls),
(152,592,o),
(80,457,o),
(80,346,cs),
(80,270,o),
(127,217,o),
(210,217,cs)
);
},
{
closed = 1;
nodes = (
(188,295,o),
(175,310,o),
(175,333,cs),
(175,362,o),
(194,402,o),
(224,402,cs),
(246,402,o),
(260,387,o),
(260,363,cs),
(260,333,o),
(241,295,o),
(211,295,cs)
);
}
);
width = 385;
}
);
metricLeft = "=|moosecreesk-canadian";
metricRight = "=|moosecreesk-canadian";
note = uni150A;
unicode = 5386;
},
{
glyphname = "swNaskapi-canadian";
lastChange = "2023-01-13 15:57:34 +0000";
layers = (
{
layerId = "D19189FD-F605-4705-8DF9-B27AB1AA0ED8";
shapes = (
{
closed = 1;
nodes = (
(316,191,l),
(324,230,ls),
(348,340,o),
(290,416,o),
(180,416,cs),
(150,416,l),
(199,376,l),
(225,499,l),
(116,499,l),
(81,333,l),
(132,333,ls),
(198,333,o),
(232,303,o),
(215,233,cs),
(207,191,l)
);
},
{
closed = 1;
nodes = (
(277,2,o),
(310,36,o),
(310,76,cs),
(310,118,o),
(277,152,o),
(236,152,cs),
(195,152,o),
(162,118,o),
(162,76,cs),
(162,36,o),
(195,2,o),
(236,2,cs)
);
},
{
closed = 1;
nodes = (
(238,538,o),
(271,572,o),
(271,613,cs),
(271,655,o),
(238,688,o),
(197,688,cs),
(156,688,o),
(123,655,o),
(123,613,cs),
(123,572,o),
(156,538,o),
(197,538,cs)
);
}
);
width = 391;
}
);
metricRight = "=|";
note = uni150B;
unicode = 5387;
},
{
glyphname = "spwaNaskapi-canadian";
lastChange = "2023-01-13 15:57:31 +0000";
layers = (
{
layerId = "D19189FD-F605-4705-8DF9-B27AB1AA0ED8";
shapes = (
{
closed = 1;
nodes = (
(551,0,l),
(580,137,l),
(242,365,l),
(229,295,l),
(661,522,l),
(696,690,l),
(659,690,l),
(54,369,l),
(43,321,l),
(513,0,l)
);
},
{
closed = 1;
nodes = (
(222,497,o),
(256,531,o),
(256,572,cs),
(256,613,o),
(222,647,o),
(182,647,cs),
(141,647,o),
(107,613,o),
(107,572,cs),
(107,530,o),
(141,497,o),
(182,497,cs)
);
},
{
closed = 1;
nodes = (
(442,614,l),
(452,661,ls),
(470,745,o),
(426,806,o),
(345,806,cs),
(317,806,l),
(376,770,l),
(399,875,l),
(292,875,l),
(261,727,l),
(286,727,ls),
(336,727,o),
(355,700,o),
(344,652,cs),
(336,614,l)
);
},
{
closed = 1;
nodes = (
(639,715,o),
(672,749,o),
(672,790,cs),
(672,831,o),
(639,865,o),
(598,865,cs),
(557,865,o),
(524,831,o),
(524,790,cs),
(524,749,o),
(557,715,o),
(598,715,cs)
);
}
);
width = 644;
}
);
metricRight = "pa-canadian";
metricWidth = "pa-canadian";
note = uni150C;
unicode = 5388;
},
{
glyphname = "she-canadian";
kernRight = caright;
lastChange = "2023-01-13 15:57:34 +0000";
layers = (
{
anchors = (
{
name = top_left_can;
pos = (378,690);
},
{
name = top_right_can;
pos = (826,690);
}
);
layerId = "D19189FD-F605-4705-8DF9-B27AB1AA0ED8";
shapes = (
{
closed = 1;
nodes = (
(713,-14,o),
(801,79,o),
(833,231,cs),
(849,310,l),
(691,310,l),
(673,232,ls),
(658,156,o),
(630,125,o),
(582,125,cs),
(527,125,o),
(510,164,o),
(522,242,cs),
(552,428,ls),
(578,605,o),
(503,704,o),
(349,704,cs),
(206,704,o),
(118,611,o),
(86,459,cs),
(70,380,l),
(228,380,l),
(244,458,ls),
(261,533,o),
(288,565,o),
(336,565,cs),
(390,565,o),
(408,526,o),
(397,448,cs),
(367,262,ls),
(341,85,o),
(415,-14,o),
(570,-14,cs)
);
}
);
width = 877;
}
);
metricRight = "=|";
note = uni1510;
unicode = 5392;
},
{
glyphname = "shi-canadian";
kernLeft = coleft;
lastChange = "2023-01-13 15:57:34 +0000";
layers = (
{
anchors = (
{
name = top_left_can;
pos = (241,690);
},
{
name = top_right_can;
pos = (688,690);
}
);
layerId = "D19189FD-F605-4705-8DF9-B27AB1AA0ED8";
shapes = (
{
closed = 1;
nodes = (
(388,-14,o),
(470,65,o),
(514,242,cs),
(565,451,ls),
(585,531,o),
(613,565,o),
(661,565,cs),
(714,565,o),
(737,528,o),
(720,448,cs),
(705,380,l),
(865,380,l),
(874,423,ls),
(909,591,o),
(827,704,o),
(668,704,cs),
(531,704,o),
(450,625,o),
(407,449,cs),
(354,239,ls),
(334,158,o),
(306,125,o),
(259,125,cs),
(206,125,o),
(183,161,o),
(200,242,cs),
(214,310,l),
(55,310,l),
(45,267,ls),
(12,98,o),
(93,-14,o),
(252,-14,cs)
);
}
);
width = 878;
}
);
metricLeft = "she-canadian";
metricRight = "she-canadian";
note = uni1511;
unicode = 5393;
},
{
glyphname = "sho-canadian";
lastChange = "2023-01-13 15:57:34 +0000";
layers = (
{
anchors = (
{
name = top_center_can;
pos = (505,511);
},
{
name = top_left_can;
pos = (334,511);
},
{
name = top_right_can;
pos = (674,511);
}
);
layerId = "D19189FD-F605-4705-8DF9-B27AB1AA0ED8";
shapes = (
{
closed = 1;
nodes = (
(327,120,l),
(236,121,o),
(187,146,o),
(187,189,cs),
(187,226,o),
(213,250,o),
(261,250,cs),
(375,250,o),
(471,102,o),
(651,102,cs),
(781,102,o),
(866,186,o),
(866,309,cs),
(866,427,o),
(765,504,o),
(598,506,c),
(571,372,l),
(662,371,o),
(710,346,o),
(710,303,cs),
(710,266,o),
(684,242,o),
(638,242,cs),
(524,242,o),
(426,389,o),
(247,389,cs),
(116,389,o),
(33,304,o),
(33,184,cs),
(33,66,o),
(132,-13,o),
(299,-14,c)
);
}
);
width = 899;
}
);
metricLeft = "ke-canadian";
metricRight = "=|ke-canadian";
note = uni1513;
unicode = 5395;
},
{
glyphname = "sha-canadian";
lastChange = "2023-01-13 15:57:31 +0000";
layers = (
{
anchors = (
{
name = top_center_can;
pos = (505,511);
},
{
name = top_left_can;
pos = (335,511);
},
{
name = top_right_can;
pos = (675,511);
}
);
layerId = "D19189FD-F605-4705-8DF9-B27AB1AA0ED8";
shapes = (
{
closed = 1;
nodes = (
(680,-22,o),
(846,46,o),
(846,218,cs),
(846,319,o),
(776,389,o),
(655,389,cs),
(495,389,o),
(360,242,o),
(267,242,cs),
(231,242,o),
(210,260,o),
(210,289,cs),
(210,350,o),
(270,375,o),
(368,372,c),
(397,506,l),
(218,514,o),
(52,446,o),
(52,273,cs),
(52,173,o),
(123,102,o),
(243,102,cs),
(403,102,o),
(537,250,o),
(631,250,cs),
(668,250,o),
(689,232,o),
(689,204,cs),
(689,142,o),
(626,117,o),
(529,120,c),
(500,-14,l)
);
}
);
width = 898;
}
);
metricLeft = "ke-canadian";
metricRight = "=|ke-canadian";
note = uni1515;
unicode = 5397;
},
{
glyphname = "sh-canadian";
kernLeft = mwestleft;
kernRight = mwestright;
lastChange = "2023-01-13 15:57:31 +0000";
layers = (
{
layerId = "D19189FD-F605-4705-8DF9-B27AB1AA0ED8";
shapes = (
{
closed = 1;
nodes = (
(577,276,o),
(700,333,o),
(700,466,cs),
(700,541,o),
(645,596,o),
(554,596,cs),
(440,596,o),
(335,492,o),
(264,492,cs),
(235,492,o),
(218,506,o),
(218,529,cs),
(218,575,o),
(268,606,o),
(352,602,c),
(372,699,l),
(233,707,o),
(107,651,o),
(107,518,cs),
(107,442,o),
(161,387,o),
(253,387,cs),
(366,387,o),
(472,492,o),
(543,492,cs),
(572,492,o),
(589,477,o),
(589,454,cs),
(589,409,o),
(541,378,o),
(457,382,c),
(437,284,l)
);
}
);
width = 703;
}
);
metricLeft = "t-canadian";
metricRight = "=|";
note = uni1525;
unicode = 5413;
},
{
glyphname = "ye-canadian";
kernLeft = yeleft;
lastChange = "2023-01-13 15:57:31 +0000";
layers = (
{
anchors = (
{
name = middle_right_can;
pos = (681,345);
},
{
name = top_left_can;
pos = (203,690);
},
{
name = top_right_can;
pos = (533,690);
}
);
layerId = "D19189FD-F605-4705-8DF9-B27AB1AA0ED8";
shapes = (
{
closed = 1;
nodes = (
(466,0,l),
(540,353,l),
(257,353,l),
(257,276,l),
(609,600,l),
(511,701,l),
(31,253,l),
(22,213,l),
(351,213,l),
(305,0,l)
);
}
);
width = 580;
}
);
note = uni1526;
unicode = 5414;
},
{
glyphname = "yi-canadian";
kernRight = yiright;
lastChange = "2023-01-13 15:57:34 +0000";
layers = (
{
anchors = (
{
name = top_left_can;
pos = (238,690);
},
{
name = top_right_can;
pos = (567,690);
}
);
layerId = "D19189FD-F605-4705-8DF9-B27AB1AA0ED8";
shapes = (
{
closed = 1;
nodes = (
(170,0,l),
(215,213,l),
(543,213,l),
(552,253,l),
(238,701,l),
(123,618,l),
(362,279,l),
(370,353,l),
(84,353,l),
(10,0,l)
);
}
);
width = 580;
}
);
metricRight = "=|ye-canadian";
metricWidth = "ye-canadian";
note = uni1528;
unicode = 5416;
},
{
glyphname = "yo-canadian";
kernLeft = yoleft;
lastChange = "2023-01-13 15:57:31 +0000";
layers = (
{
anchors = (
{
name = middle_right_can;
pos = (681,345);
},
{
name = top_double;
pos = (532,690);
},
{
name = top_left_can;
pos = (203,690);
},
{
name = top_right_can;
pos = (532,690);
}
);
layerId = "D19189FD-F605-4705-8DF9-B27AB1AA0ED8";
shapes = (
{
closed = 1;
nodes = (
(498,71,l),
(259,411,l),
(251,337,l),
(537,337,l),
(611,690,l),
(451,690,l),
(406,476,l),
(78,476,l),
(70,437,l),
(384,-12,l)
);
}
);
width = 580;
}
);
metricLeft = "ye-canadian";
metricWidth = "ye-canadian";
note = uni152A;
unicode = 5418;
},
{
glyphname = "ya-canadian";
kernRight = yaright;
lastChange = "2023-01-13 15:57:31 +0000";
layers = (
{
anchors = (
{
name = top_left_can;
pos = (239,690);
},
{
name = top_right_can;
pos = (566,690);
}
);
layerId = "D19189FD-F605-4705-8DF9-B27AB1AA0ED8";
shapes = (
{
closed = 1;
nodes = (
(591,437,l),
(600,476,l),
(271,476,l),
(318,690,l),
(156,690,l),
(82,337,l),
(365,337,l),
(365,413,l),
(14,90,l),
(111,-12,l)
);
}
);
width = 580;
}
);
metricRight = "=|ye-canadian";
metricWidth = "ye-canadian";
note = uni152D;
unicode = 5421;
},
{
glyphname = "y-canadian";
kernLeft = mwestleft;
kernRight = mwestright;
lastChange = "2023-01-13 15:57:31 +0000";
layers = (
{
layerId = "D19189FD-F605-4705-8DF9-B27AB1AA0ED8";
shapes = (
{
closed = 1;
nodes = (
(383,555,l),
(388,582,l),
(236,582,l),
(259,690,l),
(150,690,l),
(108,497,l),
(253,497,l),
(254,560,l),
(87,400,l),
(155,334,l)
);
}
);
width = 339;
}
);
note = uni153E;
unicode = 5438;
},
{
glyphname = "biblecreey-canadian";
lastChange = "2023-01-13 15:57:34 +0000";
layers = (
{
layerId = "D19189FD-F605-4705-8DF9-B27AB1AA0ED8";
shapes = (
{
closed = 1;
nodes = (
(168,345,l),
(272,582,l),
(213,582,l),
(253,345,l),
(323,345,l),
(467,582,l),
(400,582,l),
(409,345,l),
(504,345,l),
(510,370,l),
(499,690,l),
(426,690,l),
(273,435,l),
(332,435,l),
(291,690,l),
(217,690,l),
(71,370,l),
(65,345,l)
);
}
);
width = 528;
}
);
metricRight = "=|";
note = uni153F;
unicode = 5439;
},
{
glyphname = "yWestCree-canadian";
lastChange = "2023-01-13 15:57:34 +0000";
layers = (
{
layerId = "D19189FD-F605-4705-8DF9-B27AB1AA0ED8";
shapes = (
{
closed = 1;
nodes = (
(257,192,l),
(281,304,l),
(390,304,l),
(412,408,l),
(303,408,l),
(326,518,l),
(220,518,l),
(197,408,l),
(87,408,l),
(66,304,l),
(175,304,l),
(151,192,l)
);
}
);
width = 431;
}
);
metricLeft = "shorthorizontalstrokeFinal-canadian";
metricRight = "shorthorizontalstrokeFinal-canadian";
note = uni1540;
unicode = 5440;
},
{
glyphname = "re-canadian";
kernRight = niright;
lastChange = "2023-01-13 15:57:34 +0000";
layers = (
{
anchors = (
{
name = top_center_can;
pos = (363,511);
},
{
name = top_left_can;
pos = (193,511);
},
{
name = top_right_can;
pos = (781,511);
}
);
layerId = "D19189FD-F605-4705-8DF9-B27AB1AA0ED8";
shapes = (
{
closed = 1;
nodes = (
(424,-14,o),
(518,66,o),
(551,219,cs),
(579,350,l),
(829,350,l),
(859,492,l),
(452,492,l),
(395,224,ls),
(381,156,o),
(346,124,o),
(294,124,cs),
(229,124,o),
(202,162,o),
(217,236,cs),
(271,492,l),
(111,492,l),
(60,250,ls),
(26,94,o),
(117,-14,o),
(283,-14,cs)
);
}
);
width = 848;
}
);
metricRight = "=|ne-canadian";
note = uni1542;
unicode = 5442;
},
{
glyphname = "reRCree-canadian";
kernLeft = neleft;
lastChange = "2023-01-13 15:57:31 +0000";
layers = (
{
anchors = (
{
name = top_center_can;
pos = (593,511);
},
{
name = top_left_can;
pos = (176,511);
},
{
name = top_right_can;
pos = (764,511);
}
);
layerId = "D19189FD-F605-4705-8DF9-B27AB1AA0ED8";
shapes = (
{
closed = 1;
nodes = (
(656,-14,o),
(750,66,o),
(782,219,cs),
(840,492,l),
(680,492,l),
(623,224,ls),
(609,156,o),
(574,124,o),
(522,124,cs),
(456,124,o),
(429,163,o),
(444,236,cs),
(499,492,l),
(93,492,l),
(63,350,l),
(313,350,l),
(292,250,ls),
(258,94,o),
(349,-14,o),
(515,-14,cs)
);
}
);
width = 847;
}
);
metricLeft = "ne-canadian";
metricRight = "=|re-canadian";
note = uni1543;
unicode = 5443;
},
{
glyphname = "leWestCree-canadian";
kernLeft = noleft;
lastChange = "2023-01-13 15:57:34 +0000";
layers = (
{
anchors = (
{
name = top_center_can;
pos = (596,511);
},
{
name = top_left_can;
pos = (178,511);
},
{
name = top_right_can;
pos = (766,511);
}
);
layerId = "D19189FD-F605-4705-8DF9-B27AB1AA0ED8";
shapes = (
{
closed = 1;
nodes = (
(396,0,l),
(453,269,ls),
(468,335,o),
(502,368,o),
(555,368,cs),
(620,368,o),
(647,329,o),
(632,256,cs),
(577,0,l),
(737,0,l),
(788,242,ls),
(822,398,o),
(731,506,o),
(566,506,cs),
(424,506,o),
(330,426,o),
(298,272,cs),
(271,142,l),
(19,142,l),
(-11,0,l)
);
}
);
width = 848;
}
);
metricLeft = "ne-canadian";
metricRight = "=|re-canadian";
note = uni1544;
unicode = 5444;
},
{
glyphname = "ri-canadian";
kernRight = naright;
lastChange = "2023-01-13 15:57:31 +0000";
layers = (
{
anchors = (
{
name = top_center_can;
pos = (366,511);
},
{
name = top_left_can;
pos = (196,511);
},
{
name = top_right_can;
pos = (784,511);
}
);
layerId = "D19189FD-F605-4705-8DF9-B27AB1AA0ED8";
shapes = (
{
closed = 1;
nodes = (
(168,0,l),
(225,269,ls),
(239,335,o),
(274,368,o),
(327,368,cs),
(391,368,o),
(418,329,o),
(403,256,cs),
(348,0,l),
(754,0,l),
(784,142,l),
(535,142,l),
(556,242,ls),
(589,398,o),
(498,506,o),
(337,506,cs),
(191,506,o),
(99,426,o),
(66,272,cs),
(7,0,l)
);
}
);
width = 847;
}
);
metricLeft = "re-canadian";
metricRight = "=|ne-canadian";
note = uni1546;
unicode = 5446;
},
{
glyphname = "ro-canadian";
lastChange = "2023-01-13 15:57:31 +0000";
layers = (
{
anchors = (
{
name = top_center_can;
pos = (341,690);
}
);
layerId = "D19189FD-F605-4705-8DF9-B27AB1AA0ED8";
shapes = (
{
closed = 1;
nodes = (
(171,0,l),
(231,284,l),
(148,213,l),
(261,213,ls),
(458,213,o),
(559,326,o),
(559,483,cs),
(559,608,o),
(471,690,o),
(329,690,cs),
(156,690,l),
(127,548,l),
(306,548,ls),
(368,548,o),
(401,518,o),
(401,469,cs),
(401,395,o),
(354,355,o),
(270,355,cs),
(86,355,l),
(10,0,l)
);
}
);
width = 557;
}
);
metricLeft = "nunavuth-canadian";
note = uni1548;
unicode = 5448;
},
{
glyphname = "loWestCree-canadian";
lastChange = "2023-01-13 15:57:34 +0000";
layers = (
{
anchors = (
{
name = top_center_can;
pos = (344,690);
},
{
name = top_left_can;
pos = (238,690);
}
);
layerId = "D19189FD-F605-4705-8DF9-B27AB1AA0ED8";
shapes = (
{
closed = 1;
nodes = (
(215,0,ls),
(412,0,o),
(514,111,o),
(514,270,cs),
(514,393,o),
(426,476,o),
(285,476,cs),
(201,476,l),
(257,405,l),
(317,690,l),
(156,690,l),
(82,336,l),
(262,336,ls),
(324,336,o),
(356,306,o),
(356,257,cs),
(356,184,o),
(308,142,o),
(225,142,cs),
(41,142,l),
(11,0,l)
);
}
);
width = 558;
}
);
metricLeft = "nunavuth-canadian";
metricRight = "ro-canadian";
note = uni154A;
unicode = 5450;
},
{
glyphname = "ra-canadian";
lastChange = "2023-01-13 15:57:34 +0000";
layers = (
{
anchors = (
{
name = top_center_can;
pos = (405,690);
},
{
name = top_right_can;
pos = (509,690);
}
);
layerId = "D19189FD-F605-4705-8DF9-B27AB1AA0ED8";
shapes = (
{
closed = 1;
nodes = (
(442,0,l),
(517,354,l),
(338,354,ls),
(276,354,o),
(243,384,o),
(243,433,cs),
(243,506,o),
(291,548,o),
(375,548,cs),
(558,548,l),
(588,690,l),
(385,690,ls),
(187,690,o),
(86,579,o),
(86,420,cs),
(86,297,o),
(173,213,o),
(315,213,cs),
(398,213,l),
(342,285,l),
(282,0,l)
);
}
);
width = 556;
}
);
metricLeft = "=|ro-canadian";
metricRight = "nunavuth-canadian";
note = uni154B;
unicode = 5451;
},
{
glyphname = "laWestCree-canadian";
lastChange = "2023-01-13 15:57:34 +0000";
layers = (
{
anchors = (
{
name = top_center_can;
pos = (509,690);
}
);
layerId = "D19189FD-F605-4705-8DF9-B27AB1AA0ED8";
shapes = (
{
closed = 1;
nodes = (
(442,0,l),
(472,142,l),
(293,142,ls),
(231,142,o),
(197,172,o),
(197,220,cs),
(197,295,o),
(245,335,o),
(328,335,cs),
(513,335,l),
(588,690,l),
(428,690,l),
(368,406,l),
(451,476,l),
(338,476,ls),
(141,476,o),
(40,364,o),
(40,207,cs),
(40,82,o),
(128,0,o),
(270,0,cs)
);
}
);
width = 556;
}
);
metricLeft = "=|ro-canadian";
metricRight = "nunavuth-canadian";
note = uni154D;
unicode = 5453;
},
{
glyphname = "r-canadian";
kernLeft = mwestleft;
kernRight = mwestright;
lastChange = "2023-01-13 15:57:31 +0000";
layers = (
{
layerId = "D19189FD-F605-4705-8DF9-B27AB1AA0ED8";
shapes = (
{
closed = 1;
nodes = (
(302,345,l),
(342,531,l),
(251,531,ls),
(226,531,o),
(214,544,o),
(214,562,cs),
(214,591,o),
(234,605,o),
(267,605,cs),
(357,605,l),
(375,690,l),
(285,690,ls),
(185,690,o),
(113,648,o),
(113,554,cs),
(113,492,o),
(157,448,o),
(232,448,cs),
(271,448,l),
(222,482,l),
(193,345,l)
);
}
);
width = 334;
}
);
metricLeft = "=|k-canadian";
note = uni1550;
unicode = 5456;
},
{
glyphname = "rWestCree-canadian";
kernLeft = mwestleft;
kernRight = mwestright;
lastChange = "2023-01-13 15:57:34 +0000";
layers = (
{
layerId = "D19189FD-F605-4705-8DF9-B27AB1AA0ED8";
shapes = (
{
closed = 1;
nodes = (
(148,690,l),
(134,625,l),
(272,560,l),
(283,612,l),
(117,545,l),
(108,501,l),
(245,436,l),
(258,489,l),
(91,422,l),
(74,345,l),
(93,345,l),
(334,438,l),
(341,470,l),
(196,537,l),
(187,498,l),
(361,564,l),
(368,597,l),
(166,690,l)
);
}
);
width = 346;
}
);
metricLeft = "=|lWestCree-canadian";
metricRight = "=|lWestCree-canadian";
note = uni1551;
unicode = 5457;
},
{
glyphname = "rMedial-canadian";
lastChange = "2023-01-13 15:57:34 +0000";
layers = (
{
layerId = "D19189FD-F605-4705-8DF9-B27AB1AA0ED8";
shapes = (
{
closed = 1;
nodes = (
(39,-14,l),
(542,179,l),
(553,234,l),
(246,375,l),
(235,317,l),
(601,456,l),
(612,511,l),
(191,704,l),
(153,704,l),
(130,596,l),
(435,456,l),
(451,533,l),
(85,385,l),
(72,324,l),
(378,185,l),
(393,256,l),
(28,116,l),
(1,-14,l)
);
}
);
width = 611;
}
);
metricLeft = "mediall-canadian";
metricRight = "mediall-canadian";
note = uni1552;
unicode = 5458;
},
{
glyphname = "fe-canadian";
kernLeft = ecanleft;
kernRight = ecanright;
lastChange = "2023-01-13 15:57:34 +0000";
layers = (
{
layerId = "D19189FD-F605-4705-8DF9-B27AB1AA0ED8";
shapes = (
{
closed = 1;
nodes = (
(348,0,l),
(843,651,l),
(851,690,l),
(706,690,l),
(336,185,l),
(361,185,l),
(298,349,l),
(192,357,l),
(216,327,o),
(246,312,o),
(291,312,cs),
(414,312,o),
(495,432,o),
(495,544,cs),
(495,638,o),
(436,704,o),
(329,704,cs),
(195,704,o),
(122,582,o),
(122,467,cs),
(122,425,o),
(131,386,o),
(151,343,cs),
(300,0,l)
);
},
{
closed = 1;
nodes = (
(267,418,o),
(249,440,o),
(249,475,cs),
(249,512,o),
(270,588,o),
(322,588,cs),
(351,588,o),
(368,568,o),
(368,533,cs),
(368,495,o),
(349,418,o),
(296,418,cs)
);
}
);
width = 782;
}
);
metricRight = "e-canadian";
note = uni1553;
unicode = 5459;
},
{
glyphname = "fi-canadian";
kernLeft = icanleft;
kernRight = icanright;
lastChange = "2023-01-13 15:57:34 +0000";
layers = (
{
anchors = (
{
name = top_center_can;
pos = (465,690);
},
{
name = top_left_can;
pos = (236,690);
},
{
name = top_right_can;
pos = (713,690);
}
);
layerId = "D19189FD-F605-4705-8DF9-B27AB1AA0ED8";
shapes = (
{
closed = 1;
nodes = (
(362,-14,o),
(425,112,o),
(425,214,cs),
(425,311,o),
(365,384,o),
(282,384,cs),
(248,384,o),
(217,370,o),
(188,344,c),
(311,343,l),
(447,505,l),
(408,506,l),
(582,0,l),
(705,0,l),
(713,39,l),
(488,690,l),
(441,690,l),
(143,355,ls),
(88,291,o),
(54,223,o),
(54,150,cs),
(54,54,o),
(119,-14,o),
(219,-14,cs)
);
},
{
closed = 1;
nodes = (
(198,101,o),
(181,122,o),
(181,157,cs),
(181,195,o),
(201,271,o),
(253,271,cs),
(282,271,o),
(299,250,o),
(299,215,cs),
(299,177,o),
(279,101,o),
(227,101,cs)
);
}
);
width = 782;
}
);
metricLeft = "fe-canadian";
metricRight = "e-canadian";
note = uni1555;
unicode = 5461;
},
{
glyphname = "fo-canadian";
kernLeft = ocanleft;
kernRight = ocanright;
lastChange = "2023-01-13 15:57:31 +0000";
layers = (
{
anchors = (
{
name = top_center_can;
pos = (322,690);
}
);
layerId = "D19189FD-F605-4705-8DF9-B27AB1AA0ED8";
shapes = (
{
closed = 1;
nodes = (
(63,0,l),
(664,321,l),
(673,368,l),
(441,632,ls),
(398,681,o),
(357,704,o),
(299,704,cs),
(177,704,o),
(102,595,o),
(97,485,cs),
(89,379,o),
(151,305,o),
(249,305,cs),
(368,305,o),
(444,399,o),
(450,514,cs),
(452,537,o),
(451,560,o),
(448,580,c),
(384,505,l),
(514,357,l),
(524,386,l),
(55,141,l),
(25,0,l)
);
},
{
closed = 1;
nodes = (
(237,418,o),
(220,444,o),
(224,490,cs),
(227,533,o),
(246,589,o),
(294,589,cs),
(326,589,o),
(342,563,o),
(338,518,cs),
(335,474,o),
(317,418,o),
(269,418,cs)
);
}
);
width = 675;
}
);
metricRight = "o-canadian";
note = uni1557;
unicode = 5463;
},
{
glyphname = "fa-canadian";
kernLeft = acanleft;
kernRight = acanright;
lastChange = "2023-01-13 15:57:34 +0000";
layers = (
{
anchors = (
{
name = top_center_can;
pos = (540,690);
}
);
layerId = "D19189FD-F605-4705-8DF9-B27AB1AA0ED8";
shapes = (
{
closed = 1;
nodes = (
(544,0,l),
(569,121,l),
(213,365,l),
(208,336,l),
(396,489,l),
(375,609,l),
(349,570,o),
(327,509,o),
(327,462,cs),
(327,370,o),
(393,301,o),
(496,301,cs),
(616,301,o),
(690,429,o),
(690,535,cs),
(690,635,o),
(626,704,o),
(526,704,cs),
(476,704,o),
(433,686,o),
(387,647,cs),
(54,368,l),
(44,321,l),
(505,0,l)
);
},
{
closed = 1;
nodes = (
(463,417,o),
(445,439,o),
(445,473,cs),
(445,511,o),
(466,588,o),
(518,588,cs),
(547,588,o),
(564,567,o),
(564,532,cs),
(564,494,o),
(545,417,o),
(493,417,cs)
);
}
);
width = 677;
}
);
metricRight = "=|fo-canadian";
note = uni1559;
unicode = 5465;
},
{
glyphname = "f-canadian";
kernLeft = mwestleft;
kernRight = mwestright;
lastChange = "2023-01-13 15:57:31 +0000";
layers = (
{
layerId = "D19189FD-F605-4705-8DF9-B27AB1AA0ED8";
shapes = (
{
closed = 1;
nodes = (
(352,345,l),
(366,414,l),
(187,534,l),
(184,510,l),
(277,592,l),
(269,651,l),
(256,635,o),
(243,602,o),
(243,576,cs),
(243,530,o),
(276,495,o),
(323,495,cs),
(384,495,o),
(421,551,o),
(421,612,cs),
(421,665,o),
(390,696,o),
(344,696,cs),
(318,696,o),
(293,687,o),
(267,665,cs),
(104,527,l),
(99,503,l),
(332,345,l)
);
},
{
closed = 1;
nodes = (
(311,553,o),
(302,563,o),
(302,580,cs),
(302,606,o),
(317,638,o),
(338,638,cs),
(352,638,o),
(360,627,o),
(360,609,cs),
(360,587,o),
(348,553,o),
(325,553,cs)
);
}
);
width = 394;
}
);
note = uni155D;
unicode = 5469;
},
{
glyphname = "the-canadian";
lastChange = "2023-01-13 15:57:34 +0000";
layers = (
{
anchors = (
{
name = middle_right_can;
pos = (846,345);
},
{
name = top_center_can;
pos = (463,690);
},
{
name = top_left_can;
pos = (229,690);
},
{
name = top_right_can;
pos = (694,690);
}
);
layerId = "D19189FD-F605-4705-8DF9-B27AB1AA0ED8";
shapes = (
{
closed = 1;
nodes = (
(537,-14,o),
(643,80,o),
(687,285,cs),
(773,690,l),
(612,690,l),
(526,286,ls),
(503,178,o),
(450,128,o),
(349,128,cs),
(229,128,o),
(204,198,o),
(228,303,cs),
(250,400,l),
(178,354,l),
(195,316,o),
(230,292,o),
(277,292,cs),
(403,292,o),
(472,404,o),
(480,523,cs),
(488,633,o),
(428,704,o),
(320,704,cs),
(207,704,o),
(137,629,o),
(108,494,cs),
(75,336,ls),
(33,134,o),
(113,-14,o),
(345,-14,cs)
);
},
{
closed = 1;
nodes = (
(252,408,o),
(236,429,o),
(236,466,cs),
(236,504,o),
(256,588,o),
(309,588,cs),
(337,588,o),
(354,567,o),
(354,531,cs),
(354,492,o),
(334,408,o),
(281,408,cs)
);
}
);
width = 734;
}
);
metricLeft = "te-canadian";
metricRight = "te-canadian";
note = uni155E;
unicode = 5470;
},
{
glyphname = "theNCree-canadian";
lastChange = "2023-01-13 15:57:34 +0000";
layers = (
{
layerId = "D19189FD-F605-4705-8DF9-B27AB1AA0ED8";
shapes = (
{
closed = 1;
nodes = (
(538,-14,o),
(644,85,o),
(690,300,cs),
(724,455,ls),
(753,594,o),
(703,704,o),
(571,704,cs),
(435,704,o),
(362,578,o),
(362,456,cs),
(362,362,o),
(413,292,o),
(506,292,cs),
(545,292,o),
(579,306,o),
(604,334,c),
(551,391,l),
(527,282,ls),
(504,174,o),
(451,127,o),
(356,127,cs),
(235,127,o),
(207,202,o),
(230,309,cs),
(310,690,l),
(150,690,l),
(71,319,ls),
(27,114,o),
(132,-14,o),
(344,-14,cs)
);
},
{
closed = 1;
nodes = (
(506,408,o),
(491,429,o),
(491,466,cs),
(491,504,o),
(510,588,o),
(563,588,cs),
(592,588,o),
(608,567,o),
(608,531,cs),
(608,492,o),
(588,408,o),
(535,408,cs)
);
}
);
width = 735;
}
);
metricLeft = "te-canadian";
metricRight = "te-canadian";
note = uni155F;
unicode = 5471;
},
{
glyphname = "thi-canadian";
lastChange = "2023-01-13 15:57:31 +0000";
layers = (
{
anchors = (
{
name = top_center_can;
pos = (458,690);
}
);
layerId = "D19189FD-F605-4705-8DF9-B27AB1AA0ED8";
shapes = (
{
closed = 1;
nodes = (
(341,-14,o),
(414,112,o),
(414,234,cs),
(414,327,o),
(362,398,o),
(270,398,cs),
(232,398,o),
(198,384,o),
(172,355,c),
(225,298,l),
(249,408,ls),
(271,516,o),
(326,563,o),
(420,563,cs),
(542,563,o),
(569,488,o),
(546,381,cs),
(466,0,l),
(626,0,l),
(705,371,ls),
(749,576,o),
(644,704,o),
(433,704,cs),
(239,704,o),
(132,605,o),
(87,389,cs),
(53,235,ls),
(23,96,o),
(73,-14,o),
(206,-14,cs)
);
},
{
closed = 1;
nodes = (
(185,101,o),
(169,123,o),
(169,158,cs),
(169,198,o),
(188,282,o),
(242,282,cs),
(270,282,o),
(286,261,o),
(286,224,cs),
(286,185,o),
(267,101,o),
(213,101,cs)
);
}
);
width = 733;
}
);
metricLeft = "te-canadian";
metricRight = "te-canadian";
note = uni1560;
unicode = 5472;
},
{
glyphname = "thiNCree-canadian";
lastChange = "2023-01-13 15:57:34 +0000";
layers = (
{
anchors = (
{
name = top_center_can;
pos = (458,690);
}
);
layerId = "D19189FD-F605-4705-8DF9-B27AB1AA0ED8";
shapes = (
{
closed = 1;
nodes = (
(570,-14,o),
(639,61,o),
(668,196,cs),
(701,354,ls),
(745,555,o),
(664,704,o),
(432,704,cs),
(240,704,o),
(132,610,o),
(89,405,cs),
(3,0,l),
(163,0,l),
(249,404,ls),
(273,512,o),
(326,562,o),
(427,562,cs),
(548,562,o),
(573,492,o),
(549,386,cs),
(526,290,l),
(598,336,l),
(581,374,o),
(547,398,o),
(499,398,cs),
(374,398,o),
(304,286,o),
(297,167,cs),
(289,57,o),
(349,-14,o),
(457,-14,cs)
);
},
{
closed = 1;
nodes = (
(439,101,o),
(423,123,o),
(423,158,cs),
(423,198,o),
(442,282,o),
(496,282,cs),
(525,282,o),
(541,261,o),
(541,224,cs),
(541,185,o),
(521,101,o),
(468,101,cs)
);
}
);
width = 734;
}
);
metricLeft = "te-canadian";
metricRight = "te-canadian";
note = uni1561;
unicode = 5473;
},
{
glyphname = "tho-canadian";
lastChange = "2023-01-13 15:57:31 +0000";
layers = (
{
anchors = (
{
name = top_center_can;
pos = (397,690);
}
);
layerId = "D19189FD-F605-4705-8DF9-B27AB1AA0ED8";
shapes = (
{
closed = 1;
nodes = (
(244,0,ls),
(521,0,o),
(652,196,o),
(652,412,cs),
(652,590,o),
(535,704,o),
(371,704,cs),
(204,704,o),
(96,587,o),
(96,438,cs),
(96,337,o),
(159,270,o),
(259,270,cs),
(385,270,o),
(455,386,o),
(455,494,cs),
(455,567,o),
(416,622,o),
(341,634,c),
(315,588,l),
(327,592,o),
(343,596,o),
(360,596,cs),
(431,595,o),
(497,531,o),
(497,417,cs),
(497,303,o),
(451,144,o),
(258,144,cs),
(61,144,l),
(31,0,l)
);
},
{
closed = 1;
nodes = (
(239,384,o),
(223,405,o),
(223,440,cs),
(223,479,o),
(242,572,o),
(299,572,cs),
(328,572,o),
(343,552,o),
(343,517,cs),
(343,480,o),
(324,384,o),
(267,384,cs)
);
}
);
width = 677;
}
);
metricRight = "to-canadian";
note = uni1564;
unicode = 5476;
},
{
glyphname = "tha-canadian";
lastChange = "2023-01-13 15:57:34 +0000";
layers = (
{
anchors = (
{
name = top_center_can;
pos = (471,690);
}
);
layerId = "D19189FD-F605-4705-8DF9-B27AB1AA0ED8";
shapes = (
{
closed = 1;
nodes = (
(540,0,l),
(570,144,l),
(382,144,ls),
(280,144,o),
(224,199,o),
(224,298,cs),
(224,398,o),
(285,589,o),
(440,589,cs),
(464,589,o),
(488,584,o),
(506,577,c),
(487,630,l),
(373,629,o),
(311,521,o),
(311,423,cs),
(311,332,o),
(370,270,o),
(468,270,cs),
(596,270,o),
(676,378,o),
(676,501,cs),
(676,624,o),
(584,704,o),
(442,704,cs),
(183,704,o),
(65,459,o),
(65,274,cs),
(65,107,o),
(170,0,o),
(351,0,cs)
);
},
{
closed = 1;
nodes = (
(446,384,o),
(431,405,o),
(431,440,cs),
(431,479,o),
(450,572,o),
(507,572,cs),
(536,572,o),
(551,552,o),
(551,517,cs),
(551,480,o),
(531,384,o),
(474,384,cs)
);
}
);
width = 677;
}
);
metricLeft = "=|theCarrier-canadian";
metricRight = "=|tho-canadian";
note = uni1566;
unicode = 5478;
},
{
glyphname = "th-canadian";
kernLeft = mwestleft;
kernRight = mwestright;
lastChange = "2023-01-13 15:57:31 +0000";
layers = (
{
layerId = "D19189FD-F605-4705-8DF9-B27AB1AA0ED8";
shapes = (
{
closed = 1;
nodes = (
(338,345,l),
(356,432,l),
(272,432,ls),
(222,432,o),
(196,454,o),
(196,497,cs),
(196,552,o),
(230,632,o),
(305,632,cs),
(313,632,o),
(330,629,o),
(335,628,c),
(316,654,l),
(251,654,o),
(230,596,o),
(230,560,cs),
(230,510,o),
(260,478,o),
(307,478,cs),
(375,478,o),
(407,547,o),
(407,599,cs),
(407,657,o),
(365,696,o),
(295,696,cs),
(167,696,o),
(101,579,o),
(101,485,cs),
(101,400,o),
(159,345,o),
(253,345,cs)
);
},
{
closed = 1;
nodes = (
(295,535,o),
(287,545,o),
(287,562,cs),
(287,586,o),
(299,620,o),
(322,620,cs),
(336,620,o),
(344,611,o),
(344,593,cs),
(344,569,o),
(332,535,o),
(309,535,cs)
);
}
);
width = 383;
}
);
metricLeft = "t-canadian";
note = uni156A;
unicode = 5482;
},
{
glyphname = "tthe-canadian";
lastChange = "2023-01-13 15:57:31 +0000";
layers = (
{
anchors = (
{
name = middle_right_can;
pos = (837,345);
},
{
name = top_center_can;
pos = (457,690);
},
{
name = top_left_can;
pos = (231,690);
},
{
name = top_right_can;
pos = (684,690);
}
);
layerId = "D19189FD-F605-4705-8DF9-B27AB1AA0ED8";
shapes = (
{
closed = 1;
nodes = (
(528,-14,o),
(635,81,o),
(678,286,cs),
(764,690,l),
(608,690,l),
(522,289,ls),
(498,180,o),
(444,130,o),
(353,130,cs),
(242,130,o),
(200,191,o),
(225,307,cs),
(306,690,l),
(150,690,l),
(71,319,ls),
(27,111,o),
(134,-14,o),
(339,-14,cs)
);
},
{
closed = 1;
nodes = (
(455,380,l),
(522,690,l),
(392,690,l),
(327,380,l)
);
}
);
width = 725;
}
);
metricLeft = "te-canadian";
metricRight = "te-canadian";
note = uni156B;
unicode = 5483;
},
{
glyphname = "tthi-canadian";
lastChange = "2023-01-13 15:57:34 +0000";
layers = (
{
layerId = "D19189FD-F605-4705-8DF9-B27AB1AA0ED8";
shapes = (
{
closed = 1;
nodes = (
(159,0,l),
(245,401,ls),
(269,510,o),
(323,559,o),
(414,559,cs),
(525,559,o),
(567,498,o),
(542,383,cs),
(461,0,l),
(617,0,l),
(696,371,ls),
(740,579,o),
(633,704,o),
(428,704,cs),
(239,704,o),
(132,609,o),
(89,404,cs),
(3,0,l)
);
},
{
closed = 1;
nodes = (
(375,0,l),
(440,310,l),
(312,310,l),
(245,0,l)
);
}
);
width = 724;
}
);
metricLeft = "te-canadian";
metricRight = "te-canadian";
note = uni156C;
unicode = 5484;
},
{
glyphname = "ttho-canadian";
lastChange = "2023-01-13 15:57:31 +0000";
layers = (
{
anchors = (
{
name = top_center_can;
pos = (384,690);
},
{
name = top_left_can;
pos = (217,690);
},
{
name = top_right_can;
pos = (598,690);
}
);
layerId = "D19189FD-F605-4705-8DF9-B27AB1AA0ED8";
shapes = (
{
closed = 1;
nodes = (
(184,0,ls),
(515,0,o),
(601,242,o),
(601,412,cs),
(601,584,o),
(490,690,o),
(297,690,cs),
(151,690,l),
(121,546,l),
(272,546,ls),
(384,546,o),
(440,493,o),
(440,396,cs),
(440,283,o),
(384,144,o),
(198,144,cs),
(35,144,l),
(5,0,l)
);
},
{
closed = 1;
nodes = (
(302,280,l),
(330,412,l),
(92,412,l),
(64,280,l)
);
}
);
width = 626;
}
);
metricRight = "to-canadian";
note = uni156D;
unicode = 5485;
},
{
glyphname = "ttha-canadian";
lastChange = "2023-01-13 15:57:34 +0000";
layers = (
{
anchors = (
{
name = top_center_can;
pos = (403,690);
},
{
name = top_left_can;
pos = (221,690);
},
{
name = top_right_can;
pos = (581,690);
}
);
layerId = "D19189FD-F605-4705-8DF9-B27AB1AA0ED8";
shapes = (
{
closed = 1;
nodes = (
(516,0,l),
(546,144,l),
(394,144,ls),
(283,144,o),
(227,197,o),
(227,294,cs),
(227,412,o),
(289,546,o),
(468,546,cs),
(632,546,l),
(663,690,l),
(483,690,ls),
(156,690,o),
(67,452,o),
(67,278,cs),
(67,105,o),
(177,0,o),
(370,0,cs)
);
},
{
closed = 1;
nodes = (
(575,280,l),
(602,412,l),
(363,412,l),
(335,280,l)
);
}
);
width = 626;
}
);
metricLeft = "=|to-canadian";
metricRight = "=|ttho-canadian";
note = uni156E;
unicode = 5486;
},
{
glyphname = "tth-canadian";
lastChange = "2023-01-13 15:57:31 +0000";
layers = (
{
layerId = "D19189FD-F605-4705-8DF9-B27AB1AA0ED8";
shapes = (
{
closed = 1;
nodes = (
(281,459,l),
(238,460,l),
(301,332,l),
(385,375,l),
(318,509,l),
(293,468,l),
(452,522,l),
(425,606,l),
(281,556,l),
(313,531,l),
(347,690,l),
(254,690,l),
(220,531,l),
(260,554,l),
(123,606,l),
(91,522,l),
(216,474,l),
(212,518,l),
(97,394,l),
(163,332,l)
);
},
{
closed = 1;
nodes = (
(698,459,l),
(654,460,l),
(719,332,l),
(803,375,l),
(734,509,l),
(710,468,l),
(869,522,l),
(841,606,l),
(697,556,l),
(729,531,l),
(763,690,l),
(670,690,l),
(637,531,l),
(676,554,l),
(540,606,l),
(507,522,l),
(633,474,l),
(628,518,l),
(514,394,l),
(580,332,l)
);
}
);
width = 842;
}
);
metricRight = "=|";
note = uni156F;
unicode = 5487;
},
{
glyphname = "tye-canadian";
lastChange = "2023-01-13 15:57:31 +0000";
layers = (
{
layerId = "D19189FD-F605-4705-8DF9-B27AB1AA0ED8";
shapes = (
{
closed = 1;
nodes = (
(530,-14,o),
(635,82,o),
(679,290,cs),
(764,690,l),
(609,690,l),
(527,305,ls),
(501,185,o),
(446,130,o),
(349,130,cs),
(242,130,o),
(199,191,o),
(224,307,cs),
(305,690,l),
(150,690,l),
(71,319,ls),
(27,113,o),
(133,-14,o),
(343,-14,cs)
);
},
{
closed = 1;
nodes = (
(471,410,o),
(511,445,o),
(526,514,cs),
(563,690,l),
(490,690,l),
(455,526,ls),
(449,498,o),
(437,486,o),
(414,486,cs),
(391,486,o),
(384,499,o),
(389,527,cs),
(423,690,l),
(350,690,l),
(315,526,ls),
(300,456,o),
(338,410,o),
(410,410,cs)
);
}
);
width = 725;
}
);
metricLeft = "te-canadian";
metricRight = "te-canadian";
note = uni1570;
unicode = 5488;
},
{
glyphname = "tyi-canadian";
lastChange = "2023-01-13 15:57:34 +0000";
layers = (
{
layerId = "D19189FD-F605-4705-8DF9-B27AB1AA0ED8";
shapes = (
{
closed = 1;
nodes = (
(158,0,l),
(240,384,ls),
(266,505,o),
(321,559,o),
(418,559,cs),
(525,559,o),
(568,498,o),
(543,383,cs),
(462,0,l),
(617,0,l),
(696,371,ls),
(740,577,o),
(634,704,o),
(424,704,cs),
(237,704,o),
(132,608,o),
(88,400,cs),
(3,0,l)
);
},
{
closed = 1;
nodes = (
(277,0,l),
(312,164,ls),
(318,191,o),
(330,204,o),
(353,204,cs),
(376,204,o),
(384,190,o),
(378,162,cs),
(344,0,l),
(417,0,l),
(452,163,ls),
(467,234,o),
(429,280,o),
(357,280,cs),
(296,280,o),
(256,244,o),
(242,176,cs),
(204,0,l)
);
}
);
width = 724;
}
);
metricLeft = "te-canadian";
metricRight = "te-canadian";
note = uni1571;
unicode = 5489;
},
{
glyphname = "tyo-canadian";
lastChange = "2023-01-13 15:57:31 +0000";
layers = (
{
layerId = "D19189FD-F605-4705-8DF9-B27AB1AA0ED8";
shapes = (
{
closed = 1;
nodes = (
(189,0,ls),
(520,0,o),
(607,242,o),
(607,412,cs),
(607,584,o),
(496,690,o),
(301,690,cs),
(156,690,l),
(127,549,l),
(279,549,ls),
(388,549,o),
(445,493,o),
(445,396,cs),
(445,261,o),
(368,141,o),
(203,141,cs),
(41,141,l),
(11,0,l)
);
},
{
closed = 1;
nodes = (
(150,218,ls),
(251,218,o),
(307,272,o),
(311,355,cs),
(316,426,o),
(272,471,o),
(196,471,cs),
(110,471,l),
(94,393,l),
(178,393,ls),
(210,393,o),
(226,379,o),
(224,352,cs),
(222,318,o),
(201,297,o),
(157,297,cs),
(73,297,l),
(57,218,l)
);
}
);
width = 632;
}
);
metricLeft = "nunavuth-canadian";
metricRight = "theCarrier-canadian";
note = uni1572;
unicode = 5490;
},
{
glyphname = "tya-canadian";
lastChange = "2023-01-13 15:57:34 +0000";
layers = (
{
layerId = "D19189FD-F605-4705-8DF9-B27AB1AA0ED8";
shapes = (
{
closed = 1;
nodes = (
(516,0,l),
(546,141,l),
(394,141,ls),
(284,141,o),
(227,197,o),
(227,294,cs),
(227,429,o),
(304,549,o),
(470,549,cs),
(632,549,l),
(662,690,l),
(484,690,ls),
(153,690,o),
(67,447,o),
(67,278,cs),
(67,105,o),
(178,0,o),
(371,0,cs)
);
},
{
closed = 1;
nodes = (
(562,218,l),
(579,297,l),
(495,297,ls),
(464,297,o),
(447,311,o),
(449,338,cs),
(450,372,o),
(472,393,o),
(516,393,cs),
(599,393,l),
(615,471,l),
(523,471,ls),
(422,471,o),
(366,417,o),
(361,334,cs),
(356,264,o),
(400,218,o),
(477,218,cs)
);
}
);
width = 630;
}
);
metricLeft = "=|theCarrier-canadian";
metricRight = "nunavuth-canadian";
note = uni1573;
unicode = 5491;
},
{
glyphname = "heNunavik-canadian";
lastChange = "2023-01-13 15:57:31 +0000";
layers = (
{
layerId = "D19189FD-F605-4705-8DF9-B27AB1AA0ED8";
shapes = (
{
closed = 1;
nodes = (
(468,0,l),
(753,199,l),
(671,316,l),
(460,169,l),
(511,128,l),
(570,400,ls),
(602,551,o),
(550,704,o),
(361,704,cs),
(180,704,o),
(80,550,o),
(80,392,cs),
(80,268,o),
(156,184,o),
(273,184,cs),
(330,184,o),
(379,206,o),
(400,245,c),
(378,249,l),
(325,0,l)
);
},
{
closed = 1;
nodes = (
(266,319,o),
(237,351,o),
(237,405,cs),
(237,457,o),
(263,569,o),
(346,569,cs),
(395,569,o),
(424,536,o),
(424,482,cs),
(424,430,o),
(398,319,o),
(314,319,cs)
);
}
);
width = 781;
}
);
metricLeft = "ke-canadian";
note = uni1574;
unicode = 5492;
},
{
glyphname = "hiNunavik-canadian";
lastChange = "2023-01-13 15:57:34 +0000";
layers = (
{
anchors = (
{
name = top_center_can;
pos = (586,690);
}
);
layerId = "D19189FD-F605-4705-8DF9-B27AB1AA0ED8";
shapes = (
{
closed = 1;
nodes = (
(351,0,l),
(411,279,l),
(391,257,l),
(394,217,o),
(454,184,o),
(525,184,cs),
(700,184,o),
(782,353,o),
(782,486,cs),
(782,620,o),
(697,704,o),
(562,704,cs),
(420,704,o),
(322,617,o),
(289,464,cs),
(217,126,l),
(275,140,l),
(109,302,l),
(8,199,l),
(209,0,l)
);
},
{
closed = 1;
nodes = (
(468,319,o),
(440,351,o),
(440,405,cs),
(440,457,o),
(468,569,o),
(551,569,cs),
(599,569,o),
(628,536,o),
(628,482,cs),
(628,431,o),
(602,319,o),
(518,319,cs)
);
}
);
width = 780;
}
);
metricLeft = "=|heNunavik-canadian";
metricRight = "=|ke-canadian";
note = uni1575;
unicode = 5493;
},
{
glyphname = "hoNunavik-canadian";
lastChange = "2023-01-13 15:57:31 +0000";
layers = (
{
anchors = (
{
name = top_center_can;
pos = (383,690);
},
{
name = top_right_can;
pos = (553,690);
}
);
layerId = "D19189FD-F605-4705-8DF9-B27AB1AA0ED8";
shapes = (
{
closed = 1;
nodes = (
(402,-14,o),
(501,72,o),
(534,226,cs),
(606,564,l),
(547,550,l),
(713,387,l),
(815,491,l),
(613,690,l),
(471,690,l),
(412,411,l),
(432,433,l),
(428,472,o),
(369,506,o),
(297,506,cs),
(123,506,o),
(40,337,o),
(40,204,cs),
(40,70,o),
(125,-14,o),
(261,-14,cs)
);
},
{
closed = 1;
nodes = (
(224,121,o),
(194,154,o),
(194,208,cs),
(194,259,o),
(221,371,o),
(304,371,cs),
(354,371,o),
(383,339,o),
(383,285,cs),
(383,233,o),
(355,121,o),
(272,121,cs)
);
}
);
width = 781;
}
);
metricLeft = "ke-canadian";
metricRight = "heNunavik-canadian";
note = uni1577;
unicode = 5495;
},
{
glyphname = "haNunavik-canadian";
lastChange = "2023-01-13 15:57:34 +0000";
layers = (
{
anchors = (
{
name = top_center_can;
pos = (586,690);
},
{
name = top_left_can;
pos = (417,690);
}
);
layerId = "D19189FD-F605-4705-8DF9-B27AB1AA0ED8";
shapes = (
{
closed = 1;
nodes = (
(642,-14,o),
(742,140,o),
(742,298,cs),
(742,422,o),
(667,506,o),
(549,506,cs),
(492,506,o),
(443,484,o),
(422,444,c),
(444,440,l),
(497,690,l),
(354,690,l),
(70,491,l),
(151,374,l),
(362,521,l),
(311,562,l),
(252,290,ls),
(220,139,o),
(272,-14,o),
(461,-14,cs)
);
},
{
closed = 1;
nodes = (
(427,121,o),
(398,154,o),
(398,208,cs),
(398,260,o),
(425,371,o),
(508,371,cs),
(557,371,o),
(585,339,o),
(585,285,cs),
(585,233,o),
(559,121,o),
(476,121,cs)
);
}
);
width = 780;
}
);
metricLeft = "=|heNunavik-canadian";
metricRight = "=|ke-canadian";
note = uni1579;
unicode = 5497;
},
{
glyphname = "hNunavik-canadian";
kernLeft = mwestleft;
kernRight = mwestright;
lastChange = "2023-01-13 15:57:31 +0000";
layers = (
{
layerId = "D19189FD-F605-4705-8DF9-B27AB1AA0ED8";
shapes = (
{
closed = 1;
nodes = (
(415,339,o),
(472,419,o),
(472,497,cs),
(472,557,o),
(434,601,o),
(375,601,cs),
(340,601,o),
(309,587,o),
(297,555,c),
(315,535,l),
(348,690,l),
(248,690,l),
(103,589,l),
(152,523,l),
(281,615,l),
(234,659,l),
(198,492,ls),
(179,402,o),
(227,339,o),
(318,339,cs)
);
},
{
closed = 1;
nodes = (
(304,417,o),
(290,432,o),
(290,456,cs),
(290,492,o),
(311,523,o),
(340,523,cs),
(362,523,o),
(377,509,o),
(377,485,cs),
(377,450,o),
(355,417,o),
(326,417,cs)
);
}
);
width = 466;
}
);
metricRight = "k-canadian";
note = uni157B;
unicode = 5499;
},
{
color = 4;
glyphname = "nunavuth-canadian";
lastChange = "2023-01-13 15:57:34 +0000";
layers = (
{
layerId = "D19189FD-F605-4705-8DF9-B27AB1AA0ED8";
shapes = (
{
closed = 1;
nodes = (
(170,0,l),
(231,285,l),
(493,285,l),
(433,0,l),
(593,0,l),
(740,690,l),
(580,690,l),
(524,426,l),
(261,426,l),
(317,690,l),
(156,690,l),
(10,0,l)
);
}
);
width = 708;
}
);
metricRight = "=|";
note = uni157C;
unicode = 5500;
},
{
glyphname = "tlhe-canadian";
lastChange = "2023-01-13 15:57:34 +0000";
layers = (
{
anchors = (
{
name = top_center_can;
pos = (402,690);
}
);
layerId = "D19189FD-F605-4705-8DF9-B27AB1AA0ED8";
shapes = (
{
closed = 1;
nodes = (
(176,0,l),
(365,277,l),
(254,215,l),
(264,214,o),
(275,213,o),
(286,213,cs),
(347,213,o),
(398,234,o),
(418,273,c),
(412,318,l),
(345,0,l),
(503,0,l),
(594,429,ls),
(627,582,o),
(550,704,o),
(379,704,cs),
(198,704,o),
(98,568,o),
(98,416,cs),
(98,352,o),
(125,289,o),
(180,253,c),
(7,0,l)
);
},
{
closed = 1;
nodes = (
(282,350,o),
(251,384,o),
(251,433,cs),
(251,489,o),
(287,569,o),
(361,569,cs),
(414,569,o),
(445,535,o),
(445,486,cs),
(445,430,o),
(410,350,o),
(334,350,cs)
);
}
);
width = 610;
}
);
metricRight = "te-canadian";
note = uni1586;
unicode = 5510;
},
{
glyphname = "tlhi-canadian";
lastChange = "2023-01-13 15:57:31 +0000";
layers = (
{
layerId = "D19189FD-F605-4705-8DF9-B27AB1AA0ED8";
shapes = (
{
closed = 1;
nodes = (
(162,0,l),
(233,332,l),
(168,307,l),
(200,253,o),
(262,218,o),
(337,217,c),
(256,279,l),
(330,0,l),
(499,0,l),
(439,234,l),
(539,266,o),
(606,383,o),
(606,488,cs),
(606,615,o),
(514,704,o),
(372,704,cs),
(229,704,o),
(135,619,o),
(100,460,cs),
(3,0,l)
);
},
{
closed = 1;
nodes = (
(288,350,o),
(257,381,o),
(257,432,cs),
(257,486,o),
(291,569,o),
(367,569,cs),
(419,569,o),
(450,537,o),
(450,486,cs),
(450,432,o),
(416,350,o),
(340,350,cs)
);
}
);
width = 614;
}
);
metricLeft = "te-canadian";
metricRight = "=|tlhe-canadian";
note = uni1587;
unicode = 5511;
},
{
glyphname = "tlho-canadian";
lastChange = "2023-01-13 15:57:31 +0000";
layers = (
{
anchors = (
{
name = top_center_can;
pos = (412,690);
}
);
layerId = "D19189FD-F605-4705-8DF9-B27AB1AA0ED8";
shapes = (
{
closed = 1;
nodes = (
(427,-14,o),
(521,71,o),
(555,230,cs),
(653,690,l),
(494,690,l),
(424,357,l),
(488,383,l),
(456,437,o),
(394,471,o),
(319,472,c),
(400,411,l),
(326,690,l),
(156,690,l),
(217,456,l),
(117,424,o),
(51,307,o),
(51,202,cs),
(51,74,o),
(142,-14,o),
(284,-14,cs)
);
},
{
closed = 1;
nodes = (
(237,121,o),
(206,153,o),
(206,204,cs),
(206,258,o),
(240,340,o),
(316,340,cs),
(368,340,o),
(399,309,o),
(399,258,cs),
(399,204,o),
(365,121,o),
(289,121,cs)
);
}
);
width = 614;
}
);
metricLeft = "tlhe-canadian";
metricRight = "te-canadian";
note = uni1588;
unicode = 5512;
},
{
glyphname = "tlha-canadian";
lastChange = "2023-01-13 15:57:34 +0000";
layers = (
{
layerId = "D19189FD-F605-4705-8DF9-B27AB1AA0ED8";
shapes = (
{
closed = 1;
nodes = (
(454,-14,o),
(554,122,o),
(554,273,cs),
(554,338,o),
(527,401,o),
(472,437,c),
(645,690,l),
(476,690,l),
(287,412,l),
(399,474,l),
(388,475,o),
(377,476,o),
(367,476,cs),
(305,476,o),
(255,456,o),
(235,416,c),
(241,372,l),
(308,690,l),
(149,690,l),
(58,261,ls),
(25,107,o),
(103,-14,o),
(273,-14,cs)
);
},
{
closed = 1;
nodes = (
(238,121,o),
(208,155,o),
(208,204,cs),
(208,260,o),
(242,340,o),
(318,340,cs),
(370,340,o),
(401,306,o),
(401,257,cs),
(401,201,o),
(366,121,o),
(291,121,cs)
);
}
);
width = 610;
}
);
metricLeft = "te-canadian";
note = uni1589;
unicode = 5513;
},
{
glyphname = "reWestCree-canadian";
lastChange = "2023-01-13 15:57:31 +0000";
layers = (
{
layerId = "D19189FD-F605-4705-8DF9-B27AB1AA0ED8";
shapes = (
{
closed = 1;
nodes = (
(458,0,l),
(744,201,l),
(661,318,l),
(451,172,l),
(503,129,l),
(567,430,ls),
(602,593,o),
(517,704,o),
(356,704,cs),
(211,704,o),
(121,620,o),
(86,461,cs),
(69,380,l),
(227,380,l),
(244,459,ls),
(259,532,o),
(290,565,o),
(343,565,cs),
(403,565,o),
(428,523,o),
(412,450,cs),
(317,0,l)
);
}
);
width = 772;
}
);
metricLeft = "ce-canadian";
metricRight = "heNunavik-canadian";
note = uni158A;
unicode = 5514;
},
{
glyphname = "riWestCree-canadian";
lastChange = "2023-01-13 15:57:34 +0000";
layers = (
{
layerId = "D19189FD-F605-4705-8DF9-B27AB1AA0ED8";
shapes = (
{
closed = 1;
nodes = (
(349,0,l),
(445,459,ls),
(461,532,o),
(493,565,o),
(545,565,cs),
(605,565,o),
(630,523,o),
(614,450,cs),
(600,380,l),
(758,380,l),
(769,430,ls),
(804,593,o),
(717,704,o),
(557,704,cs),
(411,704,o),
(322,620,o),
(288,461,cs),
(217,128,l),
(280,148,l),
(117,309,l),
(8,201,l),
(207,0,l)
);
}
);
width = 770;
}
);
metricLeft = "=|heNunavik-canadian";
metricRight = "=|ce-canadian";
note = uni158B;
unicode = 5515;
},
{
glyphname = "roWestCree-canadian";
lastChange = "2023-01-13 15:57:34 +0000";
layers = (
{
layerId = "D19189FD-F605-4705-8DF9-B27AB1AA0ED8";
shapes = (
{
closed = 1;
nodes = (
(401,-14,o),
(491,70,o),
(525,229,cs),
(595,561,l),
(532,542,l),
(696,381,l),
(805,489,l),
(605,690,l),
(464,690,l),
(366,231,ls),
(351,157,o),
(320,125,o),
(268,125,cs),
(208,125,o),
(183,167,o),
(198,240,cs),
(213,310,l),
(54,310,l),
(43,260,ls),
(9,97,o),
(96,-14,o),
(255,-14,cs)
);
}
);
width = 771;
}
);
metricLeft = "ce-canadian";
metricRight = "heNunavik-canadian";
note = uni158C;
unicode = 5516;
},
{
glyphname = "raWestCree-canadian";
lastChange = "2023-01-13 15:57:34 +0000";
layers = (
{
layerId = "D19189FD-F605-4705-8DF9-B27AB1AA0ED8";
shapes = (
{
closed = 1;
nodes = (
(603,-14,o),
(693,70,o),
(727,229,cs),
(745,310,l),
(585,310,l),
(569,231,ls),
(554,157,o),
(523,125,o),
(470,125,cs),
(411,125,o),
(385,167,o),
(401,240,cs),
(496,690,l),
(355,690,l),
(70,489,l),
(152,372,l),
(361,518,l),
(309,560,l),
(246,260,ls),
(212,97,o),
(297,-14,o),
(456,-14,cs)
);
}
);
width = 771;
}
);
metricLeft = "=|heNunavik-canadian";
metricRight = "=|ce-canadian";
note = uni158D;
unicode = 5517;
},
{
glyphname = "ng-canadian";
kernLeft = mwestleft;
kernRight = mwestright;
lastChange = "2023-01-13 15:57:34 +0000";
layers = (
{
layerId = "D19189FD-F605-4705-8DF9-B27AB1AA0ED8";
shapes = (
{
closed = 1;
nodes = (
(547,217,o),
(603,263,o),
(620,344,cs),
(625,369,l),
(523,369,l),
(517,340,ls),
(511,314,o),
(497,301,o),
(475,301,cs),
(451,301,o),
(440,317,o),
(447,345,cs),
(488,536,l),
(333,536,l),
(331,473,l),
(365,492,o),
(384,536,o),
(385,575,cs),
(389,646,o),
(340,697,o),
(258,697,cs),
(177,697,o),
(117,641,o),
(113,562,cs),
(107,487,o),
(157,435,o),
(237,435,cs),
(384,435,l),
(364,470,l),
(343,367,ls),
(324,278,o),
(372,217,o),
(465,217,cs)
);
},
{
closed = 1;
nodes = (
(218,513,o),
(205,530,o),
(207,558,cs),
(209,590,o),
(226,619,o),
(256,619,cs),
(279,619,o),
(293,602,o),
(291,573,cs),
(289,542,o),
(271,513,o),
(242,513,cs)
);
}
);
width = 629;
}
);
metricLeft = "n-canadian";
metricRight = "c-canadian";
note = uni1595;
unicode = 5525;
},
{
glyphname = "nng-canadian";
kernLeft = mwestleft;
kernRight = mwestright;
lastChange = "2023-01-13 15:57:34 +0000";
layers = (
{
layerId = "D19189FD-F605-4705-8DF9-B27AB1AA0ED8";
shapes = (
{
closed = 1;
nodes = (
(848,217,o),
(900,263,o),
(918,344,cs),
(924,369,l),
(821,369,l),
(814,340,ls),
(809,314,o),
(795,301,o),
(774,301,cs),
(749,301,o),
(739,317,o),
(745,345,cs),
(786,536,l),
(645,536,l),
(637,473,l),
(673,495,o),
(692,545,o),
(692,581,cs),
(691,651,o),
(642,697,o),
(564,697,cs),
(476,697,o),
(417,632,o),
(417,552,cs),
(417,526,o),
(424,505,o),
(438,486,c),
(454,536,l),
(342,536,l),
(332,473,l),
(370,495,o),
(388,545,o),
(388,581,cs),
(388,650,o),
(338,697,o),
(261,697,cs),
(173,697,o),
(113,632,o),
(113,552,cs),
(113,483,o),
(163,435,o),
(239,435,cs),
(655,435,l),
(640,367,ls),
(620,277,o),
(673,217,o),
(766,217,cs)
);
},
{
closed = 1;
nodes = (
(222,513,o),
(208,528,o),
(208,552,cs),
(208,581,o),
(225,619,o),
(258,619,cs),
(280,619,o),
(294,604,o),
(294,581,cs),
(294,552,o),
(276,513,o),
(244,513,cs)
);
},
{
closed = 1;
nodes = (
(526,513,o),
(512,528,o),
(512,552,cs),
(512,581,o),
(528,619,o),
(561,619,cs),
(583,619,o),
(597,604,o),
(597,581,cs),
(597,552,o),
(581,513,o),
(548,513,cs)
);
}
);
width = 928;
}
);
metricLeft = "n-canadian";
metricRight = "c-canadian";
note = uni1596;
unicode = 5526;
},
{
glyphname = "sheSayisi-canadian";
lastChange = "2023-01-13 15:57:31 +0000";
layers = (
{
anchors = (
{
name = middle_right_can;
pos = (710,345);
},
{
name = top_center_can;
pos = (394,690);
}
);
layerId = "D19189FD-F605-4705-8DF9-B27AB1AA0ED8";
shapes = (
{
closed = 1;
nodes = (
(493,0,l),
(582,422,ls),
(617,587,o),
(539,704,o),
(372,704,cs),
(162,704,o),
(75,517,o),
(75,364,cs),
(75,254,o),
(130,184,o),
(222,184,cs),
(315,184,o),
(366,256,o),
(391,413,c),
(308,413,l),
(296,342,o),
(281,315,o),
(257,315,cs),
(238,315,o),
(227,330,o),
(227,363,cs),
(227,423,o),
(256,569,o),
(353,569,cs),
(430,569,o),
(438,497,o),
(420,413,cs),
(332,0,l)
);
}
);
width = 600;
}
);
metricLeft = "ke-canadian";
metricRight = "te-canadian";
note = uni1597;
unicode = 5527;
},
{
glyphname = "shiSayisi-canadian";
lastChange = "2023-01-13 15:57:31 +0000";
layers = (
{
layerId = "D19189FD-F605-4705-8DF9-B27AB1AA0ED8";
shapes = (
{
closed = 1;
nodes = (
(163,0,l),
(258,443,ls),
(276,528,o),
(312,569,o),
(370,569,cs),
(421,569,o),
(449,537,o),
(449,478,cs),
(449,439,o),
(427,315,o),
(380,315,cs),
(353,315,o),
(346,343,o),
(364,413,c),
(281,413,l),
(240,272,o),
(285,184,o),
(393,184,cs),
(543,184,o),
(602,371,o),
(602,483,cs),
(602,618,o),
(517,704,o),
(375,704,cs),
(231,704,o),
(135,620,o),
(102,465,cs),
(3,0,l)
);
}
);
width = 601;
}
);
metricLeft = "te-canadian";
metricRight = "=|ke-canadian";
note = uni1598;
unicode = 5528;
},
{
glyphname = "shoSayisi-canadian";
lastChange = "2023-01-13 15:57:31 +0000";
layers = (
{
anchors = (
{
name = top_center_can;
pos = (386,690);
},
{
name = top_left_can;
pos = (213,690);
},
{
name = top_right_can;
pos = (559,690);
}
);
layerId = "D19189FD-F605-4705-8DF9-B27AB1AA0ED8";
shapes = (
{
closed = 1;
nodes = (
(412,-14,o),
(507,70,o),
(540,225,cs),
(639,690,l),
(479,690,l),
(384,246,ls),
(366,161,o),
(330,121,o),
(273,121,cs),
(221,121,o),
(194,153,o),
(194,212,cs),
(194,251,o),
(215,375,o),
(263,375,cs),
(290,375,o),
(297,347,o),
(278,276,c),
(362,276,l),
(403,417,o),
(357,506,o),
(249,506,cs),
(100,506,o),
(41,319,o),
(41,207,cs),
(41,71,o),
(126,-14,o),
(268,-14,cs)
);
}
);
width = 600;
}
);
metricLeft = "ke-canadian";
metricRight = "te-canadian";
note = uni1599;
unicode = 5529;
},
{
glyphname = "shaSayisi-canadian";
lastChange = "2023-01-13 15:57:31 +0000";
layers = (
{
layerId = "D19189FD-F605-4705-8DF9-B27AB1AA0ED8";
shapes = (
{
closed = 1;
nodes = (
(481,-14,o),
(568,173,o),
(568,326,cs),
(568,436,o),
(512,506,o),
(421,506,cs),
(328,506,o),
(277,434,o),
(252,276,c),
(335,276,l),
(347,348,o),
(361,375,o),
(385,375,cs),
(405,375,o),
(416,359,o),
(416,327,cs),
(416,267,o),
(387,121,o),
(290,121,cs),
(213,121,o),
(206,193,o),
(223,276,cs),
(311,690,l),
(151,690,l),
(60,268,ls),
(26,102,o),
(104,-14,o),
(271,-14,cs)
);
}
);
width = 601;
}
);
metricLeft = "te-canadian";
metricRight = "=|ke-canadian";
note = uni159A;
unicode = 5530;
},
{
glyphname = "theWoodScree-canadian";
lastChange = "2023-01-13 15:57:31 +0000";
layers = (
{
layerId = "D19189FD-F605-4705-8DF9-B27AB1AA0ED8";
shapes = (
{
closed = 1;
nodes = (
(672,-14,o),
(767,141,o),
(767,276,cs),
(767,405,o),
(679,492,o),
(535,492,cs),
(102,492,l),
(75,362,l),
(364,362,l),
(347,409,l),
(285,358,o),
(258,270,o),
(258,201,cs),
(258,74,o),
(349,-14,o),
(489,-14,cs)
);
},
{
closed = 1;
nodes = (
(446,121,o),
(413,156,o),
(413,211,cs),
(413,272,o),
(455,357,o),
(526,357,cs),
(579,357,o),
(611,323,o),
(611,269,cs),
(611,207,o),
(570,121,o),
(498,121,cs)
);
},
{
closed = 1;
nodes = (
(822,560,l),
(849,690,l),
(145,690,l),
(118,560,l)
);
}
);
width = 817;
}
);
note = uni159B;
unicode = 5531;
},
{
glyphname = "thiWoodScree-canadian";
kernRight = niright;
lastChange = "2023-01-13 15:57:31 +0000";
layers = (
{
layerId = "D19189FD-F605-4705-8DF9-B27AB1AA0ED8";
shapes = (
{
closed = 1;
nodes = (
(462,-14,o),
(557,138,o),
(557,277,cs),
(557,315,o),
(549,349,o),
(530,376,c),
(502,362,l),
(792,362,l),
(819,492,l),
(333,492,ls),
(140,492,o),
(48,338,o),
(48,202,cs),
(48,74,o),
(140,-14,o),
(280,-14,cs)
);
},
{
closed = 1;
nodes = (
(238,121,o),
(205,156,o),
(205,211,cs),
(205,272,o),
(246,357,o),
(317,357,cs),
(369,357,o),
(402,323,o),
(402,269,cs),
(402,207,o),
(360,121,o),
(289,121,cs)
);
},
{
closed = 1;
nodes = (
(835,560,l),
(862,690,l),
(157,690,l),
(130,560,l)
);
}
);
width = 818;
}
);
metricLeft = "theWoodScree-canadian";
metricRight = "theWoodScree-canadian";
note = uni159C;
unicode = 5532;
},
{
glyphname = "thoWoodScree-canadian";
lastChange = "2023-01-13 15:57:31 +0000";
layers = (
{
layerId = "D19189FD-F605-4705-8DF9-B27AB1AA0ED8";
shapes = (
{
closed = 1;
nodes = (
(485,0,ls),
(678,0,o),
(770,155,o),
(770,291,cs),
(770,417,o),
(678,506,o),
(538,506,cs),
(356,506,o),
(260,354,o),
(260,215,cs),
(260,178,o),
(270,143,o),
(287,116,c),
(315,129,l),
(25,129,l),
(-2,0,l)
);
},
{
closed = 1;
nodes = (
(448,134,o),
(416,169,o),
(416,223,cs),
(416,286,o),
(457,371,o),
(529,371,cs),
(581,371,o),
(613,335,o),
(613,281,cs),
(613,219,o),
(572,134,o),
(500,134,cs)
);
},
{
closed = 1;
nodes = (
(821,560,l),
(848,690,l),
(145,690,l),
(117,560,l)
);
}
);
width = 817;
}
);
metricLeft = "theWoodScree-canadian";
metricRight = "theWoodScree-canadian";
note = uni159D;
unicode = 5533;
},
{
glyphname = "thaWoodScree-canadian";
lastChange = "2023-01-13 15:57:31 +0000";
layers = (
{
layerId = "D19189FD-F605-4705-8DF9-B27AB1AA0ED8";
shapes = (
{
closed = 1;
nodes = (
(714,0,l),
(742,129,l),
(453,129,l),
(469,83,l),
(532,134,o),
(559,222,o),
(559,291,cs),
(559,417,o),
(469,506,o),
(327,506,cs),
(144,506,o),
(50,351,o),
(50,215,cs),
(50,88,o),
(138,0,o),
(282,0,cs)
);
},
{
closed = 1;
nodes = (
(239,134,o),
(206,169,o),
(206,223,cs),
(206,286,o),
(247,371,o),
(319,371,cs),
(370,371,o),
(403,335,o),
(403,281,cs),
(403,219,o),
(361,134,o),
(291,134,cs)
);
},
{
closed = 1;
nodes = (
(833,560,l),
(860,690,l),
(156,690,l),
(128,560,l)
);
}
);
width = 817;
}
);
metricLeft = "theWoodScree-canadian";
metricRight = "theWoodScree-canadian";
note = uni159E;
unicode = 5534;
},
{
glyphname = "thWoodScree-canadian";
lastChange = "2023-01-13 15:57:31 +0000";
layers = (
{
layerId = "D19189FD-F605-4705-8DF9-B27AB1AA0ED8";
shapes = (
{
closed = 1;
nodes = (
(463,344,l),
(482,437,l),
(325,437,l),
(319,381,l),
(358,402,o),
(378,452,o),
(378,492,cs),
(378,559,o),
(327,606,o),
(249,606,cs),
(161,606,o),
(102,541,o),
(102,461,cs),
(102,391,o),
(153,344,o),
(227,344,cs)
);
},
{
closed = 1;
nodes = (
(211,421,o),
(197,437,o),
(197,460,cs),
(197,489,o),
(214,528,o),
(246,528,cs),
(269,528,o),
(283,512,o),
(283,489,cs),
(283,460,o),
(266,421,o),
(233,421,cs)
);
},
{
closed = 1;
nodes = (
(520,639,l),
(540,732,l),
(160,732,l),
(141,639,l)
);
}
);
width = 495;
}
);
metricRight = "=|";
note = uni159F;
unicode = 5535;
},
{
glyphname = "lhi-canadian";
kernRight = niright;
lastChange = "2023-01-13 15:57:31 +0000";
layers = (
{
anchors = (
{
name = top_center_can;
pos = (521,690);
},
{
name = top_right_can;
pos = (637,690);
}
);
layerId = "D19189FD-F605-4705-8DF9-B27AB1AA0ED8";
shapes = (
{
closed = 1;
nodes = (
(320,0,l),
(350,140,l),
(298,140,ls),
(236,140,o),
(200,172,o),
(200,224,cs),
(200,293,o),
(244,349,o),
(340,349,cs),
(780,349,l),
(807,475,l),
(681,741,l),
(541,674,l),
(658,425,l),
(703,492,l),
(355,492,ls),
(161,492,o),
(42,385,o),
(42,217,cs),
(42,90,o),
(131,0,o),
(270,0,cs)
);
}
);
width = 799;
}
);
metricLeft = "ke-canadian";
metricRight = "=|ne-canadian";
note = uni15A0;
unicode = 5536;
},
{
glyphname = "lho-canadian";
kernLeft = noleft;
lastChange = "2023-01-13 15:57:31 +0000";
layers = (
{
anchors = (
{
name = top_center_can;
pos = (455,510);
},
{
name = top_right_can;
pos = (559,510);
}
);
layerId = "D19189FD-F605-4705-8DF9-B27AB1AA0ED8";
shapes = (
{
closed = 1;
nodes = (
(259,-182,l),
(142,67,l),
(96,0,l),
(445,0,ls),
(638,0,o),
(757,106,o),
(757,274,cs),
(757,402,o),
(668,492,o),
(529,492,cs),
(479,492,l),
(450,353,l),
(501,353,ls),
(563,353,o),
(600,320,o),
(600,268,cs),
(600,199,o),
(554,143,o),
(459,143,cs),
(19,143,l),
(-8,16,l),
(119,-248,l)
);
}
);
width = 799;
}
);
metricLeft = "ne-canadian";
metricRight = "=|ke-canadian";
note = uni15A2;
unicode = 5538;
},
{
glyphname = "lha-canadian";
kernRight = naright;
lastChange = "2023-01-13 15:57:31 +0000";
layers = (
{
anchors = (
{
name = top_center_can;
pos = (458,510);
},
{
name = top_left_can;
pos = (355,510);
}
);
layerId = "D19189FD-F605-4705-8DF9-B27AB1AA0ED8";
shapes = (
{
closed = 1;
nodes = (
(709,16,l),
(736,143,l),
(299,143,ls),
(236,143,o),
(201,174,o),
(201,227,cs),
(201,299,o),
(248,353,o),
(344,353,cs),
(394,353,l),
(424,492,l),
(364,492,ls),
(156,492,o),
(41,380,o),
(41,210,cs),
(41,82,o),
(129,0,o),
(272,0,cs),
(595,0,l),
(559,63,l),
(365,-155,l),
(470,-249,l)
);
}
);
width = 799;
}
);
metricLeft = "ke-canadian";
metricRight = "=|ne-canadian";
note = uni15A4;
unicode = 5540;
},
{
glyphname = "lh-canadian";
kernLeft = mwestleft;
kernRight = mwestright;
lastChange = "2023-01-13 15:57:31 +0000";
layers = (
{
layerId = "D19189FD-F605-4705-8DF9-B27AB1AA0ED8";
shapes = (
{
closed = 1;
nodes = (
(452,356,l),
(471,446,l),
(276,446,ls),
(235,446,o),
(212,467,o),
(212,501,cs),
(212,545,o),
(237,592,o),
(301,592,cs),
(323,592,l),
(343,690,l),
(313,690,ls),
(177,690,o),
(102,603,o),
(102,489,cs),
(102,400,o),
(164,345,o),
(267,345,cs),
(394,345,l),
(357,412,l),
(238,280,l),
(317,208,l)
);
}
);
width = 474;
}
);
metricLeft = "t-canadian";
metricRight = "=|";
note = uni15A6;
unicode = 5542;
},
{
glyphname = "theThCree-canadian";
lastChange = "2023-01-13 15:57:31 +0000";
layers = (
{
anchors = (
{
name = top_left_can;
pos = (203,690);
},
{
name = top_right_can;
pos = (532,690);
}
);
layerId = "D19189FD-F605-4705-8DF9-B27AB1AA0ED8";
shapes = (
{
closed = 1;
nodes = (
(321,74,l),
(305,0,l),
(466,0,l),
(481,74,l),
(552,74,l),
(570,159,l),
(499,159,l),
(540,353,l),
(270,353,l),
(291,303,l),
(609,600,l),
(511,701,l),
(31,253,l),
(22,213,l),
(351,213,l),
(339,159,l),
(128,159,l),
(109,74,l)
);
}
);
width = 615;
}
);
metricLeft = "ye-canadian";
note = uni15A7;
unicode = 5543;
},
{
glyphname = "thiThCree-canadian";
kernRight = yiright;
lastChange = "2023-01-13 15:57:34 +0000";
layers = (
{
anchors = (
{
name = top_left_can;
pos = (271,690);
},
{
name = top_right_can;
pos = (601,690);
}
);
layerId = "D19189FD-F605-4705-8DF9-B27AB1AA0ED8";
shapes = (
{
closed = 1;
nodes = (
(206,0,l),
(221,74,l),
(433,74,l),
(450,159,l),
(240,159,l),
(251,213,l),
(579,213,l),
(587,253,l),
(273,701,l),
(158,618,l),
(383,294,l),
(414,353,l),
(120,353,l),
(78,159,l),
(8,159,l),
(-11,74,l),
(61,74,l),
(44,0,l)
);
}
);
width = 615;
}
);
metricLeft = "=|theThCree-canadian";
metricRight = "=|ye-canadian";
note = uni15A8;
unicode = 5544;
},
{
glyphname = "thoThCree-canadian";
kernLeft = yoleft;
lastChange = "2023-01-13 15:57:31 +0000";
layers = (
{
anchors = (
{
name = top_left_can;
pos = (202,690);
},
{
name = top_right_can;
pos = (531,690);
}
);
layerId = "D19189FD-F605-4705-8DF9-B27AB1AA0ED8";
shapes = (
{
closed = 1;
nodes = (
(498,71,l),
(273,396,l),
(242,337,l),
(536,337,l),
(578,530,l),
(649,530,l),
(667,615,l),
(595,615,l),
(611,690,l),
(451,690,l),
(435,615,l),
(223,615,l),
(206,530,l),
(417,530,l),
(406,476,l),
(78,476,l),
(70,437,l),
(383,-12,l)
);
}
);
width = 615;
}
);
metricLeft = "ye-canadian";
metricRight = "theThCree-canadian";
note = uni15AA;
unicode = 5546;
},
{
glyphname = "thaThCree-canadian";
kernRight = yaright;
lastChange = "2023-01-13 15:57:34 +0000";
layers = (
{
anchors = (
{
name = top_left_can;
pos = (271,690);
},
{
name = top_right_can;
pos = (601,690);
}
);
layerId = "D19189FD-F605-4705-8DF9-B27AB1AA0ED8";
shapes = (
{
closed = 1;
nodes = (
(626,437,l),
(635,476,l),
(306,476,l),
(318,530,l),
(529,530,l),
(547,615,l),
(335,615,l),
(352,690,l),
(191,690,l),
(175,615,l),
(104,615,l),
(87,530,l),
(157,530,l),
(116,337,l),
(385,337,l),
(366,386,l),
(48,90,l),
(145,-12,l)
);
}
);
width = 615;
}
);
metricLeft = "=|theThCree-canadian";
metricRight = "=|ye-canadian";
note = uni15AC;
unicode = 5548;
},
{
glyphname = "thThCree-canadian";
kernLeft = mwestleft;
kernRight = mwestright;
lastChange = "2023-01-13 15:57:34 +0000";
layers = (
{
layerId = "D19189FD-F605-4705-8DF9-B27AB1AA0ED8";
shapes = (
{
closed = 1;
nodes = (
(156,614,l),
(130,497,l),
(281,497,l),
(261,547,l),
(109,400,l),
(177,334,l),
(404,555,l),
(410,582,l),
(258,582,l),
(265,614,l),
(357,614,l),
(367,658,l),
(273,658,l),
(280,690,l),
(171,690,l),
(164,658,l),
(128,658,l),
(120,614,l)
);
}
);
width = 361;
}
);
metricRight = "y-canadian";
note = uni15AE;
unicode = 5550;
},
{
glyphname = "bAivilik-canadian";
lastChange = "2023-01-13 15:57:31 +0000";
layers = (
{
layerId = "D19189FD-F605-4705-8DF9-B27AB1AA0ED8";
shapes = (
{
closed = 1;
nodes = (
(461,-14,o),
(564,140,o),
(564,297,cs),
(564,419,o),
(487,506,o),
(370,506,cs),
(315,506,o),
(268,484,o),
(246,448,c),
(262,424,l),
(317,690,l),
(156,690,l),
(11,0,l),
(163,0,l),
(180,76,l),
(167,63,l),
(183,15,o),
(234,-14,o),
(302,-14,cs)
);
},
{
closed = 1;
nodes = (
(249,121,o),
(220,154,o),
(220,208,cs),
(220,260,o),
(246,371,o),
(329,371,cs),
(379,371,o),
(408,339,o),
(408,285,cs),
(408,234,o),
(382,121,o),
(298,121,cs)
);
}
);
width = 602;
}
);
metricLeft = "nunavuth-canadian";
metricRight = "=|ke-canadian";
note = uni15AF;
unicode = 5551;
},
{
glyphname = "eBlackfoot-canadian";
lastChange = "2023-01-13 15:57:31 +0000";
layers = (
{
layerId = "D19189FD-F605-4705-8DF9-B27AB1AA0ED8";
shapes = (
{
closed = 1;
nodes = (
(170,0,l),
(258,411,l),
(282,369,o),
(328,342,o),
(387,342,cs),
(507,342,o),
(579,451,o),
(579,553,cs),
(579,641,o),
(520,704,o),
(430,704,cs),
(381,704,o),
(334,685,o),
(301,652,c),
(310,690,l),
(156,690,l),
(10,0,l)
);
}
);
width = 555;
}
);
metricLeft = "nunavuth-canadian";
note = uni15B0;
unicode = 5552;
},
{
glyphname = "iBlackfoot-canadian";
lastChange = "2023-01-13 15:57:34 +0000";
layers = (
{
layerId = "D19189FD-F605-4705-8DF9-B27AB1AA0ED8";
shapes = (
{
closed = 1;
nodes = (
(216,-14,o),
(263,5,o),
(296,38,c),
(287,0,l),
(441,0,l),
(587,690,l),
(427,690,l),
(339,279,l),
(315,321,o),
(269,348,o),
(211,348,cs),
(90,348,o),
(18,239,o),
(18,137,cs),
(18,48,o),
(77,-14,o),
(167,-14,cs)
);
}
);
width = 555;
}
);
metricLeft = "=|eBlackfoot-canadian";
metricRight = "nunavuth-canadian";
note = uni15B1;
unicode = 5553;
},
{
glyphname = "oBlackfoot-canadian";
lastChange = "2023-01-13 15:57:31 +0000";
layers = (
{
layerId = "D19189FD-F605-4705-8DF9-B27AB1AA0ED8";
shapes = (
{
closed = 1;
nodes = (
(432,-14,o),
(503,94,o),
(503,196,cs),
(503,285,o),
(445,348,o),
(355,348,cs),
(309,348,o),
(267,331,o),
(235,304,c),
(317,690,l),
(156,690,l),
(10,0,l),
(163,0,l),
(178,68,l),
(199,17,o),
(249,-14,o),
(312,-14,cs)
);
}
);
width = 555;
}
);
metricLeft = "nunavuth-canadian";
metricRight = "eBlackfoot-canadian";
note = uni15B2;
unicode = 5554;
},
{
glyphname = "aBlackfoot-canadian";
lastChange = "2023-01-13 15:57:34 +0000";
layers = (
{
layerId = "D19189FD-F605-4705-8DF9-B27AB1AA0ED8";
shapes = (
{
closed = 1;
nodes = (
(440,0,l),
(587,690,l),
(434,690,l),
(419,622,l),
(398,672,o),
(348,704,o),
(285,704,cs),
(165,704,o),
(94,596,o),
(94,494,cs),
(94,405,o),
(152,342,o),
(241,342,cs),
(288,342,o),
(330,358,o),
(362,385,c),
(280,0,l)
);
}
);
width = 555;
}
);
metricLeft = "=|eBlackfoot-canadian";
metricRight = "nunavuth-canadian";
note = uni15B3;
unicode = 5555;
},
{
glyphname = "weBlackfoot-canadian";
lastChange = "2023-01-13 15:57:31 +0000";
layers = (
{
layerId = "D19189FD-F605-4705-8DF9-B27AB1AA0ED8";
shapes = (
{
closed = 1;
nodes = (
(170,0,l),
(229,276,l),
(553,276,l),
(580,409,l),
(257,409,l),
(289,556,l),
(611,556,l),
(639,690,l),
(156,690,l),
(10,0,l)
);
}
);
width = 596;
}
);
metricLeft = "nunavuth-canadian";
note = uni15B4;
unicode = 5556;
},
{
glyphname = "wiBlackfoot-canadian";
lastChange = "2023-01-13 15:57:34 +0000";
layers = (
{
layerId = "D19189FD-F605-4705-8DF9-B27AB1AA0ED8";
shapes = (
{
closed = 1;
nodes = (
(480,0,l),
(627,690,l),
(467,690,l),
(408,413,l),
(85,413,l),
(57,281,l),
(380,281,l),
(348,133,l),
(25,133,l),
(-3,0,l)
);
}
);
width = 595;
}
);
metricLeft = "=|weBlackfoot-canadian";
metricRight = "nunavuth-canadian";
note = uni15B5;
unicode = 5557;
},
{
glyphname = "woBlackfoot-canadian";
lastChange = "2023-01-13 15:57:31 +0000";
layers = (
{
layerId = "D19189FD-F605-4705-8DF9-B27AB1AA0ED8";
shapes = (
{
closed = 1;
nodes = (
(493,0,l),
(521,133,l),
(199,133,l),
(230,281,l),
(553,281,l),
(581,413,l),
(259,413,l),
(317,690,l),
(156,690,l),
(10,0,l)
);
}
);
width = 595;
}
);
metricLeft = "nunavuth-canadian";
metricRight = "weBlackfoot-canadian";
note = uni15B6;
unicode = 5558;
},
{
glyphname = "waBlackfoot-canadian";
lastChange = "2023-01-13 15:57:34 +0000";
layers = (
{
layerId = "D19189FD-F605-4705-8DF9-B27AB1AA0ED8";
shapes = (
{
closed = 1;
nodes = (
(480,0,l),
(627,690,l),
(143,690,l),
(116,556,l),
(438,556,l),
(407,409,l),
(84,409,l),
(56,276,l),
(378,276,l),
(320,0,l)
);
}
);
width = 595;
}
);
metricLeft = "=|weBlackfoot-canadian";
metricRight = "nunavuth-canadian";
note = uni15B7;
unicode = 5559;
},
{
glyphname = "neBlackfoot-canadian";
lastChange = "2023-01-13 15:57:31 +0000";
layers = (
{
layerId = "D19189FD-F605-4705-8DF9-B27AB1AA0ED8";
shapes = (
{
closed = 1;
nodes = (
(170,0,l),
(292,574,l),
(343,574,l),
(326,672,l),
(321,651,ls),
(285,494,o),
(374,384,o),
(536,384,cs),
(680,384,o),
(778,467,o),
(810,618,cs),
(825,690,l),
(668,690,l),
(652,616,ls),
(639,554,o),
(603,521,o),
(547,521,cs),
(486,521,o),
(458,560,o),
(472,629,cs),
(486,690,l),
(156,690,l),
(10,0,l)
);
}
);
width = 758;
}
);
metricLeft = "nunavuth-canadian";
note = uni15B8;
unicode = 5560;
},
{
glyphname = "niBlackfoot-canadian";
lastChange = "2023-01-13 15:57:34 +0000";
layers = (
{
layerId = "D19189FD-F605-4705-8DF9-B27AB1AA0ED8";
shapes = (
{
closed = 1;
nodes = (
(132,0,l),
(148,73,ls),
(160,136,o),
(196,169,o),
(252,169,cs),
(314,169,o),
(341,129,o),
(326,61,cs),
(314,0,l),
(642,0,l),
(789,690,l),
(629,690,l),
(507,116,l),
(456,116,l),
(474,17,l),
(479,39,ls),
(515,196,o),
(426,306,o),
(263,306,cs),
(120,306,o),
(22,223,o),
(-10,71,cs),
(-25,0,l)
);
}
);
width = 757;
}
);
metricLeft = "=|neBlackfoot-canadian";
metricRight = "nunavuth-canadian";
note = uni15B9;
unicode = 5561;
},
{
glyphname = "noBlackfoot-canadian";
lastChange = "2023-01-13 15:57:34 +0000";
layers = (
{
layerId = "D19189FD-F605-4705-8DF9-B27AB1AA0ED8";
shapes = (
{
closed = 1;
nodes = (
(339,0,l),
(355,72,ls),
(369,137,o),
(404,170,o),
(459,170,cs),
(521,170,o),
(548,130,o),
(533,62,cs),
(521,0,l),
(678,0,l),
(687,43,ls),
(719,199,o),
(631,307,o),
(469,307,cs),
(327,307,o),
(232,226,o),
(194,55,cs),
(185,18,l),
(246,116,l),
(195,116,l),
(317,690,l),
(156,690,l),
(10,0,l)
);
}
);
width = 757;
}
);
metricLeft = "nunavuth-canadian";
metricRight = "neBlackfoot-canadian";
note = uni15BA;
unicode = 5562;
},
{
glyphname = "naBlackfoot-canadian";
lastChange = "2023-01-13 15:57:34 +0000";
layers = (
{
layerId = "D19189FD-F605-4705-8DF9-B27AB1AA0ED8";
shapes = (
{
closed = 1;
nodes = (
(642,0,l),
(789,690,l),
(461,690,l),
(444,617,ls),
(431,553,o),
(396,520,o),
(340,520,cs),
(279,520,o),
(251,559,o),
(266,628,cs),
(278,690,l),
(122,690,l),
(112,646,ls),
(81,491,o),
(169,383,o),
(329,383,cs),
(471,383,o),
(568,464,o),
(606,635,cs),
(613,671,l),
(553,574,l),
(604,574,l),
(482,0,l)
);
}
);
width = 757;
}
);
metricLeft = "=|neBlackfoot-canadian";
metricRight = "nunavuth-canadian";
note = uni15BB;
unicode = 5563;
},
{
glyphname = "keBlackfoot-canadian";
lastChange = "2023-01-13 15:57:31 +0000";
layers = (
{
layerId = "D19189FD-F605-4705-8DF9-B27AB1AA0ED8";
shapes = (
{
closed = 1;
nodes = (
(170,0,l),
(278,504,l),
(224,504,l),
(310,249,l),
(373,249,l),
(709,690,l),
(523,690,l),
(337,443,l),
(384,440,l),
(304,690,l),
(156,690,l),
(10,0,l)
);
}
);
width = 623;
}
);
metricLeft = "nunavuth-canadian";
note = uni15BC;
unicode = 5564;
},
{
glyphname = "kiBlackfoot-canadian";
lastChange = "2023-01-13 15:57:34 +0000";
layers = (
{
layerId = "D19189FD-F605-4705-8DF9-B27AB1AA0ED8";
shapes = (
{
closed = 1;
nodes = (
(142,0,l),
(328,246,l),
(282,250,l),
(360,0,l),
(508,0,l),
(655,690,l),
(495,690,l),
(386,185,l),
(440,185,l),
(354,440,l),
(292,440,l),
(-44,0,l)
);
}
);
width = 623;
}
);
metricLeft = "=|keBlackfoot-canadian";
metricRight = "nunavuth-canadian";
note = uni15BD;
unicode = 5565;
},
{
glyphname = "koBlackfoot-canadian";
lastChange = "2023-01-13 15:57:34 +0000";
layers = (
{
layerId = "D19189FD-F605-4705-8DF9-B27AB1AA0ED8";
shapes = (
{
closed = 1;
nodes = (
(157,0,l),
(389,273,l),
(299,285,l),
(397,0,l),
(562,0,l),
(413,440,l),
(351,440,l),
(155,185,l),
(210,185,l),
(317,690,l),
(156,690,l),
(10,0,l)
);
}
);
width = 622;
}
);
metricLeft = "nunavuth-canadian";
metricRight = "keBlackfoot-canadian";
note = uni15BE;
unicode = 5566;
},
{
glyphname = "kaBlackfoot-canadian";
lastChange = "2023-01-13 15:57:34 +0000";
layers = (
{
layerId = "D19189FD-F605-4705-8DF9-B27AB1AA0ED8";
shapes = (
{
closed = 1;
nodes = (
(508,0,l),
(655,690,l),
(507,690,l),
(275,416,l),
(365,405,l),
(268,690,l),
(102,690,l),
(252,249,l),
(315,249,l),
(511,504,l),
(455,504,l),
(348,0,l)
);
}
);
width = 623;
}
);
metricLeft = "=|keBlackfoot-canadian";
metricRight = "nunavuth-canadian";
note = uni15BF;
unicode = 5567;
},
{
color = 9;
glyphname = "heSayisi-canadian";
lastChange = "2023-01-13 15:57:34 +0000";
layers = (
{
anchors = (
{
name = top_right_can;
pos = (653,690);
}
);
layerId = "D19189FD-F605-4705-8DF9-B27AB1AA0ED8";
shapes = (
{
closed = 1;
nodes = (
(585,0,l),
(732,690,l),
(575,690,l),
(503,355,l),
(528,355,l),
(571,564,o),
(491,704,o),
(333,704,cs),
(213,704,o),
(127,620,o),
(90,469,cs),
(80,426,o),
(73,381,o),
(71,328,c),
(225,328,l),
(228,376,o),
(232,409,o),
(240,440,cs),
(261,522,o),
(300,564,o),
(355,564,cs),
(477,564,o),
(504,372,o),
(425,0,c)
);
}
);
width = 700;
}
);
metricRight = "nunavuth-canadian";
note = uni15C0;
unicode = 5568;
},
{
color = 9;
glyphname = "hiSayisi-canadian";
lastChange = "2023-01-13 15:57:31 +0000";
layers = (
{
layerId = "D19189FD-F605-4705-8DF9-B27AB1AA0ED8";
shapes = (
{
closed = 1;
nodes = (
(170,0,l),
(249,361,o),
(356,564,o),
(471,564,cs),
(535,564,o),
(558,504,o),
(536,400,cs),
(529,373,o),
(523,351,o),
(516,328,c),
(668,328,l),
(679,355,o),
(687,381,o),
(693,406,cs),
(729,582,o),
(662,704,o),
(527,704,cs),
(388,704,o),
(268,572,o),
(223,369,c),
(246,369,l),
(315,690,l),
(156,690,l),
(10,0,l)
);
}
);
width = 701;
}
);
metricLeft = "nunavuth-canadian";
metricRight = "=|heSayisi-canadian";
note = uni15C1;
unicode = 5569;
},
{
color = 9;
glyphname = "hoSayisi-canadian";
lastChange = "2023-01-13 15:57:34 +0000";
layers = (
{
anchors = (
{
name = top_center_can;
pos = (440,690);
},
{
name = top_left_can;
pos = (224,690);
},
{
name = top_right_can;
pos = (654,690);
}
);
layerId = "D19189FD-F605-4705-8DF9-B27AB1AA0ED8";
shapes = (
{
closed = 1;
nodes = (
(355,-14,o),
(476,118,o),
(521,321,c),
(497,321,l),
(429,0,l),
(586,0,l),
(733,690,l),
(573,690,l),
(495,328,o),
(386,126,o),
(271,126,cs),
(208,126,o),
(185,185,o),
(208,290,cs),
(213,317,o),
(220,339,o),
(228,361,c),
(74,361,l),
(64,334,o),
(56,309,o),
(50,284,cs),
(14,107,o),
(81,-14,o),
(216,-14,cs)
);
}
);
width = 701;
}
);
metricLeft = "heSayisi-canadian";
metricRight = "nunavuth-canadian";
note = uni15C2;
unicode = 5570;
},
{
color = 9;
glyphname = "haSayisi-canadian";
lastChange = "2023-01-13 15:57:31 +0000";
layers = (
{
layerId = "D19189FD-F605-4705-8DF9-B27AB1AA0ED8";
shapes = (
{
closed = 1;
nodes = (
(530,-14,o),
(616,70,o),
(653,220,cs),
(663,264,o),
(668,309,o),
(670,361,c),
(518,361,l),
(515,314,o),
(510,281,o),
(502,250,cs),
(482,168,o),
(442,126,o),
(386,126,cs),
(265,126,o),
(238,318,o),
(317,690,c),
(156,690,l),
(10,0,l),
(168,0,l),
(239,335,l),
(213,335,l),
(172,126,o),
(251,-14,o),
(410,-14,cs)
);
}
);
width = 701;
}
);
metricLeft = "nunavuth-canadian";
metricRight = "=|heSayisi-canadian";
note = uni15C3;
unicode = 5571;
},
{
color = 9;
glyphname = "ghuCarrier-canadian";
lastChange = "2023-01-13 15:57:34 +0000";
layers = (
{
layerId = "D19189FD-F605-4705-8DF9-B27AB1AA0ED8";
shapes = (
{
closed = 1;
nodes = (
(336,0,l),
(791,651,l),
(800,690,l),
(652,690,l),
(525,503,l),
(574,530,l),
(251,530,l),
(294,505,l),
(249,690,l),
(119,690,l),
(111,651,l),
(290,0,l)
);
},
{
closed = 1;
nodes = (
(501,411,l),
(483,432,l),
(316,186,l),
(377,177,l),
(310,435,l),
(281,411,l)
);
}
);
width = 731;
}
);
metricLeft = "e-canadian";
metricRight = "e-canadian";
note = uni15C4;
unicode = 5572;
},
{
color = 9;
glyphname = "ghoCarrier-canadian";
lastChange = "2023-01-13 15:57:34 +0000";
layers = (
{
layerId = "D19189FD-F605-4705-8DF9-B27AB1AA0ED8";
shapes = (
{
closed = 1;
nodes = (
(121,0,l),
(249,186,l),
(199,159,l),
(522,159,l),
(479,185,l),
(525,0,l),
(654,0,l),
(663,39,l),
(484,690,l),
(437,690,l),
(-18,39,l),
(-27,0,l)
);
},
{
closed = 1;
nodes = (
(484,330,l),
(301,333,l),
(319,260,l),
(465,452,l),
(366,459,l),
(433,252,l)
);
}
);
width = 732;
}
);
metricLeft = "e-canadian";
metricRight = "e-canadian";
note = uni15C5;
unicode = 5573;
},
{
color = 9;
glyphname = "gheCarrier-canadian";
lastChange = "2023-01-13 15:57:31 +0000";
layers = (
{
anchors = (
{
name = middle_center_can;
pos = (100,358);
}
);
layerId = "D19189FD-F605-4705-8DF9-B27AB1AA0ED8";
shapes = (
{
closed = 1;
nodes = (
(27,0,l),
(633,321,l),
(643,369,l),
(174,690,l),
(136,690,l),
(111,572,l),
(246,477,l),
(241,566,l),
(154,156,l),
(192,239,l),
(21,148,l),
(-11,0,l)
);
},
{
closed = 1;
nodes = (
(346,508,l),
(308,453,l),
(501,318,l),
(507,392,l),
(267,266,l),
(283,213,l)
);
}
);
width = 644;
}
);
metricLeft = "po-canadian";
metricRight = "o-canadian";
note = uni15C6;
unicode = 5574;
},
{
color = 9;
glyphname = "ghaCarrier-canadian";
lastChange = "2023-01-13 15:57:31 +0000";
layers = (
{
layerId = "D19189FD-F605-4705-8DF9-B27AB1AA0ED8";
shapes = (
{
closed = 1;
nodes = (
(550,0,l),
(575,118,l),
(440,213,l),
(445,124,l),
(532,534,l),
(494,451,l),
(665,542,l),
(696,690,l),
(659,690,l),
(53,369,l),
(43,321,l),
(512,0,l)
);
},
{
closed = 1;
nodes = (
(378,237,l),
(194,363,l),
(189,304,l),
(419,424,l),
(400,466,l),
(344,199,l)
);
}
);
width = 643;
}
);
metricLeft = "=|o-canadian";
metricRight = "=|po-canadian";
note = uni15C9;
unicode = 5577;
},
{
color = 9;
glyphname = "ruCarrier-canadian";
lastChange = "2023-01-13 15:57:34 +0000";
layers = (
{
layerId = "D19189FD-F605-4705-8DF9-B27AB1AA0ED8";
shapes = (
{
closed = 1;
nodes = (
(336,0,l),
(791,651,l),
(800,690,l),
(651,690,l),
(591,603,l),
(648,627,l),
(226,627,l),
(270,603,l),
(248,690,l),
(119,690,l),
(111,651,l),
(290,0,l)
);
},
{
closed = 1;
nodes = (
(573,504,l),
(547,528,l),
(318,191,l),
(377,182,l),
(286,529,l),
(254,504,l)
);
}
);
width = 731;
}
);
metricLeft = "e-canadian";
metricRight = "e-canadian";
note = uni15CA;
unicode = 5578;
},
{
color = 9;
glyphname = "roCarrier-canadian";
lastChange = "2023-01-13 15:57:34 +0000";
layers = (
{
layerId = "D19189FD-F605-4705-8DF9-B27AB1AA0ED8";
shapes = (
{
closed = 1;
nodes = (
(437,690,l),
(-18,39,l),
(-27,0,l),
(123,0,l),
(183,87,l),
(125,63,l),
(547,63,l),
(504,87,l),
(525,0,l),
(654,0,l),
(663,39,l),
(484,690,l)
);
},
{
closed = 1;
nodes = (
(201,185,l),
(227,161,l),
(456,498,l),
(397,508,l),
(487,160,l),
(519,185,l)
);
}
);
width = 732;
}
);
metricLeft = "e-canadian";
metricRight = "e-canadian";
note = uni15CB;
unicode = 5579;
},
{
color = 9;
glyphname = "reCarrier-canadian";
lastChange = "2023-01-13 15:57:31 +0000";
layers = (
{
layerId = "D19189FD-F605-4705-8DF9-B27AB1AA0ED8";
shapes = (
{
closed = 1;
nodes = (
(28,0,l),
(633,321,l),
(643,369,l),
(174,690,l),
(136,690,l),
(111,573,l),
(184,522,l),
(175,611,l),
(68,108,l),
(110,191,l),
(20,143,l),
(-11,0,l)
);
},
{
closed = 1;
nodes = (
(282,543,l),
(244,486,l),
(491,317,l),
(495,390,l),
(187,228,l),
(204,176,l)
);
}
);
width = 644;
}
);
metricLeft = "po-canadian";
metricRight = "o-canadian";
note = uni15CC;
unicode = 5580;
},
{
color = 9;
glyphname = "reeCarrier-canadian";
lastChange = "2023-01-13 15:57:31 +0000";
layers = (
{
layerId = "D19189FD-F605-4705-8DF9-B27AB1AA0ED8";
shapes = (
{
closed = 1;
nodes = (
(28,0,l),
(633,321,l),
(643,369,l),
(175,690,l),
(136,690,l),
(116,592,l),
(180,545,l),
(178,628,l),
(64,91,l),
(97,171,l),
(16,128,l),
(-11,0,l)
);
},
{
closed = 1;
nodes = (
(272,575,l),
(228,524,l),
(531,319,l),
(535,392,l),
(165,197,l),
(180,142,l)
);
},
{
closed = 1;
nodes = (
(305,292,l),
(333,424,l),
(272,424,l),
(244,292,l)
);
}
);
width = 644;
}
);
metricLeft = "po-canadian";
metricRight = "o-canadian";
note = uni15CD;
unicode = 5581;
},
{
color = 9;
glyphname = "riCarrier-canadian";
lastChange = "2023-01-13 15:57:31 +0000";
layers = (
{
layerId = "D19189FD-F605-4705-8DF9-B27AB1AA0ED8";
shapes = (
{
closed = 1;
nodes = (
(28,0,l),
(633,321,l),
(643,369,l),
(175,690,l),
(136,690,l),
(116,592,l),
(181,544,l),
(178,628,l),
(64,91,l),
(105,176,l),
(16,128,l),
(-11,0,l)
);
},
{
closed = 1;
nodes = (
(338,311,o),
(363,332,o),
(363,362,cs),
(363,392,o),
(338,413,o),
(311,413,cs),
(284,413,o),
(259,392,o),
(259,362,cs),
(259,332,o),
(284,311,o),
(311,311,cs)
);
},
{
closed = 1;
nodes = (
(272,575,l),
(228,524,l),
(531,319,l),
(535,392,l),
(167,198,l),
(180,142,l)
);
}
);
width = 644;
}
);
metricLeft = "po-canadian";
metricRight = "o-canadian";
note = uni15CE;
unicode = 5582;
},
{
color = 9;
glyphname = "raCarrier-canadian";
lastChange = "2023-01-13 15:57:31 +0000";
layers = (
{
layerId = "D19189FD-F605-4705-8DF9-B27AB1AA0ED8";
shapes = (
{
closed = 1;
nodes = (
(550,0,l),
(575,117,l),
(502,168,l),
(511,78,l),
(618,582,l),
(576,498,l),
(666,547,l),
(696,690,l),
(658,690,l),
(53,369,l),
(43,321,l),
(512,0,l)
);
},
{
closed = 1;
nodes = (
(441,204,l),
(195,373,l),
(191,299,l),
(498,462,l),
(482,514,l),
(404,147,l)
);
}
);
width = 643;
}
);
metricLeft = "=|o-canadian";
metricRight = "=|po-canadian";
note = uni15CF;
unicode = 5583;
},
{
color = 9;
glyphname = "wuCarrier-canadian";
lastChange = "2023-01-13 15:57:34 +0000";
layers = (
{
layerId = "D19189FD-F605-4705-8DF9-B27AB1AA0ED8";
shapes = (
{
closed = 1;
nodes = (
(345,0,l),
(809,651,l),
(816,690,l),
(675,690,l),
(399,279,l),
(435,279,l),
(522,690,l),
(396,690,l),
(308,279,l),
(347,279,l),
(240,690,l),
(119,690,l),
(111,651,l),
(298,0,l)
);
}
);
width = 748;
}
);
metricLeft = "e-canadian";
metricRight = "e-canadian";
note = uni15D0;
unicode = 5584;
},
{
color = 9;
glyphname = "woCarrier-canadian";
lastChange = "2023-01-13 15:57:34 +0000";
layers = (
{
layerId = "D19189FD-F605-4705-8DF9-B27AB1AA0ED8";
shapes = (
{
closed = 1;
nodes = (
(115,0,l),
(391,411,l),
(356,411,l),
(268,0,l),
(394,0,l),
(482,411,l),
(442,411,l),
(551,0,l),
(670,0,l),
(679,39,l),
(493,690,l),
(445,690,l),
(-18,39,l),
(-27,0,l)
);
}
);
width = 748;
}
);
metricLeft = "e-canadian";
metricRight = "e-canadian";
note = uni15D1;
unicode = 5585;
},
{
color = 9;
glyphname = "weCarrier-canadian";
lastChange = "2023-01-13 15:57:31 +0000";
layers = (
{
layerId = "D19189FD-F605-4705-8DF9-B27AB1AA0ED8";
shapes = (
{
closed = 1;
nodes = (
(47,0,l),
(653,321,l),
(664,369,l),
(194,690,l),
(156,690,l),
(131,572,l),
(408,390,l),
(416,417,l),
(99,417,l),
(73,298,l),
(390,298,l),
(395,323,l),
(41,143,l),
(11,0,l)
);
}
);
width = 665;
}
);
metricRight = "o-canadian";
note = uni15D2;
unicode = 5586;
},
{
color = 9;
glyphname = "weeCarrier-canadian";
lastChange = "2023-01-13 15:57:31 +0000";
layers = (
{
layerId = "D19189FD-F605-4705-8DF9-B27AB1AA0ED8";
shapes = (
{
closed = 1;
nodes = (
(48,0,l),
(653,321,l),
(664,369,l),
(195,690,l),
(157,690,l),
(135,587,l),
(453,377,l),
(464,405,l),
(243,405,l),
(258,471,l),
(175,471,l),
(160,405,l),
(96,405,l),
(76,311,l),
(140,311,l),
(127,244,l),
(210,244,l),
(223,311,l),
(444,311,l),
(440,335,l),
(38,129,l),
(11,0,l)
);
}
);
width = 665;
}
);
metricLeft = "weCarrier-canadian";
metricRight = "o-canadian";
note = uni15D3;
unicode = 5587;
},
{
color = 9;
glyphname = "wiCarrier-canadian";
lastChange = "2023-01-13 15:57:34 +0000";
layers = (
{
layerId = "D19189FD-F605-4705-8DF9-B27AB1AA0ED8";
shapes = (
{
closed = 1;
nodes = (
(49,0,l),
(654,321,l),
(665,369,l),
(196,690,l),
(158,690,l),
(136,587,l),
(441,386,l),
(462,406,l),
(309,406,l),
(294,438,o),
(263,460,o),
(224,460,cs),
(186,460,o),
(155,438,o),
(140,406,c),
(98,406,l),
(78,319,l),
(143,319,l),
(158,290,o),
(189,270,o),
(225,270,cs),
(260,270,o),
(290,291,o),
(304,319,c),
(441,319,l),
(433,329,l),
(39,129,l),
(12,0,l)
);
}
);
width = 666;
}
);
metricLeft = "weCarrier-canadian";
metricRight = "o-canadian";
note = uni15D4;
unicode = 5588;
},
{
color = 9;
glyphname = "waCarrier-canadian";
lastChange = "2023-01-13 15:57:31 +0000";
layers = (
{
layerId = "D19189FD-F605-4705-8DF9-B27AB1AA0ED8";
shapes = (
{
closed = 1;
nodes = (
(550,0,l),
(575,118,l),
(298,299,l),
(291,272,l),
(607,272,l),
(633,392,l),
(316,392,l),
(311,367,l),
(666,547,l),
(696,690,l),
(659,690,l),
(53,369,l),
(43,321,l),
(512,0,l)
);
}
);
width = 664;
}
);
metricLeft = "=|o-canadian";
metricRight = "=|weCarrier-canadian";
note = uni15D5;
unicode = 5589;
},
{
color = 9;
glyphname = "hwuCarrier-canadian";
lastChange = "2023-01-13 15:57:34 +0000";
layers = (
{
layerId = "D19189FD-F605-4705-8DF9-B27AB1AA0ED8";
shapes = (
{
closed = 1;
nodes = (
(345,0,l),
(809,651,l),
(816,690,l),
(685,690,l),
(576,531,l),
(609,552,l),
(477,552,l),
(507,690,l),
(410,690,l),
(380,552,l),
(246,552,l),
(270,539,l),
(229,690,l),
(119,690,l),
(111,651,l),
(298,0,l)
);
},
{
closed = 1;
nodes = (
(350,209,l),
(277,490,l),
(264,468,l),
(372,468,l),
(317,208,l)
);
},
{
closed = 1;
nodes = (
(450,468,l),
(559,468,l),
(555,490,l),
(369,213,l),
(395,203,l)
);
}
);
width = 748;
}
);
metricLeft = "e-canadian";
metricRight = "e-canadian";
note = uni15D6;
unicode = 5590;
},
{
color = 9;
glyphname = "hwoCarrier-canadian";
lastChange = "2023-01-13 15:57:34 +0000";
layers = (
{
layerId = "D19189FD-F605-4705-8DF9-B27AB1AA0ED8";
shapes = (
{
closed = 1;
nodes = (
(104,0,l),
(214,158,l),
(182,138,l),
(312,138,l),
(282,0,l),
(381,0,l),
(410,138,l),
(543,138,l),
(520,151,l),
(560,0,l),
(670,0,l),
(679,39,l),
(492,690,l),
(444,690,l),
(-18,39,l),
(-27,0,l)
);
},
{
closed = 1;
nodes = (
(420,476,l),
(395,487,l),
(340,222,l),
(230,222,l),
(234,200,l)
);
},
{
closed = 1;
nodes = (
(527,222,l),
(418,222,l),
(472,482,l),
(441,481,l),
(512,200,l)
);
}
);
width = 748;
}
);
metricLeft = "e-canadian";
metricRight = "e-canadian";
note = uni15D7;
unicode = 5591;
},
{
color = 9;
glyphname = "hweCarrier-canadian";
lastChange = "2023-01-13 15:57:31 +0000";
layers = (
{
layerId = "D19189FD-F605-4705-8DF9-B27AB1AA0ED8";
shapes = (
{
closed = 1;
nodes = (
(47,0,l),
(653,321,l),
(664,369,l),
(194,690,l),
(156,690,l),
(135,588,l),
(245,516,l),
(222,409,l),
(98,409,l),
(75,308,l),
(201,308,l),
(179,202,l),
(37,129,l),
(10,0,l)
);
},
{
closed = 1;
nodes = (
(277,319,l),
(435,319,l),
(260,234,l)
);
},
{
closed = 1;
nodes = (
(312,481,l),
(443,399,l),
(295,399,l)
);
}
);
width = 665;
}
);
metricLeft = "weCarrier-canadian";
metricRight = "o-canadian";
note = uni15D8;
unicode = 5592;
},
{
color = 9;
glyphname = "hweeCarrier-canadian";
lastChange = "2023-01-13 15:57:31 +0000";
layers = (
{
layerId = "D19189FD-F605-4705-8DF9-B27AB1AA0ED8";
shapes = (
{
closed = 1;
nodes = (
(47,0,l),
(653,321,l),
(664,369,l),
(194,690,l),
(156,690,l),
(135,591,l),
(283,497,l),
(262,400,l),
(214,400,l),
(228,464,l),
(161,464,l),
(148,400,l),
(95,400,l),
(77,316,l),
(129,316,l),
(117,252,l),
(184,252,l),
(196,316,l),
(244,316,l),
(223,218,l),
(37,128,l),
(10,0,l)
);
},
{
closed = 1;
nodes = (
(311,325,l),
(446,325,l),
(296,250,l)
);
},
{
closed = 1;
nodes = (
(341,464,l),
(455,392,l),
(326,392,l)
);
}
);
width = 665;
}
);
metricLeft = "weCarrier-canadian";
metricRight = "o-canadian";
note = uni15D9;
unicode = 5593;
},
{
color = 9;
glyphname = "hwiCarrier-canadian";
lastChange = "2023-01-13 15:57:31 +0000";
layers = (
{
layerId = "D19189FD-F605-4705-8DF9-B27AB1AA0ED8";
shapes = (
{
closed = 1;
nodes = (
(47,0,l),
(653,321,l),
(664,369,l),
(194,690,l),
(156,690,l),
(136,591,l),
(283,497,l),
(261,392,l),
(237,392,l),
(226,415,o),
(202,432,o),
(175,432,cs),
(147,432,o),
(125,415,o),
(113,392,c),
(94,392,l),
(79,324,l),
(112,324,l),
(124,300,o),
(147,284,o),
(174,284,cs),
(201,284,o),
(224,300,o),
(236,324,c),
(246,324,l),
(224,218,l),
(37,128,l),
(10,0,l)
);
},
{
closed = 1;
nodes = (
(312,324,l),
(445,324,l),
(297,250,l)
);
},
{
closed = 1;
nodes = (
(341,465,l),
(455,392,l),
(326,392,l)
);
}
);
width = 665;
}
);
metricLeft = "weCarrier-canadian";
metricRight = "o-canadian";
note = uni15DA;
unicode = 5594;
},
{
color = 9;
glyphname = "hwaCarrier-canadian";
lastChange = "2023-01-13 15:57:34 +0000";
layers = (
{
layerId = "D19189FD-F605-4705-8DF9-B27AB1AA0ED8";
shapes = (
{
closed = 1;
nodes = (
(659,690,l),
(53,369,l),
(43,321,l),
(512,0,l),
(550,0,l),
(571,101,l),
(461,174,l),
(484,281,l),
(609,281,l),
(630,382,l),
(505,382,l),
(527,488,l),
(669,560,l),
(696,690,l)
);
},
{
closed = 1;
nodes = (
(429,371,l),
(271,371,l),
(446,456,l)
);
},
{
closed = 1;
nodes = (
(394,209,l),
(263,291,l),
(412,291,l)
);
}
);
width = 664;
}
);
metricLeft = "=|o-canadian";
metricRight = "=|weCarrier-canadian";
note = uni15DB;
unicode = 5595;
},
{
color = 9;
glyphname = "thuCarrier-canadian";
lastChange = "2023-01-13 15:57:31 +0000";
layers = (
{
layerId = "D19189FD-F605-4705-8DF9-B27AB1AA0ED8";
shapes = (
{
closed = 1;
nodes = (
(528,-14,o),
(635,82,o),
(678,285,cs),
(764,690,l),
(150,690,l),
(71,319,ls),
(27,111,o),
(134,-14,o),
(339,-14,cs)
);
},
{
closed = 1;
nodes = (
(281,550,l),
(573,550,l),
(518,289,ls),
(495,180,o),
(441,130,o),
(353,130,cs),
(245,130,o),
(205,191,o),
(229,307,cs)
);
}
);
width = 725;
}
);
metricLeft = "te-canadian";
metricRight = "te-canadian";
note = uni15DC;
unicode = 5596;
},
{
color = 9;
glyphname = "thoCarrier-canadian";
lastChange = "2023-01-13 15:57:34 +0000";
layers = (
{
layerId = "D19189FD-F605-4705-8DF9-B27AB1AA0ED8";
shapes = (
{
closed = 1;
nodes = (
(617,0,l),
(696,371,ls),
(740,579,o),
(633,704,o),
(428,704,cs),
(239,704,o),
(132,608,o),
(89,405,cs),
(3,0,l)
);
},
{
closed = 1;
nodes = (
(249,401,ls),
(272,510,o),
(326,559,o),
(414,559,cs),
(522,559,o),
(562,498,o),
(538,383,cs),
(486,140,l),
(194,140,l)
);
}
);
width = 724;
}
);
metricLeft = "te-canadian";
metricRight = "te-canadian";
note = uni15DD;
unicode = 5597;
},
{
color = 9;
glyphname = "theCarrier-canadian";
lastChange = "2023-01-13 15:57:31 +0000";
layers = (
{
anchors = (
{
name = middle_center_can;
pos = (384,345);
}
);
layerId = "D19189FD-F605-4705-8DF9-B27AB1AA0ED8";
shapes = (
{
closed = 1;
nodes = (
(280,0,ls),
(598,0,o),
(700,224,o),
(700,412,cs),
(700,585,o),
(591,690,o),
(397,690,cs),
(156,690,l),
(10,0,l)
);
},
{
closed = 1;
nodes = (
(298,599,l),
(241,550,l),
(363,550,ls),
(479,550,o),
(542,497,o),
(542,397,cs),
(542,264,o),
(461,140,o),
(286,140,cs),
(160,140,l),
(190,93,l)
);
}
);
width = 725;
}
);
metricLeft = "nunavuth-canadian";
metricRight = "to-canadian";
note = uni15DE;
unicode = 5598;
},
{
color = 9;
glyphname = "thaCarrier-canadian";
lastChange = "2023-01-13 15:57:34 +0000";
layers = (
{
layerId = "D19189FD-F605-4705-8DF9-B27AB1AA0ED8";
shapes = (
{
closed = 1;
nodes = (
(610,0,l),
(757,690,l),
(487,690,ls),
(169,690,o),
(67,466,o),
(67,277,cs),
(67,104,o),
(176,0,o),
(369,0,cs)
);
},
{
closed = 1;
nodes = (
(225,426,o),
(306,550,o),
(481,550,cs),
(607,550,l),
(577,597,l),
(469,91,l),
(525,140,l),
(403,140,ls),
(287,140,o),
(225,193,o),
(225,293,cs)
);
}
);
width = 725;
}
);
metricLeft = "=|theCarrier-canadian";
metricRight = "nunavuth-canadian";
note = uni15E1;
unicode = 5601;
},
{
color = 9;
glyphname = "ttuCarrier-canadian";
lastChange = "2023-01-13 15:57:34 +0000";
layers = (
{
layerId = "D19189FD-F605-4705-8DF9-B27AB1AA0ED8";
shapes = (
{
closed = 1;
nodes = (
(529,-14,o),
(634,80,o),
(678,291,cs),
(763,690,l),
(717,690,l),
(354,504,l),
(483,480,l),
(197,690,l),
(149,690,l),
(70,318,ls),
(26,111,o),
(131,-14,o),
(342,-14,cs)
);
},
{
closed = 1;
nodes = (
(246,130,o),
(205,193,o),
(228,306,cs),
(277,541,l),
(196,518,l),
(379,386,l),
(406,386,l),
(623,497,l),
(571,540,l),
(521,304,ls),
(496,183,o),
(441,130,o),
(348,130,cs)
);
}
);
width = 724;
}
);
metricLeft = "te-canadian";
metricRight = "te-canadian";
note = uni15E2;
unicode = 5602;
},
{
color = 9;
glyphname = "ttoCarrier-canadian";
lastChange = "2023-01-13 15:57:34 +0000";
layers = (
{
layerId = "D19189FD-F605-4705-8DF9-B27AB1AA0ED8";
shapes = (
{
closed = 1;
nodes = (
(49,0,l),
(412,185,l),
(283,210,l),
(569,0,l),
(617,0,l),
(696,372,ls),
(740,579,o),
(635,704,o),
(424,704,cs),
(237,704,o),
(132,610,o),
(88,399,cs),
(3,0,l)
);
},
{
closed = 1;
nodes = (
(520,559,o),
(561,497,o),
(538,384,cs),
(489,149,l),
(570,172,l),
(387,303,l),
(360,303,l),
(143,192,l),
(195,150,l),
(245,385,ls),
(270,507,o),
(325,559,o),
(418,559,cs)
);
}
);
width = 724;
}
);
metricLeft = "te-canadian";
metricRight = "te-canadian";
note = uni15E3;
unicode = 5603;
},
{
color = 9;
glyphname = "tteCarrier-canadian";
lastChange = "2023-01-13 15:57:31 +0000";
layers = (
{
anchors = (
{
name = middle_center_can;
pos = (433,345);
}
);
layerId = "D19189FD-F605-4705-8DF9-B27AB1AA0ED8";
shapes = (
{
closed = 1;
nodes = (
(290,0,ls),
(567,0,o),
(710,187,o),
(710,412,cs),
(710,585,o),
(601,690,o),
(410,690,cs),
(150,690,l),
(141,651,l),
(206,282,l),
(219,415,l),
(12,39,l),
(3,0,l)
);
},
{
closed = 1;
nodes = (
(343,331,l),
(348,355,l),
(300,621,l),
(245,550,l),
(373,550,ls),
(489,550,o),
(552,496,o),
(552,396,cs),
(552,265,o),
(470,140,o),
(296,140,cs),
(164,140,l),
(205,77,l)
);
}
);
width = 735;
}
);
metricRight = "theCarrier-canadian";
note = uni15E4;
unicode = 5604;
},
{
color = 9;
glyphname = "ttaCarrier-canadian";
lastChange = "2023-01-13 15:57:34 +0000";
layers = (
{
layerId = "D19189FD-F605-4705-8DF9-B27AB1AA0ED8";
shapes = (
{
closed = 1;
nodes = (
(628,0,l),
(637,39,l),
(571,408,l),
(557,274,l),
(766,651,l),
(775,690,l),
(488,690,ls),
(210,690,o),
(67,502,o),
(67,277,cs),
(67,104,o),
(177,0,o),
(367,0,cs)
);
},
{
closed = 1;
nodes = (
(532,140,l),
(404,140,ls),
(288,140,o),
(225,194,o),
(225,294,cs),
(225,425,o),
(307,550,o),
(482,550,cs),
(612,550,l),
(572,612,l),
(435,358,l),
(430,334,l),
(477,69,l)
);
}
);
width = 736;
}
);
metricLeft = "=|theCarrier-canadian";
metricRight = "=|tteCarrier-canadian";
note = uni15E7;
unicode = 5607;
},
{
color = 9;
glyphname = "puCarrier-canadian";
lastChange = "2023-01-13 15:57:31 +0000";
layers = (
{
layerId = "D19189FD-F605-4705-8DF9-B27AB1AA0ED8";
shapes = (
{
closed = 1;
nodes = (
(528,-14,o),
(635,82,o),
(678,285,cs),
(764,690,l),
(604,690,l),
(575,555,l),
(282,555,l),
(310,690,l),
(150,690,l),
(71,319,ls),
(27,111,o),
(134,-14,o),
(339,-14,cs)
);
},
{
closed = 1;
nodes = (
(245,130,o),
(205,191,o),
(229,307,cs),
(252,414,l),
(545,414,l),
(518,289,ls),
(495,180,o),
(441,130,o),
(353,130,cs)
);
}
);
width = 725;
}
);
metricLeft = "te-canadian";
metricRight = "te-canadian";
note = uni15E8;
unicode = 5608;
},
{
color = 9;
glyphname = "poCarrier-canadian";
lastChange = "2023-01-13 15:57:34 +0000";
layers = (
{
layerId = "D19189FD-F605-4705-8DF9-B27AB1AA0ED8";
shapes = (
{
closed = 1;
nodes = (
(163,0,l),
(192,134,l),
(485,134,l),
(457,0,l),
(617,0,l),
(696,371,ls),
(740,579,o),
(633,704,o),
(428,704,cs),
(239,704,o),
(132,608,o),
(89,405,cs),
(3,0,l)
);
},
{
closed = 1;
nodes = (
(249,401,ls),
(272,510,o),
(326,559,o),
(414,559,cs),
(522,559,o),
(562,498,o),
(538,383,cs),
(515,275,l),
(222,275,l)
);
}
);
width = 724;
}
);
metricLeft = "te-canadian";
metricRight = "te-canadian";
note = uni15E9;
unicode = 5609;
},
{
color = 9;
glyphname = "peCarrier-canadian";
lastChange = "2023-01-13 15:57:31 +0000";
layers = (
{
anchors = (
{
name = middle_center_can;
pos = (419,345);
}
);
layerId = "D19189FD-F605-4705-8DF9-B27AB1AA0ED8";
shapes = (
{
closed = 1;
nodes = (
(289,0,ls),
(607,0,o),
(709,224,o),
(709,412,cs),
(709,585,o),
(600,690,o),
(409,690,cs),
(149,690,l),
(119,550,l),
(198,550,l),
(111,140,l),
(32,140,l),
(2,0,l)
);
},
{
closed = 1;
nodes = (
(372,620,l),
(258,550,l),
(372,550,ls),
(488,550,o),
(550,496,o),
(550,397,cs),
(550,265,o),
(470,140,o),
(295,140,cs),
(171,140,l),
(256,70,l)
);
}
);
width = 734;
}
);
metricRight = "theCarrier-canadian";
note = uni15EA;
unicode = 5610;
},
{
color = 9;
glyphname = "paCarrier-canadian";
lastChange = "2023-01-13 15:57:34 +0000";
layers = (
{
layerId = "D19189FD-F605-4705-8DF9-B27AB1AA0ED8";
shapes = (
{
closed = 1;
nodes = (
(627,0,l),
(657,140,l),
(579,140,l),
(665,550,l),
(745,550,l),
(774,690,l),
(487,690,ls),
(170,690,o),
(67,466,o),
(67,277,cs),
(67,104,o),
(176,0,o),
(367,0,cs)
);
},
{
closed = 1;
nodes = (
(519,140,l),
(404,140,ls),
(288,140,o),
(226,194,o),
(226,293,cs),
(226,425,o),
(306,550,o),
(482,550,cs),
(606,550,l),
(521,620,l),
(404,70,l)
);
}
);
width = 734;
}
);
metricLeft = "=|theCarrier-canadian";
metricRight = "=|peCarrier-canadian";
note = uni15ED;
unicode = 5613;
},
{
color = 6;
glyphname = "pCarrier-canadian";
lastChange = "2023-01-13 15:57:34 +0000";
layers = (
{
layerId = "D19189FD-F605-4705-8DF9-B27AB1AA0ED8";
shapes = (
{
closed = 1;
nodes = (
(364,183,l),
(386,286,l),
(279,286,l),
(330,527,l),
(221,527,l),
(170,286,l),
(62,286,l),
(40,183,l)
);
}
);
width = 430;
}
);
metricLeft = "shorthorizontalstrokeFinal-canadian";
metricRight = "shorthorizontalstrokeFinal-canadian";
note = uni15EE;
unicode = 5614;
},
{
color = 9;
glyphname = "guCarrier-canadian";
lastChange = "2023-01-13 15:57:34 +0000";
layers = (
{
anchors = (
{
name = top_center_can;
pos = (522,690);
}
);
layerId = "D19189FD-F605-4705-8DF9-B27AB1AA0ED8";
shapes = (
{
closed = 1;
nodes = (
(324,-14,o),
(392,33,o),
(440,128,c),
(370,128,l),
(395,32,o),
(453,-14,o),
(552,-14,cs),
(681,-14,o),
(755,60,o),
(786,210,cs),
(889,690,l),
(735,690,l),
(634,211,ls),
(622,154,o),
(595,127,o),
(550,127,cs),
(503,127,o),
(483,156,o),
(495,212,cs),
(596,690,l),
(445,690,l),
(344,212,ls),
(332,156,o),
(303,127,o),
(258,127,cs),
(212,127,o),
(193,157,o),
(205,214,cs),
(306,690,l),
(153,690,l),
(54,224,ls),
(23,77,o),
(89,-14,o),
(229,-14,cs)
);
}
);
width = 854;
}
);
metricRight = "=|";
note = uni15EF;
unicode = 5615;
},
{
color = 9;
glyphname = "goCarrier-canadian";
lastChange = "2023-01-13 15:57:34 +0000";
layers = (
{
layerId = "D19189FD-F605-4705-8DF9-B27AB1AA0ED8";
shapes = (
{
closed = 1;
nodes = (
(160,0,l),
(262,479,ls),
(274,536,o),
(300,563,o),
(346,563,cs),
(392,563,o),
(413,533,o),
(401,478,cs),
(299,0,l),
(450,0,l),
(552,478,ls),
(563,534,o),
(592,563,o),
(638,563,cs),
(684,563,o),
(702,532,o),
(691,475,cs),
(589,0,l),
(743,0,l),
(841,466,ls),
(872,612,o),
(807,704,o),
(667,704,cs),
(572,704,o),
(503,657,o),
(456,562,c),
(527,562,l),
(500,658,o),
(442,704,o),
(345,704,cs),
(215,704,o),
(141,630,o),
(109,480,cs),
(7,0,l)
);
}
);
width = 854;
}
);
metricLeft = "guCarrier-canadian";
metricRight = "guCarrier-canadian";
note = uni15F0;
unicode = 5616;
},
{
color = 9;
glyphname = "geCarrier-canadian";
lastChange = "2023-01-13 15:57:34 +0000";
layers = (
{
anchors = (
{
name = top_center_can;
pos = (466,690);
}
);
layerId = "D19189FD-F605-4705-8DF9-B27AB1AA0ED8";
shapes = (
{
closed = 1;
nodes = (
(402,0,ls),
(556,0,o),
(663,73,o),
(663,215,cs),
(663,281,o),
(631,333,o),
(569,365,c),
(557,309,l),
(669,340,o),
(728,418,o),
(728,519,cs),
(728,623,o),
(648,690,o),
(533,690,cs),
(157,690,l),
(129,560,l),
(497,560,ls),
(543,560,o),
(568,537,o),
(568,499,cs),
(568,443,o),
(531,409,o),
(465,409,cs),
(98,409,l),
(71,281,l),
(438,281,ls),
(483,281,o),
(508,259,o),
(508,221,cs),
(508,170,o),
(478,129,o),
(405,129,cs),
(38,129,l),
(11,0,l)
);
}
);
width = 734;
}
);
metricLeft = "nunavuth-canadian";
note = uni15F1;
unicode = 5617;
},
{
color = 9;
glyphname = "geeCarrier-canadian";
lastChange = "2023-01-13 15:57:34 +0000";
layers = (
{
layerId = "D19189FD-F605-4705-8DF9-B27AB1AA0ED8";
shapes = (
{
closed = 1;
nodes = (
(402,0,ls),
(556,0,o),
(663,73,o),
(663,215,cs),
(663,281,o),
(631,333,o),
(569,365,c),
(557,309,l),
(669,340,o),
(728,418,o),
(728,519,cs),
(728,623,o),
(648,690,o),
(533,690,cs),
(157,690,l),
(129,560,l),
(497,560,ls),
(543,560,o),
(568,537,o),
(568,499,cs),
(568,443,o),
(531,409,o),
(465,409,cs),
(388,409,l),
(405,484,l),
(313,484,l),
(297,409,l),
(98,409,l),
(71,281,l),
(270,281,l),
(254,207,l),
(346,207,l),
(361,281,l),
(438,281,ls),
(483,281,o),
(508,259,o),
(508,221,cs),
(508,170,o),
(478,129,o),
(405,129,cs),
(38,129,l),
(11,0,l)
);
}
);
width = 734;
}
);
metricLeft = "geCarrier-canadian";
metricRight = "geCarrier-canadian";
note = uni15F2;
unicode = 5618;
},
{
color = 9;
glyphname = "giCarrier-canadian";
lastChange = "2023-01-13 15:57:34 +0000";
layers = (
{
layerId = "D19189FD-F605-4705-8DF9-B27AB1AA0ED8";
shapes = (
{
closed = 1;
nodes = (
(402,0,ls),
(556,0,o),
(663,73,o),
(663,215,cs),
(663,280,o),
(632,332,o),
(570,366,c),
(560,311,l),
(670,341,o),
(728,420,o),
(728,519,cs),
(728,623,o),
(648,690,o),
(533,690,cs),
(157,690,l),
(129,560,l),
(497,560,ls),
(543,560,o),
(568,537,o),
(568,499,cs),
(568,443,o),
(531,409,o),
(465,409,cs),
(398,409,l),
(449,365,l),
(441,418,o),
(396,459,o),
(339,459,cs),
(299,459,o),
(266,439,o),
(246,409,c),
(98,409,l),
(71,281,l),
(246,281,l),
(266,251,o),
(299,232,o),
(339,232,cs),
(395,232,o),
(438,273,o),
(448,325,c),
(388,281,l),
(438,281,ls),
(483,281,o),
(508,259,o),
(508,221,cs),
(508,170,o),
(478,129,o),
(405,129,cs),
(38,129,l),
(11,0,l)
);
}
);
width = 734;
}
);
metricLeft = "geCarrier-canadian";
metricRight = "geCarrier-canadian";
note = uni15F3;
unicode = 5619;
},
{
color = 9;
glyphname = "gaCarrier-canadian";
lastChange = "2023-01-13 15:57:31 +0000";
layers = (
{
anchors = (
{
name = top_center_can;
pos = (477,690);
}
);
layerId = "D19189FD-F605-4705-8DF9-B27AB1AA0ED8";
shapes = (
{
closed = 1;
nodes = (
(619,0,l),
(646,129,l),
(280,129,ls),
(234,129,o),
(208,153,o),
(208,190,cs),
(208,246,o),
(245,281,o),
(312,281,cs),
(679,281,l),
(706,409,l),
(339,409,ls),
(294,409,o),
(268,431,o),
(268,469,cs),
(268,520,o),
(298,560,o),
(372,560,cs),
(739,560,l),
(766,690,l),
(375,690,ls),
(220,690,o),
(113,616,o),
(113,474,cs),
(113,409,o),
(145,356,o),
(208,325,c),
(219,381,l),
(107,350,o),
(48,271,o),
(48,171,cs),
(48,67,o),
(128,0,o),
(243,0,cs)
);
}
);
width = 734;
}
);
metricLeft = "=|geCarrier-canadian";
metricRight = "=|geCarrier-canadian";
note = uni15F4;
unicode = 5620;
},
{
color = 9;
glyphname = "khuCarrier-canadian";
lastChange = "2023-01-13 15:57:34 +0000";
layers = (
{
layerId = "D19189FD-F605-4705-8DF9-B27AB1AA0ED8";
shapes = (
{
closed = 1;
nodes = (
(316,-14,o),
(383,27,o),
(429,108,c),
(375,111,l),
(403,27,o),
(459,-14,o),
(552,-14,cs),
(681,-14,o),
(755,60,o),
(786,210,cs),
(889,690,l),
(153,690,l),
(54,224,ls),
(23,77,o),
(89,-14,o),
(229,-14,cs)
);
},
{
closed = 1;
nodes = (
(212,127,o),
(193,157,o),
(205,214,cs),
(276,554,l),
(416,554,l),
(344,212,ls),
(332,156,o),
(303,127,o),
(258,127,cs)
);
},
{
closed = 1;
nodes = (
(503,127,o),
(483,156,o),
(495,212,cs),
(568,554,l),
(706,554,l),
(634,211,ls),
(622,154,o),
(595,127,o),
(550,127,cs)
);
}
);
width = 854;
}
);
metricLeft = "guCarrier-canadian";
metricRight = "guCarrier-canadian";
note = uni15F5;
unicode = 5621;
},
{
color = 9;
glyphname = "khoCarrier-canadian";
lastChange = "2023-01-13 15:57:34 +0000";
layers = (
{
layerId = "D19189FD-F605-4705-8DF9-B27AB1AA0ED8";
shapes = (
{
closed = 1;
nodes = (
(743,0,l),
(841,466,ls),
(872,612,o),
(807,704,o),
(667,704,cs),
(580,704,o),
(513,663,o),
(467,582,c),
(521,579,l),
(493,663,o),
(437,704,o),
(345,704,cs),
(214,704,o),
(141,630,o),
(109,480,cs),
(7,0,l)
);
},
{
closed = 1;
nodes = (
(262,479,ls),
(273,536,o),
(300,563,o),
(346,563,cs),
(392,563,o),
(413,533,o),
(401,478,cs),
(328,136,l),
(189,136,l)
);
},
{
closed = 1;
nodes = (
(552,478,ls),
(563,534,o),
(592,563,o),
(638,563,cs),
(684,563,o),
(702,532,o),
(691,475,cs),
(619,136,l),
(479,136,l)
);
}
);
width = 854;
}
);
metricLeft = "guCarrier-canadian";
metricRight = "guCarrier-canadian";
note = uni15F6;
unicode = 5622;
},
{
color = 9;
glyphname = "kheCarrier-canadian";
lastChange = "2023-01-13 15:57:34 +0000";
layers = (
{
layerId = "D19189FD-F605-4705-8DF9-B27AB1AA0ED8";
shapes = (
{
closed = 1;
nodes = (
(410,0,ls),
(564,0,o),
(671,73,o),
(671,215,cs),
(671,280,o),
(639,330,o),
(579,363,c),
(570,311,l),
(684,343,o),
(736,427,o),
(736,519,cs),
(736,623,o),
(656,690,o),
(540,690,cs),
(156,690,l),
(10,0,l)
);
},
{
closed = 1;
nodes = (
(230,282,l),
(444,282,ls),
(490,282,o),
(516,259,o),
(516,221,cs),
(516,168,o),
(482,128,o),
(412,128,cs),
(196,128,l)
);
},
{
closed = 1;
nodes = (
(290,562,l),
(504,562,ls),
(551,562,o),
(576,538,o),
(576,499,cs),
(576,447,o),
(542,408,o),
(472,408,cs),
(256,408,l)
);
}
);
width = 742;
}
);
metricLeft = "nunavuth-canadian";
metricRight = "geCarrier-canadian";
note = uni15F7;
unicode = 5623;
},
{
color = 9;
glyphname = "kheeCarrier-canadian";
lastChange = "2023-01-13 15:57:34 +0000";
layers = (
{
layerId = "D19189FD-F605-4705-8DF9-B27AB1AA0ED8";
shapes = (
{
closed = 1;
nodes = (
(410,0,ls),
(564,0,o),
(671,73,o),
(671,215,cs),
(671,280,o),
(639,330,o),
(579,363,c),
(570,311,l),
(684,343,o),
(736,427,o),
(736,519,cs),
(736,623,o),
(656,690,o),
(540,690,cs),
(156,690,l),
(10,0,l)
);
},
{
closed = 1;
nodes = (
(230,284,l),
(323,284,l),
(306,206,l),
(406,206,l),
(427,305,l),
(389,284,l),
(444,284,ls),
(490,284,o),
(516,260,o),
(516,222,cs),
(516,169,o),
(482,128,o),
(412,128,cs),
(196,128,l)
);
},
{
closed = 1;
nodes = (
(465,485,l),
(365,485,l),
(349,407,l),
(256,407,l),
(290,562,l),
(504,562,ls),
(551,562,o),
(576,538,o),
(576,499,cs),
(576,447,o),
(542,407,o),
(472,407,cs),
(415,407,l),
(444,386,l)
);
}
);
width = 742;
}
);
metricLeft = "nunavuth-canadian";
metricRight = "geCarrier-canadian";
note = uni15F8;
unicode = 5624;
},
{
color = 9;
glyphname = "khiCarrier-canadian";
lastChange = "2023-01-13 15:57:34 +0000";
layers = (
{
layerId = "D19189FD-F605-4705-8DF9-B27AB1AA0ED8";
shapes = (
{
closed = 1;
nodes = (
(410,0,ls),
(564,0,o),
(671,73,o),
(671,215,cs),
(671,279,o),
(639,331,o),
(577,363,c),
(566,309,l),
(684,342,o),
(736,427,o),
(736,519,cs),
(736,623,o),
(656,690,o),
(540,690,cs),
(156,690,l),
(10,0,l)
);
},
{
closed = 1;
nodes = (
(231,287,l),
(292,287,l),
(311,254,o),
(346,232,o),
(387,232,cs),
(445,232,o),
(490,277,o),
(496,332,c),
(403,287,l),
(448,287,ls),
(494,287,o),
(516,261,o),
(516,222,cs),
(516,169,o),
(482,128,o),
(412,128,cs),
(196,128,l)
);
},
{
closed = 1;
nodes = (
(504,562,ls),
(551,562,o),
(576,537,o),
(576,498,cs),
(576,445,o),
(545,404,o),
(475,404,cs),
(408,404,l),
(497,357,l),
(491,415,o),
(445,459,o),
(387,459,cs),
(328,459,o),
(282,415,o),
(277,357,c),
(330,404,l),
(256,404,l),
(290,562,l)
);
}
);
width = 742;
}
);
metricLeft = "nunavuth-canadian";
metricRight = "geCarrier-canadian";
note = uni15F9;
unicode = 5625;
},
{
color = 9;
glyphname = "khaCarrier-canadian";
lastChange = "2023-01-13 15:57:34 +0000";
layers = (
{
layerId = "D19189FD-F605-4705-8DF9-B27AB1AA0ED8";
shapes = (
{
closed = 1;
nodes = (
(628,0,l),
(775,690,l),
(375,690,ls),
(220,690,o),
(113,616,o),
(113,474,cs),
(113,410,o),
(144,359,o),
(206,327,c),
(214,379,l),
(100,347,o),
(48,263,o),
(48,171,cs),
(48,67,o),
(128,0,o),
(243,0,cs)
);
},
{
closed = 1;
nodes = (
(234,128,o),
(208,152,o),
(208,190,cs),
(208,242,o),
(242,282,o),
(312,282,cs),
(527,282,l),
(495,128,l),
(280,128,ls)
);
},
{
closed = 1;
nodes = (
(294,408,o),
(269,431,o),
(269,469,cs),
(269,522,o),
(302,562,o),
(373,562,cs),
(587,562,l),
(554,408,l),
(340,408,ls)
);
}
);
width = 743;
}
);
metricLeft = "=|geCarrier-canadian";
metricRight = "nunavuth-canadian";
note = uni15FA;
unicode = 5626;
},
{
color = 9;
glyphname = "kkuCarrier-canadian";
lastChange = "2023-01-13 15:57:34 +0000";
layers = (
{
layerId = "D19189FD-F605-4705-8DF9-B27AB1AA0ED8";
shapes = (
{
closed = 1;
nodes = (
(316,-14,o),
(382,25,o),
(430,108,c),
(375,110,l),
(403,27,o),
(459,-14,o),
(552,-14,cs),
(681,-14,o),
(754,59,o),
(786,210,cs),
(889,690,l),
(842,690,l),
(543,562,l),
(511,402,l),
(758,501,l),
(707,558,l),
(634,211,ls),
(622,154,o),
(595,127,o),
(550,127,cs),
(503,127,o),
(483,158,o),
(494,212,cs),
(596,690,l),
(446,690,l),
(345,212,ls),
(332,156,o),
(303,127,o),
(258,127,cs),
(212,127,o),
(193,157,o),
(205,214,cs),
(278,559,l),
(201,524,l),
(411,413,l),
(442,560,l),
(200,690,l),
(153,690,l),
(54,224,ls),
(22,76,o),
(90,-14,o),
(229,-14,cs)
);
}
);
width = 854;
}
);
metricLeft = "guCarrier-canadian";
metricRight = "guCarrier-canadian";
note = uni15FB;
unicode = 5627;
},
{
color = 9;
glyphname = "kkoCarrier-canadian";
lastChange = "2023-01-13 15:57:34 +0000";
layers = (
{
layerId = "D19189FD-F605-4705-8DF9-B27AB1AA0ED8";
shapes = (
{
closed = 1;
nodes = (
(53,0,l),
(353,128,l),
(385,288,l),
(137,188,l),
(188,131,l),
(262,479,ls),
(273,536,o),
(300,563,o),
(346,563,cs),
(392,563,o),
(413,531,o),
(402,478,cs),
(299,0,l),
(449,0,l),
(551,478,ls),
(563,534,o),
(592,563,o),
(638,563,cs),
(684,563,o),
(702,532,o),
(691,475,cs),
(617,130,l),
(695,166,l),
(485,276,l),
(453,129,l),
(696,0,l),
(743,0,l),
(841,466,ls),
(873,613,o),
(806,704,o),
(667,704,cs),
(580,704,o),
(514,665,o),
(466,582,c),
(521,580,l),
(493,663,o),
(437,704,o),
(344,704,cs),
(214,704,o),
(141,631,o),
(109,480,cs),
(7,0,l)
);
}
);
width = 854;
}
);
metricLeft = "guCarrier-canadian";
metricRight = "guCarrier-canadian";
note = uni15FC;
unicode = 5628;
},
{
color = 9;
glyphname = "kkeCarrier-canadian";
lastChange = "2023-01-13 15:57:31 +0000";
layers = (
{
layerId = "D19189FD-F605-4705-8DF9-B27AB1AA0ED8";
shapes = (
{
closed = 1;
nodes = (
(423,0,ls),
(578,0,o),
(685,72,o),
(685,215,cs),
(685,280,o),
(654,330,o),
(592,363,c),
(583,311,l),
(697,343,o),
(750,427,o),
(750,519,cs),
(750,623,o),
(670,690,o),
(554,690,cs),
(154,690,l),
(145,651,l),
(187,409,l),
(113,409,l),
(86,281,l),
(152,281,l),
(15,39,l),
(7,0,l)
);
},
{
closed = 1;
nodes = (
(316,281,l),
(459,281,ls),
(504,281,o),
(530,259,o),
(530,221,cs),
(530,171,o),
(499,129,o),
(426,129,cs),
(158,129,l),
(198,67,l)
);
},
{
closed = 1;
nodes = (
(302,632,l),
(244,560,l),
(518,560,ls),
(564,560,o),
(590,538,o),
(590,499,cs),
(590,443,o),
(553,409,o),
(486,409,cs),
(342,409,l)
);
}
);
width = 756;
}
);
metricRight = "geCarrier-canadian";
note = uni15FD;
unicode = 5629;
},
{
color = 9;
glyphname = "kkeeCarrier-canadian";
lastChange = "2023-01-13 15:57:31 +0000";
layers = (
{
layerId = "D19189FD-F605-4705-8DF9-B27AB1AA0ED8";
shapes = (
{
closed = 1;
nodes = (
(423,0,ls),
(578,0,o),
(685,72,o),
(685,215,cs),
(685,280,o),
(654,330,o),
(592,363,c),
(583,311,l),
(697,343,o),
(750,427,o),
(750,519,cs),
(750,623,o),
(670,690,o),
(554,690,cs),
(154,690,l),
(145,651,l),
(187,409,l),
(113,409,l),
(86,281,l),
(152,281,l),
(15,39,l),
(7,0,l)
);
},
{
closed = 1;
nodes = (
(318,285,l),
(359,285,l),
(343,206,l),
(442,206,l),
(466,315,l),
(431,285,l),
(465,285,ls),
(507,285,o),
(530,259,o),
(530,221,cs),
(530,171,o),
(499,129,o),
(426,129,cs),
(158,129,l),
(198,67,l)
);
},
{
closed = 1;
nodes = (
(501,485,l),
(402,485,l),
(384,405,l),
(343,405,l),
(302,632,l),
(244,560,l),
(518,560,ls),
(564,560,o),
(590,538,o),
(590,499,cs),
(590,443,o),
(553,405,o),
(489,405,cs),
(455,405,l),
(480,384,l)
);
}
);
width = 756;
}
);
metricLeft = "kkeCarrier-canadian";
metricRight = "geCarrier-canadian";
note = uni15FE;
unicode = 5630;
},
{
color = 9;
glyphname = "kkiCarrier-canadian";
lastChange = "2023-01-13 15:57:31 +0000";
layers = (
{
layerId = "D19189FD-F605-4705-8DF9-B27AB1AA0ED8";
shapes = (
{
closed = 1;
nodes = (
(423,0,ls),
(578,0,o),
(685,72,o),
(685,215,cs),
(685,280,o),
(654,330,o),
(592,363,c),
(583,311,l),
(697,343,o),
(750,427,o),
(750,519,cs),
(750,623,o),
(670,690,o),
(554,690,cs),
(154,690,l),
(145,651,l),
(187,409,l),
(113,409,l),
(86,281,l),
(152,281,l),
(15,39,l),
(7,0,l)
);
},
{
closed = 1;
nodes = (
(319,288,l),
(323,288,l),
(341,254,o),
(376,232,o),
(417,232,cs),
(470,232,o),
(512,270,o),
(521,319,c),
(430,288,l),
(465,288,ls),
(510,288,o),
(530,259,o),
(530,221,cs),
(530,171,o),
(499,129,o),
(426,129,cs),
(158,129,l),
(198,67,l)
);
},
{
closed = 1;
nodes = (
(515,419,o),
(472,459,o),
(417,459,cs),
(376,459,o),
(340,436,o),
(323,402,c),
(344,402,l),
(302,632,l),
(244,560,l),
(518,560,ls),
(564,560,o),
(590,538,o),
(590,499,cs),
(590,443,o),
(555,402,o),
(489,402,cs),
(432,402,l),
(524,367,l)
);
}
);
width = 756;
}
);
metricLeft = "kkeCarrier-canadian";
metricRight = "geCarrier-canadian";
note = uni15FF;
unicode = 5631;
},
{
color = 9;
glyphname = "kkaCarrier-canadian";
lastChange = "2023-01-13 15:57:31 +0000";
layers = (
{
layerId = "D19189FD-F605-4705-8DF9-B27AB1AA0ED8";
shapes = (
{
closed = 1;
nodes = (
(644,0,l),
(653,39,l),
(611,281,l),
(686,281,l),
(712,409,l),
(646,409,l),
(783,651,l),
(791,690,l),
(375,690,ls),
(220,690,o),
(113,617,o),
(113,474,cs),
(113,410,o),
(144,359,o),
(206,327,c),
(214,379,l),
(100,347,o),
(48,263,o),
(48,171,cs),
(48,67,o),
(128,0,o),
(243,0,cs)
);
},
{
closed = 1;
nodes = (
(554,129,l),
(280,129,ls),
(234,129,o),
(208,152,o),
(208,190,cs),
(208,246,o),
(245,281,o),
(312,281,cs),
(456,281,l),
(496,58,l)
);
},
{
closed = 1;
nodes = (
(294,409,o),
(268,431,o),
(268,469,cs),
(268,519,o),
(298,560,o),
(372,560,cs),
(639,560,l),
(600,623,l),
(482,409,l),
(339,409,ls)
);
}
);
width = 756;
}
);
metricLeft = "=|geCarrier-canadian";
metricRight = "=|kkeCarrier-canadian";
note = uni1600;
unicode = 5632;
},
{
color = 6;
glyphname = "kkCarrier-canadian";
lastChange = "2023-01-13 15:57:31 +0000";
layers = (
{
layerId = "D19189FD-F605-4705-8DF9-B27AB1AA0ED8";
shapes = (
{
closed = 1;
nodes = (
(326,527,l),
(174,299,l),
(251,299,l),
(195,527,l),
(95,527,l),
(91,508,l),
(180,183,l),
(204,183,l),
(432,508,l),
(436,527,l)
);
}
);
width = 411;
}
);
note = uni1601;
unicode = 5633;
},
{
color = 9;
glyphname = "nuCarrier-canadian";
lastChange = "2023-01-13 15:57:34 +0000";
layers = (
{
layerId = "D19189FD-F605-4705-8DF9-B27AB1AA0ED8";
shapes = (
{
closed = 1;
nodes = (
(519,-14,o),
(633,84,o),
(671,263,cs),
(683,313,l),
(524,313,l),
(516,275,ls),
(495,179,o),
(441,130,o),
(354,130,cs),
(249,130,o),
(205,197,o),
(231,317,cs),
(309,690,l),
(149,690,l),
(72,328,ls),
(28,122,o),
(134,-14,o),
(343,-14,cs)
);
}
);
width = 715;
}
);
metricLeft = "te-canadian";
note = uni1602;
unicode = 5634;
},
{
color = 9;
glyphname = "noCarrier-canadian";
lastChange = "2023-01-13 15:57:31 +0000";
layers = (
{
layerId = "D19189FD-F605-4705-8DF9-B27AB1AA0ED8";
shapes = (
{
closed = 1;
nodes = (
(609,0,l),
(685,361,ls),
(729,568,o),
(623,704,o),
(414,704,cs),
(239,704,o),
(125,606,o),
(86,427,cs),
(74,377,l),
(234,377,l),
(242,414,ls),
(263,511,o),
(316,559,o),
(403,559,cs),
(508,559,o),
(553,493,o),
(526,373,cs),
(448,0,l)
);
}
);
width = 716;
}
);
metricLeft = "=|nuCarrier-canadian";
metricRight = "te-canadian";
note = uni1603;
unicode = 5635;
},
{
color = 9;
glyphname = "neCarrier-canadian";
lastChange = "2023-01-13 15:57:34 +0000";
layers = (
{
anchors = (
{
name = middle_center_can;
pos = (371,344);
}
);
layerId = "D19189FD-F605-4705-8DF9-B27AB1AA0ED8";
shapes = (
{
closed = 1;
nodes = (
(286,0,ls),
(598,0,o),
(704,218,o),
(704,411,cs),
(704,584,o),
(594,690,o),
(402,690,cs),
(135,690,l),
(104,546,l),
(379,546,ls),
(486,546,o),
(545,491,o),
(545,395,cs),
(545,284,o),
(483,142,o),
(302,142,cs),
(283,142,l),
(253,0,l)
);
}
);
width = 729;
}
);
metricRight = "theCarrier-canadian";
note = uni1604;
unicode = 5636;
},
{
color = 9;
glyphname = "naCarrier-canadian";
lastChange = "2023-01-13 15:57:31 +0000";
layers = (
{
layerId = "D19189FD-F605-4705-8DF9-B27AB1AA0ED8";
shapes = (
{
closed = 1;
nodes = (
(637,0,l),
(667,144,l),
(392,144,ls),
(285,144,o),
(226,199,o),
(226,295,cs),
(226,406,o),
(288,548,o),
(469,548,cs),
(488,548,l),
(518,690,l),
(485,690,ls),
(173,690,o),
(68,471,o),
(68,279,cs),
(68,105,o),
(177,0,o),
(370,0,cs)
);
}
);
width = 729;
}
);
metricLeft = "=|theCarrier-canadian";
metricRight = "=|neCarrier-canadian";
note = uni1607;
unicode = 5639;
},
{
color = 9;
glyphname = "muCarrier-canadian";
lastChange = "2023-01-13 15:57:34 +0000";
layers = (
{
layerId = "D19189FD-F605-4705-8DF9-B27AB1AA0ED8";
shapes = (
{
closed = 1;
nodes = (
(323,-14,o),
(393,30,o),
(440,128,c),
(370,128,l),
(395,35,o),
(453,-14,o),
(552,-14,cs),
(681,-14,o),
(754,60,o),
(786,210,cs),
(827,395,l),
(668,395,l),
(630,211,ls),
(617,154,o),
(591,127,o),
(552,127,cs),
(505,127,o),
(486,159,o),
(497,211,cs),
(536,395,l),
(381,395,l),
(342,212,ls),
(329,155,o),
(300,127,o),
(259,127,cs),
(215,127,o),
(198,157,o),
(210,214,cs),
(310,690,l),
(153,690,l),
(54,224,ls),
(23,77,o),
(89,-14,o),
(229,-14,cs)
);
}
);
width = 854;
}
);
metricLeft = "guCarrier-canadian";
metricRight = "=|";
note = uni1608;
unicode = 5640;
},
{
color = 9;
glyphname = "moCarrier-canadian";
lastChange = "2023-01-13 15:57:34 +0000";
layers = (
{
layerId = "D19189FD-F605-4705-8DF9-B27AB1AA0ED8";
shapes = (
{
closed = 1;
nodes = (
(742,0,l),
(840,466,ls),
(871,612,o),
(806,704,o),
(666,704,cs),
(572,704,o),
(501,660,o),
(455,562,c),
(525,562,l),
(500,655,o),
(441,704,o),
(344,704,cs),
(213,704,o),
(141,630,o),
(109,480,cs),
(69,295,l),
(227,295,l),
(266,479,ls),
(278,536,o),
(303,563,o),
(344,563,cs),
(389,563,o),
(409,530,o),
(397,479,cs),
(358,295,l),
(514,295,l),
(553,478,ls),
(565,535,o),
(594,563,o),
(636,563,cs),
(679,563,o),
(696,532,o),
(685,475,cs),
(584,0,l)
);
}
);
width = 853;
}
);
metricLeft = "=|muCarrier-canadian";
metricRight = "guCarrier-canadian";
note = uni1609;
unicode = 5641;
},
{
color = 9;
glyphname = "meCarrier-canadian";
lastChange = "2023-01-13 15:57:31 +0000";
layers = (
{
layerId = "D19189FD-F605-4705-8DF9-B27AB1AA0ED8";
shapes = (
{
closed = 1;
nodes = (
(406,0,ls),
(560,0,o),
(668,73,o),
(668,215,cs),
(668,281,o),
(636,333,o),
(573,365,c),
(562,309,l),
(673,340,o),
(732,418,o),
(732,519,cs),
(732,623,o),
(653,690,o),
(537,690,cs),
(135,690,l),
(107,560,l),
(501,560,ls),
(547,560,o),
(573,537,o),
(573,499,cs),
(573,443,o),
(535,409,o),
(469,409,cs),
(322,409,l),
(295,281,l),
(441,281,ls),
(487,281,o),
(513,259,o),
(513,221,cs),
(513,170,o),
(482,129,o),
(409,129,cs),
(262,129,l),
(235,0,l)
);
}
);
width = 739;
}
);
metricLeft = "neCarrier-canadian";
metricRight = "geCarrier-canadian";
note = uni160A;
unicode = 5642;
},
{
color = 9;
glyphname = "meeCarrier-canadian";
lastChange = "2023-01-13 15:57:31 +0000";
layers = (
{
layerId = "D19189FD-F605-4705-8DF9-B27AB1AA0ED8";
shapes = (
{
closed = 1;
nodes = (
(406,0,ls),
(560,0,o),
(668,73,o),
(668,215,cs),
(668,281,o),
(636,333,o),
(573,365,c),
(562,309,l),
(673,340,o),
(732,418,o),
(732,519,cs),
(732,623,o),
(653,690,o),
(537,690,cs),
(135,690,l),
(107,560,l),
(501,560,ls),
(547,560,o),
(573,537,o),
(573,499,cs),
(573,443,o),
(535,406,o),
(469,406,cs),
(423,406,l),
(438,476,l),
(335,476,l),
(279,213,l),
(383,213,l),
(397,284,l),
(443,284,ls),
(488,284,o),
(513,259,o),
(513,221,cs),
(513,170,o),
(482,129,o),
(409,129,cs),
(262,129,l),
(235,0,l)
);
}
);
width = 739;
}
);
metricLeft = "neCarrier-canadian";
metricRight = "geCarrier-canadian";
note = uni160B;
unicode = 5643;
},
{
color = 9;
glyphname = "miCarrier-canadian";
lastChange = "2023-01-13 15:57:31 +0000";
layers = (
{
layerId = "D19189FD-F605-4705-8DF9-B27AB1AA0ED8";
shapes = (
{
closed = 1;
nodes = (
(405,0,ls),
(555,0,o),
(642,61,o),
(663,175,cs),
(678,260,o),
(647,327,o),
(573,365,c),
(561,309,l),
(659,335,o),
(713,395,o),
(727,479,cs),
(752,604,o),
(668,690,o),
(536,690,cs),
(135,690,l),
(107,560,l),
(500,560,ls),
(552,560,o),
(578,531,o),
(570,485,cs),
(563,432,o),
(527,406,o),
(469,406,cs),
(383,406,l),
(471,358,l),
(463,417,o),
(418,459,o),
(359,459,cs),
(296,459,o),
(248,407,o),
(248,345,cs),
(248,281,o),
(296,232,o),
(359,232,cs),
(417,232,o),
(462,274,o),
(470,329,c),
(382,284,l),
(441,284,ls),
(493,284,o),
(519,256,o),
(511,206,cs),
(503,156,o),
(469,129,o),
(408,129,cs),
(261,129,l),
(234,0,l)
);
}
);
width = 737;
}
);
metricLeft = "neCarrier-canadian";
metricRight = "geCarrier-canadian";
note = uni160C;
unicode = 5644;
},
{
color = 9;
glyphname = "maCarrier-canadian";
lastChange = "2023-01-13 15:57:34 +0000";
layers = (
{
layerId = "D19189FD-F605-4705-8DF9-B27AB1AA0ED8";
shapes = (
{
closed = 1;
nodes = (
(646,0,l),
(673,129,l),
(280,129,ls),
(234,129,o),
(208,153,o),
(208,190,cs),
(208,246,o),
(245,281,o),
(312,281,cs),
(459,281,l),
(486,409,l),
(339,409,ls),
(294,409,o),
(268,431,o),
(268,469,cs),
(268,520,o),
(298,560,o),
(372,560,cs),
(519,560,l),
(546,690,l),
(375,690,ls),
(220,690,o),
(113,616,o),
(113,474,cs),
(113,409,o),
(145,356,o),
(208,325,c),
(219,381,l),
(107,350,o),
(48,271,o),
(48,171,cs),
(48,67,o),
(128,0,o),
(243,0,cs)
);
}
);
width = 738;
}
);
metricLeft = "=|geCarrier-canadian";
metricRight = "=|neCarrier-canadian";
note = uni160D;
unicode = 5645;
},
{
color = 9;
glyphname = "yuCarrier-canadian";
lastChange = "2023-01-13 15:57:31 +0000";
layers = (
{
layerId = "D19189FD-F605-4705-8DF9-B27AB1AA0ED8";
shapes = (
{
closed = 1;
nodes = (
(554,-14,o),
(688,114,o),
(738,350,cs),
(783,564,o),
(723,704,o),
(564,704,cs),
(412,704,o),
(344,572,o),
(344,451,cs),
(344,353,o),
(399,286,o),
(486,286,cs),
(497,286,o),
(507,288,o),
(526,291,c),
(553,416,l),
(549,415,o),
(544,415,o),
(538,415,cs),
(501,415,o),
(484,433,o),
(484,467,cs),
(484,502,o),
(500,575,o),
(552,575,cs),
(608,575,o),
(616,503,o),
(591,384,cs),
(555,209,o),
(491,130,o),
(378,130,cs),
(260,130,o),
(209,215,o),
(237,344,cs),
(310,690,l),
(150,690,l),
(76,347,ls),
(32,136,o),
(144,-14,o),
(360,-14,cs)
);
}
);
width = 771;
}
);
metricLeft = "te-canadian";
metricRight = "te-canadian";
note = uni160E;
unicode = 5646;
},
{
color = 9;
glyphname = "yoCarrier-canadian";
lastChange = "2023-01-13 15:57:31 +0000";
layers = (
{
layerId = "D19189FD-F605-4705-8DF9-B27AB1AA0ED8";
shapes = (
{
closed = 1;
nodes = (
(401,-14,o),
(469,118,o),
(469,239,cs),
(469,337,o),
(415,404,o),
(327,404,cs),
(317,404,o),
(306,402,o),
(287,399,c),
(261,273,l),
(266,274,o),
(270,274,o),
(276,274,cs),
(312,274,o),
(330,257,o),
(330,223,cs),
(330,187,o),
(314,115,o),
(263,115,cs),
(207,115,o),
(197,186,o),
(222,305,cs),
(258,481,o),
(324,559,o),
(437,559,cs),
(554,559,o),
(605,474,o),
(578,346,cs),
(504,0,l),
(665,0,l),
(737,343,ls),
(782,554,o),
(670,704,o),
(454,704,cs),
(260,704,o),
(126,576,o),
(75,340,cs),
(30,126,o),
(91,-14,o),
(250,-14,cs)
);
}
);
width = 772;
}
);
metricLeft = "te-canadian";
metricRight = "te-canadian";
note = uni160F;
unicode = 5647;
},
{
color = 9;
glyphname = "yeCarrier-canadian";
lastChange = "2023-01-13 15:57:34 +0000";
layers = (
{
layerId = "D19189FD-F605-4705-8DF9-B27AB1AA0ED8";
shapes = (
{
closed = 1;
nodes = (
(574,-14,o),
(698,207,o),
(698,406,cs),
(698,584,o),
(587,690,o),
(390,690,cs),
(156,690,l),
(127,546,l),
(363,546,ls),
(478,546,o),
(538,492,o),
(538,393,cs),
(538,267,o),
(487,121,o),
(323,121,cs),
(234,121,o),
(184,154,o),
(184,211,cs),
(184,245,o),
(201,296,o),
(247,296,cs),
(276,296,o),
(293,277,o),
(293,244,cs),
(293,226,o),
(288,202,o),
(281,185,c),
(408,185,l),
(418,212,o),
(426,243,o),
(426,271,cs),
(426,362,o),
(360,422,o),
(256,422,cs),
(120,422,o),
(43,306,o),
(43,192,cs),
(43,66,o),
(147,-14,o),
(317,-14,cs)
);
}
);
width = 724;
}
);
metricRight = "theCarrier-canadian";
note = uni1610;
unicode = 5648;
},
{
color = 9;
glyphname = "yeeCarrier-canadian";
lastChange = "2023-01-13 15:57:34 +0000";
layers = (
{
layerId = "D19189FD-F605-4705-8DF9-B27AB1AA0ED8";
shapes = (
{
closed = 1;
nodes = (
(571,-14,o),
(698,204,o),
(698,406,cs),
(698,584,o),
(585,690,o),
(390,690,cs),
(156,690,l),
(127,546,l),
(363,546,ls),
(478,546,o),
(537,492,o),
(537,388,cs),
(537,303,o),
(509,121,o),
(323,121,cs),
(234,121,o),
(184,153,o),
(184,209,cs),
(184,243,o),
(201,296,o),
(248,296,cs),
(285,296,o),
(300,267,o),
(291,226,cs),
(283,189,l),
(375,189,l),
(438,483,l),
(346,483,l),
(311,324,l),
(326,323,l),
(335,383,o),
(297,422,o),
(228,422,cs),
(109,422,o),
(44,306,o),
(44,198,cs),
(44,69,o),
(147,-14,o),
(320,-14,cs)
);
}
);
width = 724;
}
);
metricRight = "theCarrier-canadian";
metricWidth = "yeCarrier-canadian";
note = uni1611;
unicode = 5649;
},
{
color = 9;
glyphname = "yiCarrier-canadian";
lastChange = "2023-01-13 15:57:34 +0000";
layers = (
{
layerId = "D19189FD-F605-4705-8DF9-B27AB1AA0ED8";
shapes = (
{
closed = 1;
nodes = (
(569,-14,o),
(698,199,o),
(698,406,cs),
(698,584,o),
(586,690,o),
(390,690,cs),
(156,690,l),
(127,546,l),
(363,546,ls),
(478,546,o),
(537,492,o),
(537,388,cs),
(537,296,o),
(504,121,o),
(323,121,cs),
(233,121,o),
(183,154,o),
(183,211,cs),
(183,262,o),
(213,308,o),
(289,297,c),
(247,344,l),
(247,293,o),
(289,252,o),
(342,252,cs),
(396,252,o),
(437,293,o),
(437,346,cs),
(437,398,o),
(396,438,o),
(342,438,cs),
(311,438,o),
(285,425,o),
(269,404,c),
(130,398,o),
(42,319,o),
(42,191,cs),
(42,70,o),
(147,-14,o),
(317,-14,cs)
);
}
);
width = 724;
}
);
metricRight = "theCarrier-canadian";
metricWidth = "yeCarrier-canadian";
note = uni1612;
unicode = 5650;
},
{
color = 9;
glyphname = "yaCarrier-canadian";
lastChange = "2023-01-13 15:57:34 +0000";
layers = (
{
layerId = "D19189FD-F605-4705-8DF9-B27AB1AA0ED8";
shapes = (
{
closed = 1;
nodes = (
(610,0,l),
(640,144,l),
(404,144,ls),
(288,144,o),
(229,198,o),
(229,297,cs),
(229,423,o),
(280,569,o),
(443,569,cs),
(532,569,o),
(582,536,o),
(582,479,cs),
(582,444,o),
(565,394,o),
(520,394,cs),
(490,394,o),
(474,412,o),
(474,445,cs),
(474,465,o),
(479,488,o),
(485,505,c),
(358,505,l),
(348,478,o),
(341,446,o),
(341,418,cs),
(341,327,o),
(407,268,o),
(510,268,cs),
(647,268,o),
(724,384,o),
(724,497,cs),
(724,624,o),
(620,704,o),
(449,704,cs),
(192,704,o),
(68,483,o),
(68,284,cs),
(68,105,o),
(180,0,o),
(376,0,cs)
);
}
);
width = 725;
}
);
metricLeft = "=|theCarrier-canadian";
metricRight = "=|yeCarrier-canadian";
note = uni1613;
unicode = 5651;
},
{
color = 9;
glyphname = "juCarrier-canadian";
lastChange = "2023-01-13 15:57:34 +0000";
layers = (
{
layerId = "D19189FD-F605-4705-8DF9-B27AB1AA0ED8";
shapes = (
{
closed = 1;
nodes = (
(553,-14,o),
(684,93,o),
(684,251,cs),
(684,352,o),
(619,422,o),
(514,422,cs),
(397,422,o),
(326,336,o),
(311,233,cs),
(308,217,o),
(307,201,o),
(308,185,c),
(435,185,l),
(435,193,o),
(437,207,o),
(440,221,cs),
(447,263,o),
(469,296,o),
(503,296,cs),
(529,296,o),
(545,277,o),
(545,245,cs),
(545,176,o),
(493,121,o),
(398,121,cs),
(289,121,o),
(229,172,o),
(229,264,cs),
(229,445,o),
(380,546,o),
(586,546,cs),
(740,546,l),
(771,690,l),
(148,690,l),
(118,553,l),
(377,553,l),
(498,608,l),
(263,602,o),
(71,476,o),
(71,257,cs),
(71,100,o),
(194,-14,o),
(378,-14,cs)
);
}
);
width = 738;
}
);
metricRight = "=|yeCarrier-canadian";
note = uni1614;
unicode = 5652;
},
{
color = 9;
glyphname = "juSayisi-canadian";
lastChange = "2023-01-13 15:57:34 +0000";
layers = (
{
anchors = (
{
name = top_center_can;
pos = (468,690);
}
);
layerId = "D19189FD-F605-4705-8DF9-B27AB1AA0ED8";
shapes = (
{
closed = 1;
nodes = (
(546,-14,o),
(680,145,o),
(691,332,cs),
(701,502,o),
(592,604,o),
(380,610,c),
(492,553,l),
(751,553,l),
(780,690,l),
(156,690,l),
(125,546,l),
(291,546,ls),
(467,546,o),
(545,478,o),
(534,345,cs),
(528,257,o),
(498,121,o),
(326,121,cs),
(231,121,o),
(182,156,o),
(186,218,cs),
(187,256,o),
(207,296,o),
(246,296,cs),
(278,296,o),
(292,275,o),
(290,237,cs),
(290,219,o),
(286,201,o),
(279,185,c),
(406,185,l),
(416,210,o),
(422,236,o),
(423,261,cs),
(429,357,o),
(364,422,o),
(256,422,cs),
(135,422,o),
(52,331,o),
(45,212,cs),
(37,76,o),
(142,-14,o),
(321,-14,cs)
);
}
);
width = 739;
}
);
metricLeft = "yeCarrier-canadian";
metricRight = "=|juCarrier-canadian";
note = uni1615;
unicode = 5653;
},
{
color = 9;
glyphname = "joCarrier-canadian";
lastChange = "2023-01-13 15:57:31 +0000";
layers = (
{
layerId = "D19189FD-F605-4705-8DF9-B27AB1AA0ED8";
shapes = (
{
closed = 1;
nodes = (
(632,0,l),
(661,137,l),
(402,137,l),
(281,82,l),
(516,88,o),
(709,213,o),
(709,433,cs),
(709,589,o),
(584,704,o),
(402,704,cs),
(226,704,o),
(96,597,o),
(96,439,cs),
(96,338,o),
(160,268,o),
(266,268,cs),
(383,268,o),
(453,354,o),
(469,457,cs),
(470,472,o),
(471,489,o),
(471,505,c),
(344,505,l),
(344,497,o),
(343,483,o),
(340,469,cs),
(331,427,o),
(310,394,o),
(276,394,cs),
(249,394,o),
(235,412,o),
(235,444,cs),
(235,514,o),
(287,569,o),
(381,569,cs),
(491,569,o),
(550,518,o),
(550,426,cs),
(550,244,o),
(400,144,o),
(193,144,cs),
(39,144,l),
(9,0,l)
);
}
);
width = 737;
}
);
metricLeft = "yeCarrier-canadian";
metricRight = "=|juCarrier-canadian";
note = uni1616;
unicode = 5654;
},
{
color = 9;
glyphname = "jeCarrier-canadian";
lastChange = "2023-01-13 15:57:31 +0000";
layers = (
{
layerId = "D19189FD-F605-4705-8DF9-B27AB1AA0ED8";
shapes = (
{
closed = 1;
nodes = (
(675,-14,o),
(744,254,o),
(744,415,cs),
(744,590,o),
(657,704,o),
(506,704,cs),
(384,704,o),
(293,628,o),
(245,490,c),
(271,486,l),
(316,690,l),
(156,690,l),
(10,0,l),
(170,0,l),
(229,274,ls),
(268,457,o),
(353,559,o),
(468,559,cs),
(550,559,o),
(591,506,o),
(591,405,cs),
(591,335,o),
(562,115,o),
(475,115,cs),
(444,115,o),
(427,135,o),
(427,168,cs),
(427,217,o),
(454,274,o),
(513,274,cs),
(520,274,o),
(526,274,o),
(531,273,c),
(556,399,l),
(536,402,o),
(521,404,o),
(505,404,cs),
(355,404,o),
(289,271,o),
(289,156,cs),
(289,51,o),
(354,-14,o),
(462,-14,cs)
);
}
);
width = 778;
}
);
metricLeft = "nunavuth-canadian";
metricRight = "te-canadian";
note = uni1617;
unicode = 5655;
},
{
color = 9;
glyphname = "jeeCarrier-canadian";
lastChange = "2023-01-13 15:57:31 +0000";
layers = (
{
layerId = "D19189FD-F605-4705-8DF9-B27AB1AA0ED8";
shapes = (
{
closed = 1;
nodes = (
(674,-14,o),
(744,254,o),
(744,413,cs),
(744,590,o),
(657,704,o),
(506,704,cs),
(384,704,o),
(293,628,o),
(245,488,c),
(271,486,l),
(316,690,l),
(156,690,l),
(10,0,l),
(170,0,l),
(228,269,ls),
(269,457,o),
(352,559,o),
(467,559,cs),
(550,559,o),
(592,506,o),
(592,405,cs),
(592,307,o),
(555,115,o),
(450,115,cs),
(404,115,o),
(378,142,o),
(378,188,cs),
(378,231,o),
(393,278,o),
(433,298,c),
(417,224,l),
(497,224,l),
(548,462,l),
(468,462,l),
(451,384,l),
(335,357,o),
(289,249,o),
(289,155,cs),
(289,53,o),
(355,-14,o),
(463,-14,cs)
);
}
);
width = 778;
}
);
metricLeft = "nunavuth-canadian";
metricRight = "jeCarrier-canadian";
note = uni1618;
unicode = 5656;
},
{
color = 9;
glyphname = "jiCarrier-canadian";
lastChange = "2023-01-13 15:57:31 +0000";
layers = (
{
layerId = "D19189FD-F605-4705-8DF9-B27AB1AA0ED8";
shapes = (
{
closed = 1;
nodes = (
(674,-14,o),
(744,254,o),
(744,413,cs),
(744,590,o),
(657,704,o),
(506,704,cs),
(384,704,o),
(293,628,o),
(245,488,c),
(271,486,l),
(316,690,l),
(156,690,l),
(10,0,l),
(170,0,l),
(228,269,ls),
(269,457,o),
(352,559,o),
(467,559,cs),
(550,559,o),
(592,506,o),
(592,405,cs),
(592,307,o),
(555,115,o),
(450,115,cs),
(404,115,o),
(378,142,o),
(378,188,cs),
(378,214,o),
(384,246,o),
(403,266,c),
(416,257,o),
(433,250,o),
(452,250,cs),
(504,250,o),
(542,293,o),
(542,344,cs),
(542,397,o),
(503,436,o),
(451,436,cs),
(397,436,o),
(357,390,o),
(361,333,c),
(309,289,o),
(289,218,o),
(289,155,cs),
(289,53,o),
(355,-14,o),
(463,-14,cs)
);
}
);
width = 778;
}
);
metricLeft = "nunavuth-canadian";
metricRight = "jeCarrier-canadian";
note = uni1619;
unicode = 5657;
},
{
color = 9;
glyphname = "jiSayisi-canadian";
lastChange = "2023-01-13 15:57:34 +0000";
layers = (
{
layerId = "D19189FD-F605-4705-8DF9-B27AB1AA0ED8";
shapes = (
{
closed = 1;
nodes = (
(650,-14,o),
(760,291,o),
(760,480,cs),
(760,621,o),
(695,704,o),
(575,704,cs),
(422,704,o),
(352,564,o),
(352,447,cs),
(352,351,o),
(407,286,o),
(495,286,cs),
(511,286,o),
(525,288,o),
(533,291,c),
(560,416,l),
(554,415,o),
(549,415,o),
(544,415,cs),
(508,415,o),
(490,432,o),
(490,466,cs),
(490,498,o),
(508,575,o),
(560,575,cs),
(594,575,o),
(611,546,o),
(611,491,cs),
(611,401,o),
(566,130,o),
(390,130,cs),
(236,130,o),
(233,292,o),
(263,432,cs),
(317,690,l),
(156,690,l),
(10,0,l),
(169,0,l),
(218,237,l),
(194,239,l),
(176,100,o),
(248,-14,o),
(398,-14,cs)
);
}
);
width = 778;
}
);
metricLeft = "nunavuth-canadian";
metricRight = "jeCarrier-canadian";
note = uni161A;
unicode = 5658;
},
{
color = 9;
glyphname = "jaCarrier-canadian";
lastChange = "2023-01-13 15:57:31 +0000";
layers = (
{
anchors = (
{
name = top_center_can;
pos = (476,690);
}
);
layerId = "D19189FD-F605-4705-8DF9-B27AB1AA0ED8";
shapes = (
{
closed = 1;
nodes = (
(436,-14,o),
(527,62,o),
(575,201,c),
(548,205,l),
(504,1,l),
(664,1,l),
(810,691,l),
(650,691,l),
(591,416,ls),
(553,234,o),
(468,131,o),
(353,131,cs),
(270,131,o),
(229,184,o),
(229,285,cs),
(229,355,o),
(258,576,o),
(345,576,cs),
(376,576,o),
(393,555,o),
(393,522,cs),
(393,472,o),
(366,416,o),
(307,416,cs),
(300,416,o),
(294,416,o),
(289,417,c),
(264,292,l),
(284,289,o),
(299,287,o),
(315,287,cs),
(465,287,o),
(531,419,o),
(531,534,cs),
(531,639,o),
(467,704,o),
(358,704,cs),
(145,704,o),
(76,437,o),
(76,275,cs),
(76,99,o),
(163,-14,o),
(314,-14,cs)
);
}
);
width = 778;
}
);
metricLeft = "=|jeCarrier-canadian";
metricRight = "nunavuth-canadian";
note = uni161B;
unicode = 5659;
},
{
color = 9;
glyphname = "jjuCarrier-canadian";
lastChange = "2023-01-13 15:57:34 +0000";
layers = (
{
layerId = "D19189FD-F605-4705-8DF9-B27AB1AA0ED8";
shapes = (
{
closed = 1;
nodes = (
(553,-14,o),
(676,95,o),
(676,253,cs),
(676,354,o),
(611,422,o),
(506,422,cs),
(403,422,o),
(327,355,o),
(304,248,cs),
(299,227,o),
(297,206,o),
(297,185,c),
(424,185,l),
(425,193,o),
(427,211,o),
(431,227,cs),
(441,270,o),
(463,296,o),
(495,296,cs),
(522,296,o),
(536,277,o),
(536,246,cs),
(536,177,o),
(486,120,o),
(389,120,cs),
(283,120,o),
(226,176,o),
(226,270,cs),
(226,454,o),
(354,546,o),
(557,546,cs),
(730,546,l),
(760,690,l),
(576,690,ls),
(460,690,o),
(356,666,o),
(274,619,c),
(209,704,l),
(79,603,l),
(148,514,l),
(96,449,o),
(70,364,o),
(70,273,cs),
(70,106,o),
(188,-14,o),
(376,-14,cs)
);
}
);
width = 730;
}
);
metricRight = "=|yeCarrier-canadian";
note = uni161C;
unicode = 5660;
},
{
color = 9;
glyphname = "jjoCarrier-canadian";
lastChange = "2023-01-13 15:57:34 +0000";
layers = (
{
layerId = "D19189FD-F605-4705-8DF9-B27AB1AA0ED8";
shapes = (
{
closed = 1;
nodes = (
(694,87,l),
(624,176,l),
(676,241,o),
(702,326,o),
(702,416,cs),
(702,583,o),
(583,704,o),
(397,704,cs),
(220,704,o),
(96,595,o),
(96,437,cs),
(96,336,o),
(161,268,o),
(266,268,cs),
(370,268,o),
(445,334,o),
(469,441,cs),
(473,463,o),
(475,484,o),
(476,505,c),
(349,505,l),
(348,497,o),
(345,479,o),
(341,463,cs),
(331,420,o),
(310,394,o),
(278,394,cs),
(251,394,o),
(236,412,o),
(236,443,cs),
(236,513,o),
(287,570,o),
(384,570,cs),
(490,570,o),
(546,514,o),
(546,419,cs),
(546,236,o),
(418,144,o),
(214,144,cs),
(43,144,l),
(12,0,l),
(197,0,ls),
(312,0,o),
(415,24,o),
(498,71,c),
(564,-14,l)
);
}
);
width = 731;
}
);
metricLeft = "yeCarrier-canadian";
metricRight = "=|jjuCarrier-canadian";
note = uni161D;
unicode = 5661;
},
{
color = 9;
glyphname = "jjeCarrier-canadian";
lastChange = "2023-01-13 15:57:31 +0000";
layers = (
{
layerId = "D19189FD-F605-4705-8DF9-B27AB1AA0ED8";
shapes = (
{
closed = 1;
nodes = (
(689,-14,o),
(757,257,o),
(757,414,cs),
(757,596,o),
(662,704,o),
(485,704,cs),
(405,704,o),
(332,679,o),
(271,633,c),
(212,704,l),
(86,598,l),
(161,507,l),
(130,455,o),
(106,393,o),
(92,321,cs),
(23,0,l),
(184,0,l),
(247,299,ls),
(284,469,o),
(363,559,o),
(475,559,cs),
(562,559,o),
(605,507,o),
(605,405,cs),
(605,336,o),
(576,115,o),
(488,115,cs),
(458,115,o),
(440,135,o),
(440,169,cs),
(440,218,o),
(468,274,o),
(524,274,cs),
(531,274,o),
(538,274,o),
(545,273,c),
(570,399,l),
(556,402,o),
(535,404,o),
(519,404,cs),
(369,404,o),
(302,271,o),
(302,156,cs),
(302,52,o),
(366,-14,o),
(475,-14,cs)
);
}
);
width = 791;
}
);
metricRight = "jeCarrier-canadian";
note = uni161E;
unicode = 5662;
},
{
color = 9;
glyphname = "jjeeCarrier-canadian";
lastChange = "2023-01-13 15:57:31 +0000";
layers = (
{
layerId = "D19189FD-F605-4705-8DF9-B27AB1AA0ED8";
shapes = (
{
closed = 1;
nodes = (
(689,-14,o),
(757,257,o),
(757,414,cs),
(757,596,o),
(662,704,o),
(485,704,cs),
(405,704,o),
(332,679,o),
(271,633,c),
(212,704,l),
(86,598,l),
(161,507,l),
(130,455,o),
(106,393,o),
(92,321,cs),
(23,0,l),
(184,0,l),
(247,299,ls),
(284,469,o),
(363,559,o),
(475,559,cs),
(562,559,o),
(605,507,o),
(605,405,cs),
(605,329,o),
(578,115,o),
(466,115,cs),
(420,115,o),
(390,141,o),
(390,189,cs),
(390,238,o),
(408,281,o),
(445,298,c),
(430,224,l),
(510,224,l),
(560,460,l),
(480,460,l),
(464,384,l),
(353,359,o),
(302,256,o),
(302,156,cs),
(302,52,o),
(366,-14,o),
(475,-14,cs)
);
}
);
width = 791;
}
);
metricLeft = "jjeCarrier-canadian";
metricRight = "jeCarrier-canadian";
note = uni161F;
unicode = 5663;
},
{
color = 9;
glyphname = "jjiCarrier-canadian";
lastChange = "2023-01-13 15:57:31 +0000";
layers = (
{
layerId = "D19189FD-F605-4705-8DF9-B27AB1AA0ED8";
shapes = (
{
closed = 1;
nodes = (
(618,-14,o),
(707,110,o),
(744,289,cs),
(793,541,o),
(696,704,o),
(482,704,cs),
(401,704,o),
(329,680,o),
(270,635,c),
(212,704,l),
(86,598,l),
(161,509,l),
(129,456,o),
(106,393,o),
(91,321,cs),
(22,0,l),
(183,0,l),
(247,299,ls),
(283,469,o),
(362,559,o),
(475,559,cs),
(585,559,o),
(626,472,o),
(593,302,cs),
(570,190,o),
(535,115,o),
(463,115,cs),
(408,115,o),
(382,154,o),
(394,218,cs),
(397,240,o),
(404,260,o),
(419,270,c),
(434,258,o),
(453,250,o),
(475,250,cs),
(528,250,o),
(565,294,o),
(565,344,cs),
(565,396,o),
(526,436,o),
(474,436,cs),
(418,436,o),
(384,388,o),
(384,342,c),
(343,312,o),
(318,264,o),
(307,207,cs),
(281,75,o),
(352,-14,o),
(475,-14,cs)
);
}
);
width = 790;
}
);
metricLeft = "jjeCarrier-canadian";
metricRight = "jeCarrier-canadian";
note = uni1620;
unicode = 5664;
},
{
color = 9;
glyphname = "jjaCarrier-canadian";
lastChange = "2023-01-13 15:57:34 +0000";
layers = (
{
layerId = "D19189FD-F605-4705-8DF9-B27AB1AA0ED8";
shapes = (
{
closed = 1;
nodes = (
(428,-14,o),
(501,11,o),
(562,57,c),
(621,-14,l),
(747,92,l),
(671,183,l),
(702,235,o),
(726,297,o),
(742,369,cs),
(811,690,l),
(650,690,l),
(585,390,ls),
(550,221,o),
(470,130,o),
(357,130,cs),
(271,130,o),
(229,183,o),
(229,285,cs),
(229,354,o),
(258,575,o),
(345,575,cs),
(376,575,o),
(393,554,o),
(393,521,cs),
(393,471,o),
(366,415,o),
(310,415,cs),
(301,415,o),
(296,415,o),
(289,416,c),
(264,291,l),
(277,288,o),
(299,286,o),
(314,286,cs),
(465,286,o),
(531,418,o),
(531,533,cs),
(531,638,o),
(467,704,o),
(357,704,cs),
(145,704,o),
(76,433,o),
(76,275,cs),
(76,94,o),
(172,-14,o),
(349,-14,cs)
);
}
);
width = 791;
}
);
metricLeft = "=|jeCarrier-canadian";
metricRight = "=|jjeCarrier-canadian";
note = uni1621;
unicode = 5665;
},
{
color = 9;
glyphname = "luCarrier-canadian";
lastChange = "2023-01-13 15:57:31 +0000";
layers = (
{
layerId = "D19189FD-F605-4705-8DF9-B27AB1AA0ED8";
shapes = (
{
closed = 1;
nodes = (
(526,-14,o),
(640,85,o),
(680,270,cs),
(769,690,l),
(609,690,l),
(524,291,ls),
(501,185,o),
(444,130,o),
(358,130,cs),
(276,130,o),
(229,179,o),
(229,264,cs),
(229,389,o),
(308,543,o),
(456,561,c),
(484,690,l),
(147,690,l),
(118,557,l),
(299,557,l),
(433,607,l),
(210,600,o),
(69,446,o),
(69,248,cs),
(69,92,o),
(179,-14,o),
(354,-14,cs)
);
}
);
width = 730;
}
);
metricRight = "te-canadian";
note = uni1622;
unicode = 5666;
},
{
color = 9;
glyphname = "loCarrier-canadian";
lastChange = "2023-01-13 15:57:34 +0000";
layers = (
{
layerId = "D19189FD-F605-4705-8DF9-B27AB1AA0ED8";
shapes = (
{
closed = 1;
nodes = (
(163,0,l),
(247,399,ls),
(270,504,o),
(327,559,o),
(413,559,cs),
(496,559,o),
(542,511,o),
(542,426,cs),
(542,300,o),
(463,147,o),
(315,128,c),
(287,0,l),
(625,0,l),
(653,132,l),
(471,132,l),
(339,83,l),
(561,90,o),
(703,243,o),
(703,441,cs),
(703,598,o),
(592,704,o),
(418,704,cs),
(246,704,o),
(131,605,o),
(92,420,cs),
(3,0,l)
);
}
);
width = 729;
}
);
metricLeft = "te-canadian";
metricRight = "=|luCarrier-canadian";
note = uni1623;
unicode = 5667;
},
{
color = 9;
glyphname = "leCarrier-canadian";
lastChange = "2023-01-13 15:57:34 +0000";
layers = (
{
anchors = (
{
name = middle_center_can;
pos = (375,351);
}
);
layerId = "D19189FD-F605-4705-8DF9-B27AB1AA0ED8";
shapes = (
{
closed = 1;
nodes = (
(279,0,ls),
(616,0,o),
(697,248,o),
(697,424,cs),
(697,588,o),
(608,704,o),
(467,704,cs),
(373,704,o),
(295,653,o),
(258,568,c),
(270,567,l),
(297,690,l),
(153,690,l),
(86,374,l),
(221,374,l),
(255,494,o),
(322,559,o),
(410,559,cs),
(491,559,o),
(538,500,o),
(538,408,cs),
(538,277,o),
(468,144,o),
(290,144,cs),
(37,144,l),
(6,0,l)
);
}
);
width = 721;
}
);
metricRight = "theCarrier-canadian";
note = uni1624;
unicode = 5668;
},
{
color = 9;
glyphname = "laCarrier-canadian";
lastChange = "2023-01-13 15:57:34 +0000";
layers = (
{
layerId = "D19189FD-F605-4705-8DF9-B27AB1AA0ED8";
shapes = (
{
closed = 1;
nodes = (
(610,0,l),
(641,144,l),
(408,144,ls),
(284,144,o),
(228,197,o),
(228,295,cs),
(228,393,o),
(277,559,o),
(425,559,cs),
(520,559,o),
(569,489,o),
(554,374,c),
(691,374,l),
(757,690,l),
(613,690,l),
(582,546,l),
(594,543,l),
(584,641,o),
(514,704,o),
(411,704,cs),
(177,704,o),
(67,460,o),
(67,281,cs),
(67,105,o),
(178,0,o),
(383,0,cs)
);
}
);
width = 722;
}
);
metricLeft = "=|theCarrier-canadian";
metricRight = "=|leCarrier-canadian";
note = uni1627;
unicode = 5671;
},
{
color = 1;
glyphname = "dluCarrier-canadian";
lastChange = "2023-01-13 15:57:34 +0000";
layers = (
{
layerId = "D19189FD-F605-4705-8DF9-B27AB1AA0ED8";
shapes = (
{
closed = 1;
nodes = (
(598,-14,o),
(685,211,o),
(685,367,cs),
(685,503,o),
(606,588,o),
(460,616,c),
(524,569,l),
(722,569,l),
(705,493,l),
(821,493,l),
(880,766,l),
(763,766,l),
(747,690,l),
(434,690,l),
(407,561,l),
(488,547,o),
(533,488,o),
(533,395,cs),
(533,301,o),
(490,130,o),
(345,130,cs),
(248,130,o),
(206,198,o),
(230,313,cs),
(309,690,l),
(149,690,l),
(70,317,ls),
(27,115,o),
(132,-14,o),
(335,-14,cs)
);
}
);
width = 801;
}
);
metricLeft = "te-canadian";
note = uni1628;
unicode = 5672;
},
{
color = 9;
glyphname = "dloCarrier-canadian";
lastChange = "2023-01-13 15:57:31 +0000";
layers = (
{
layerId = "D19189FD-F605-4705-8DF9-B27AB1AA0ED8";
shapes = (
{
closed = 1;
nodes = (
(700,-76,l),
(759,197,l),
(642,197,l),
(626,121,l),
(466,121,l),
(453,104,l),
(597,138,o),
(703,263,o),
(703,441,cs),
(703,598,o),
(592,704,o),
(418,704,cs),
(246,704,o),
(131,605,o),
(92,420,cs),
(3,0,l),
(163,0,l),
(247,399,ls),
(270,504,o),
(327,559,o),
(413,559,cs),
(496,559,o),
(542,511,o),
(542,426,cs),
(542,300,o),
(463,147,o),
(315,128,c),
(287,0,l),
(601,0,l),
(584,-76,l)
);
}
);
width = 801;
}
);
metricLeft = "te-canadian";
metricRight = "dluCarrier-canadian";
note = uni1629;
unicode = 5673;
},
{
color = 9;
glyphname = "dleCarrier-canadian";
lastChange = "2023-01-13 15:57:31 +0000";
layers = (
{
anchors = (
{
name = middle_center_can;
pos = (390,351);
}
);
layerId = "D19189FD-F605-4705-8DF9-B27AB1AA0ED8";
shapes = (
{
closed = 1;
nodes = (
(294,0,ls),
(631,0,o),
(712,248,o),
(712,424,cs),
(712,588,o),
(622,704,o),
(481,704,cs),
(381,704,o),
(270,634,o),
(226,520,c),
(239,521,l),
(275,694,l),
(359,694,l),
(383,806,l),
(117,806,l),
(94,694,l),
(168,694,l),
(100,374,l),
(236,374,l),
(270,494,o),
(336,559,o),
(424,559,cs),
(505,559,o),
(553,500,o),
(553,408,cs),
(553,277,o),
(482,144,o),
(304,144,cs),
(51,144,l),
(20,0,l)
);
}
);
width = 736;
}
);
metricRight = "theCarrier-canadian";
note = uni162A;
unicode = 5674;
},
{
color = 9;
glyphname = "dlaCarrier-canadian";
lastChange = "2023-01-13 15:57:34 +0000";
layers = (
{
layerId = "D19189FD-F605-4705-8DF9-B27AB1AA0ED8";
shapes = (
{
closed = 1;
nodes = (
(610,0,l),
(641,144,l),
(408,144,ls),
(284,144,o),
(228,197,o),
(228,295,cs),
(228,393,o),
(277,559,o),
(425,559,cs),
(520,559,o),
(569,489,o),
(554,374,c),
(691,374,l),
(758,694,l),
(833,694,l),
(857,806,l),
(590,806,l),
(567,694,l),
(642,694,l),
(610,541,l),
(620,538,l),
(610,641,o),
(514,704,o),
(411,704,cs),
(177,704,o),
(67,460,o),
(67,281,cs),
(67,105,o),
(178,0,o),
(383,0,cs)
);
}
);
width = 736;
}
);
metricLeft = "=|theCarrier-canadian";
metricRight = "=|dleCarrier-canadian";
note = uni162D;
unicode = 5677;
},
{
color = 9;
glyphname = "lhuCarrier-canadian";
lastChange = "2023-01-13 15:57:34 +0000";
layers = (
{
layerId = "D19189FD-F605-4705-8DF9-B27AB1AA0ED8";
shapes = (
{
closed = 1;
nodes = (
(588,-14,o),
(705,169,o),
(705,358,cs),
(705,490,o),
(637,586,o),
(522,608,c),
(580,554,l),
(761,554,l),
(789,690,l),
(522,690,l),
(495,561,l),
(532,532,o),
(553,475,o),
(553,408,cs),
(553,302,o),
(505,130,o),
(369,130,cs),
(284,130,o),
(236,183,o),
(236,273,cs),
(236,362,o),
(281,510,o),
(385,561,c),
(413,690,l),
(146,690,l),
(117,554,l),
(299,554,l),
(381,611,l),
(186,585,o),
(74,426,o),
(74,253,cs),
(74,93,o),
(187,-14,o),
(367,-14,cs)
);
}
);
width = 748;
}
);
metricLeft = "luCarrier-canadian";
metricRight = "=|";
note = uni162E;
unicode = 5678;
},
{
color = 9;
glyphname = "lhoCarrier-canadian";
lastChange = "2023-01-13 15:57:34 +0000";
layers = (
{
layerId = "D19189FD-F605-4705-8DF9-B27AB1AA0ED8";
shapes = (
{
closed = 1;
nodes = (
(268,0,l),
(295,128,l),
(257,157,o),
(237,214,o),
(237,282,cs),
(237,387,o),
(284,559,o),
(420,559,cs),
(505,559,o),
(554,507,o),
(554,416,cs),
(554,327,o),
(508,180,o),
(404,128,c),
(376,0,l),
(643,0,l),
(672,135,l),
(490,135,l),
(409,79,l),
(603,104,o),
(714,264,o),
(714,437,cs),
(714,597,o),
(602,704,o),
(422,704,cs),
(201,704,o),
(84,521,o),
(84,331,cs),
(84,200,o),
(153,103,o),
(268,82,c),
(210,135,l),
(28,135,l),
(0,0,l)
);
}
);
width = 748;
}
);
metricLeft = "luCarrier-canadian";
metricRight = "=|";
note = uni162F;
unicode = 5679;
},
{
color = 9;
glyphname = "lheCarrier-canadian";
lastChange = "2023-01-13 15:57:31 +0000";
layers = (
{
anchors = (
{
name = middle_center_can;
pos = (387,345);
}
);
layerId = "D19189FD-F605-4705-8DF9-B27AB1AA0ED8";
shapes = (
{
closed = 1;
nodes = (
(614,-14,o),
(720,236,o),
(720,420,cs),
(720,590,o),
(627,704,o),
(479,704,cs),
(386,704,o),
(308,658,o),
(270,579,c),
(277,578,l),
(300,690,l),
(156,690,l),
(97,408,l),
(232,408,l),
(273,509,o),
(339,559,o),
(421,559,cs),
(510,559,o),
(560,502,o),
(560,405,cs),
(560,295,o),
(497,130,o),
(359,130,cs),
(269,130,o),
(211,189,o),
(206,282,c),
(71,282,l),
(11,0,l),
(154,0,l),
(185,144,l),
(166,141,l),
(184,47,o),
(269,-14,o),
(384,-14,cs)
);
}
);
width = 744;
}
);
metricLeft = "nunavuth-canadian";
metricRight = "theCarrier-canadian";
note = uni1630;
unicode = 5680;
},
{
color = 9;
glyphname = "lhaCarrier-canadian";
lastChange = "2023-01-13 15:57:31 +0000";
layers = (
{
layerId = "D19189FD-F605-4705-8DF9-B27AB1AA0ED8";
shapes = (
{
closed = 1;
nodes = (
(399,-14,o),
(477,32,o),
(516,111,c),
(508,112,l),
(484,0,l),
(628,0,l),
(689,282,l),
(553,282,l),
(512,181,o),
(445,130,o),
(364,130,cs),
(275,130,o),
(225,187,o),
(225,285,cs),
(225,395,o),
(288,559,o),
(426,559,cs),
(517,559,o),
(575,500,o),
(579,408,c),
(715,408,l),
(775,690,l),
(631,690,l),
(601,546,l),
(619,549,l),
(602,642,o),
(517,704,o),
(404,704,cs),
(171,704,o),
(66,454,o),
(66,270,cs),
(66,99,o),
(158,-14,o),
(306,-14,cs)
);
}
);
width = 743;
}
);
metricLeft = "=|theCarrier-canadian";
metricRight = "nunavuth-canadian";
note = uni1633;
unicode = 5683;
},
{
color = 9;
glyphname = "tlhuCarrier-canadian";
lastChange = "2023-01-13 15:57:31 +0000";
layers = (
{
layerId = "D19189FD-F605-4705-8DF9-B27AB1AA0ED8";
shapes = (
{
closed = 1;
nodes = (
(588,-14,o),
(705,169,o),
(705,358,cs),
(705,480,o),
(661,581,o),
(546,608,c),
(548,569,l),
(740,569,l),
(723,493,l),
(839,493,l),
(897,766,l),
(781,766,l),
(764,690,l),
(522,690,l),
(495,561,l),
(532,532,o),
(553,475,o),
(553,408,cs),
(553,302,o),
(505,130,o),
(369,130,cs),
(284,130,o),
(236,183,o),
(236,273,cs),
(236,362,o),
(281,510,o),
(385,561,c),
(413,690,l),
(146,690,l),
(117,554,l),
(301,554,l),
(355,602,l),
(148,564,o),
(74,389,o),
(74,253,cs),
(74,93,o),
(187,-14,o),
(367,-14,cs)
);
}
);
width = 814;
}
);
metricLeft = "lhuCarrier-canadian";
note = uni1634;
unicode = 5684;
},
{
color = 9;
glyphname = "tlhoCarrier-canadian";
lastChange = "2023-01-13 15:57:34 +0000";
layers = (
{
layerId = "D19189FD-F605-4705-8DF9-B27AB1AA0ED8";
shapes = (
{
closed = 1;
nodes = (
(77,-76,l),
(94,0,l),
(336,0,l),
(363,128,l),
(326,157,o),
(305,214,o),
(305,282,cs),
(305,387,o),
(353,559,o),
(489,559,cs),
(574,559,o),
(622,507,o),
(622,416,cs),
(622,327,o),
(577,180,o),
(472,128,c),
(444,0,l),
(712,0,l),
(741,135,l),
(556,135,l),
(501,88,l),
(710,126,o),
(783,300,o),
(783,437,cs),
(783,597,o),
(670,704,o),
(491,704,cs),
(270,704,o),
(153,521,o),
(153,331,cs),
(153,210,o),
(197,109,o),
(312,82,c),
(310,121,l),
(119,121,l),
(135,197,l),
(19,197,l),
(-40,-76,l)
);
}
);
width = 817;
}
);
metricLeft = "=|tlhuCarrier-canadian";
metricRight = "lhuCarrier-canadian";
note = uni1635;
unicode = 5685;
},
{
color = 9;
glyphname = "tlheCarrier-canadian";
lastChange = "2023-01-13 15:57:34 +0000";
layers = (
{
anchors = (
{
name = middle_center_can;
pos = (398,345);
}
);
layerId = "D19189FD-F605-4705-8DF9-B27AB1AA0ED8";
shapes = (
{
closed = 1;
nodes = (
(624,-14,o),
(730,236,o),
(730,420,cs),
(730,590,o),
(637,704,o),
(489,704,cs),
(371,704,o),
(275,631,o),
(226,515,c),
(255,545,l),
(286,694,l),
(360,694,l),
(384,806,l),
(117,806,l),
(93,694,l),
(168,694,l),
(107,408,l),
(242,408,l),
(283,509,o),
(350,559,o),
(431,559,cs),
(520,559,o),
(571,502,o),
(571,405,cs),
(571,295,o),
(508,130,o),
(369,130,cs),
(278,130,o),
(220,189,o),
(216,282,c),
(80,282,l),
(20,0,l),
(164,0,l),
(194,144,l),
(176,141,l),
(193,47,o),
(279,-14,o),
(394,-14,cs)
);
}
);
width = 754;
}
);
metricLeft = "dleCarrier-canadian";
metricRight = "theCarrier-canadian";
note = uni1636;
unicode = 5686;
},
{
color = 9;
glyphname = "tlhaCarrier-canadian";
lastChange = "2023-01-13 15:57:31 +0000";
layers = (
{
layerId = "D19189FD-F605-4705-8DF9-B27AB1AA0ED8";
shapes = (
{
closed = 1;
nodes = (
(399,-14,o),
(478,32,o),
(516,111,c),
(508,112,l),
(485,0,l),
(629,0,l),
(689,282,l),
(554,282,l),
(513,181,o),
(446,130,o),
(364,130,cs),
(275,130,o),
(225,187,o),
(225,285,cs),
(225,395,o),
(288,559,o),
(426,559,cs),
(518,559,o),
(575,500,o),
(580,408,c),
(716,408,l),
(777,694,l),
(851,694,l),
(875,806,l),
(608,806,l),
(583,694,l),
(658,694,l),
(625,540,l),
(633,539,l),
(609,646,o),
(520,704,o),
(404,704,cs),
(171,704,o),
(66,454,o),
(66,270,cs),
(66,99,o),
(158,-14,o),
(306,-14,cs)
);
}
);
width = 754;
}
);
metricLeft = "=|theCarrier-canadian";
metricRight = "=|dleCarrier-canadian";
note = uni1639;
unicode = 5689;
},
{
color = 9;
glyphname = "tluCarrier-canadian";
lastChange = "2023-01-13 15:57:31 +0000";
layers = (
{
layerId = "D19189FD-F605-4705-8DF9-B27AB1AA0ED8";
shapes = (
{
closed = 1;
nodes = (
(330,-14,o),
(395,26,o),
(439,103,c),
(387,105,l),
(410,27,o),
(469,-14,o),
(559,-14,cs),
(767,-14,o),
(825,224,o),
(825,364,cs),
(825,478,o),
(780,556,o),
(697,592,c),
(664,569,l),
(865,569,l),
(848,493,l),
(964,493,l),
(1022,766,l),
(906,766,l),
(890,690,l),
(585,690,l),
(557,561,l),
(636,549,o),
(674,498,o),
(674,404,cs),
(674,329,o),
(644,127,o),
(555,127,cs),
(513,127,o),
(496,157,o),
(507,213,cs),
(527,310,l),
(373,310,l),
(353,213,ls),
(341,155,o),
(317,127,o),
(277,127,cs),
(240,127,o),
(220,152,o),
(220,204,cs),
(220,308,o),
(285,556,o),
(448,561,c),
(476,690,l),
(147,690,l),
(118,554,l),
(309,554,l),
(281,580,l),
(128,512,o),
(61,340,o),
(61,194,cs),
(61,65,o),
(130,-14,o),
(248,-14,cs)
);
}
);
width = 939;
}
);
metricRight = "tlhuCarrier-canadian";
note = uni163A;
unicode = 5690;
},
{
color = 1;
glyphname = "tloCarrier-canadian";
lastChange = "2023-01-13 15:57:31 +0000";
layers = (
{
layerId = "D19189FD-F605-4705-8DF9-B27AB1AA0ED8";
shapes = (
{
closed = 1;
nodes = (
(843,-76,l),
(901,197,l),
(785,197,l),
(769,121,l),
(586,121,l),
(613,99,l),
(777,160,o),
(854,339,o),
(854,496,cs),
(854,625,o),
(784,704,o),
(668,704,cs),
(584,704,o),
(520,664,o),
(477,586,c),
(528,584,l),
(505,663,o),
(446,704,o),
(355,704,cs),
(148,704,o),
(90,466,o),
(90,326,cs),
(90,222,o),
(128,147,o),
(196,108,c),
(235,135,l),
(29,135,l),
(1,0,l),
(330,0,l),
(357,128,l),
(279,141,o),
(241,191,o),
(241,286,cs),
(241,360,o),
(270,563,o),
(359,563,cs),
(402,563,o),
(419,532,o),
(408,477,cs),
(387,380,l),
(542,380,l),
(562,476,ls),
(574,535,o),
(599,563,o),
(638,563,cs),
(675,563,o),
(695,538,o),
(695,486,cs),
(695,382,o),
(630,133,o),
(467,128,c),
(439,0,l),
(744,0,l),
(727,-76,l)
);
}
);
width = 939;
}
);
metricLeft = "tluCarrier-canadian";
metricRight = "tlhuCarrier-canadian";
note = uni163B;
unicode = 5691;
},
{
color = 9;
glyphname = "tleCarrier-canadian";
lastChange = "2023-01-13 15:57:34 +0000";
layers = (
{
anchors = (
{
name = middle_center_can;
pos = (333,345);
}
);
layerId = "D19189FD-F605-4705-8DF9-B27AB1AA0ED8";
shapes = (
{
closed = 1;
nodes = (
(554,-14,o),
(676,75,o),
(676,221,cs),
(676,294,o),
(639,351,o),
(578,365,c),
(569,327,l),
(671,343,o),
(742,428,o),
(742,526,cs),
(742,630,o),
(655,704,o),
(522,704,cs),
(407,704,o),
(307,651,o),
(247,556,c),
(254,554,l),
(283,694,l),
(359,694,l),
(383,806,l),
(117,806,l),
(93,694,l),
(167,694,l),
(106,408,l),
(241,408,l),
(276,509,o),
(352,561,o),
(462,561,cs),
(536,561,o),
(578,535,o),
(578,491,cs),
(578,436,o),
(533,411,o),
(474,411,cs),
(435,411,l),
(407,280,l),
(446,280,ls),
(495,280,o),
(522,262,o),
(522,226,cs),
(522,159,o),
(462,128,o),
(385,128,cs),
(270,128,o),
(209,183,o),
(214,282,c),
(80,282,l),
(20,0,l),
(164,0,l),
(192,134,l),
(174,132,l),
(190,42,o),
(279,-14,o),
(402,-14,cs)
);
}
);
width = 746;
}
);
metricLeft = "dleCarrier-canadian";
metricRight = "geCarrier-canadian";
note = uni163C;
unicode = 5692;
},
{
color = 9;
glyphname = "tlaCarrier-canadian";
lastChange = "2023-01-13 15:57:34 +0000";
layers = (
{
layerId = "D19189FD-F605-4705-8DF9-B27AB1AA0ED8";
shapes = (
{
closed = 1;
nodes = (
(374,-14,o),
(467,31,o),
(527,111,c),
(510,147,l),
(478,0,l),
(623,0,l),
(683,282,l),
(549,282,l),
(513,181,o),
(438,128,o),
(327,128,cs),
(252,128,o),
(212,155,o),
(212,199,cs),
(212,254,o),
(255,279,o),
(314,279,cs),
(355,279,l),
(383,410,l),
(343,410,ls),
(295,410,o),
(268,428,o),
(268,464,cs),
(268,530,o),
(327,561,o),
(404,561,cs),
(519,561,o),
(581,507,o),
(576,408,c),
(710,408,l),
(770,694,l),
(844,694,l),
(868,806,l),
(602,806,l),
(578,694,l),
(654,694,l),
(611,488,l),
(635,511,l),
(625,631,o),
(528,704,o),
(386,704,cs),
(234,704,o),
(112,614,o),
(112,469,cs),
(112,398,o),
(149,341,o),
(208,326,c),
(216,362,l),
(116,344,o),
(46,261,o),
(46,163,cs),
(46,60,o),
(134,-14,o),
(268,-14,cs)
);
}
);
width = 747;
}
);
metricLeft = "=|geCarrier-canadian";
metricRight = "=|dleCarrier-canadian";
note = uni163F;
unicode = 5695;
},
{
color = 9;
glyphname = "zuCarrier-canadian";
lastChange = "2023-01-13 15:57:31 +0000";
layers = (
{
layerId = "D19189FD-F605-4705-8DF9-B27AB1AA0ED8";
shapes = (
{
closed = 1;
nodes = (
(554,-14,o),
(690,96,o),
(690,290,cs),
(690,358,o),
(671,425,o),
(671,482,cs),
(671,525,o),
(689,553,o),
(736,553,cs),
(763,553,l),
(792,690,l),
(735,690,ls),
(593,690,o),
(520,624,o),
(520,488,cs),
(520,426,o),
(536,365,o),
(536,298,cs),
(536,193,o),
(473,130,o),
(367,130,cs),
(279,130,o),
(227,172,o),
(227,238,cs),
(227,342,o),
(348,436,o),
(348,557,cs),
(348,638,o),
(291,690,o),
(198,690,cs),
(146,690,l),
(117,553,l),
(152,553,ls),
(181,553,o),
(191,542,o),
(191,522,cs),
(191,463,o),
(68,364,o),
(68,212,cs),
(68,78,o),
(180,-14,o),
(355,-14,cs)
);
}
);
width = 750;
}
);
metricRight = "=|";
note = uni1640;
unicode = 5696;
},
